Graphik-BoldItalic.ufo
<glyph name="exclam" format="2">
  <advance width="334"/>
  <unicode hex="0021"/>
  <outline>
    <contour>
      <point x="87" y="235" type="line"/>
      <point x="137" y="715" type="line"/>
      <point x="339" y="715" type="line"/>
      <point x="236" y="235" type="line"/>
    </contour>
    <contour>
      <point x="140" y="-11" type="curve" smooth="yes"/>
      <point x="81" y="-11"/>
      <point x="38" y="32"/>
      <point x="38" y="87" type="curve" smooth="yes"/>
      <point x="38" y="143"/>
      <point x="83" y="188"/>
      <point x="142" y="188" type="curve" smooth="yes"/>
      <point x="200" y="188"/>
      <point x="246" y="144"/>
      <point x="246" y="89" type="curve" smooth="yes"/>
      <point x="246" y="34"/>
      <point x="199" y="-11"/>
    </contour>
  </outline>
</glyph>
<glyph name="quotedbl" format="2">
  <advance width="462"/>
  <unicode hex="0022"/>
  <outline>
    <contour>
      <point x="91" y="440" type="line"/>
      <point x="111" y="715" type="line"/>
      <point x="280" y="715" type="line"/>
      <point x="217" y="440" type="line"/>
    </contour>
    <contour>
      <point x="303" y="440" type="line"/>
      <point x="324" y="715" type="line"/>
      <point x="492" y="715" type="line"/>
      <point x="430" y="440" type="line"/>
    </contour>
  </outline>
</glyph>
<glyph name="numbersign" format="2">
  <advance width="569"/>
  <unicode hex="0023"/>
  <outline>
    <contour>
      <point x="264" y="99" type="line"/>
      <point x="298" y="241" type="line"/>
      <point x="235" y="241" type="line"/>
      <point x="202" y="99" type="line"/>
      <point x="81" y="99" type="line"/>
      <point x="114" y="241" type="line"/>
      <point x="37" y="241" type="line"/>
      <point x="60" y="382" type="line"/>
      <point x="148" y="382" type="line"/>
      <point x="166" y="458" type="line"/>
      <point x="88" y="458" type="line"/>
      <point x="108" y="592" type="line"/>
      <point x="198" y="592" type="line"/>
      <point x="227" y="715" type="line"/>
      <point x="348" y="715" type="line"/>
      <point x="319" y="592" type="line"/>
      <point x="381" y="592" type="line"/>
      <point x="411" y="715" type="line"/>
      <point x="532" y="715" type="line"/>
      <point x="502" y="592" type="line"/>
      <point x="581" y="592" type="line"/>
      <point x="561" y="458" type="line"/>
      <point x="470" y="458" type="line"/>
      <point x="452" y="382" type="line"/>
      <point x="533" y="382" type="line"/>
      <point x="510" y="241" type="line"/>
      <point x="419" y="241" type="line"/>
      <point x="385" y="99" type="line"/>
    </contour>
    <contour>
      <point x="287" y="458" type="line"/>
      <point x="269" y="382" type="line"/>
      <point x="331" y="382" type="line"/>
      <point x="349" y="458" type="line"/>
    </contour>
  </outline>
</glyph>
<glyph name="dollar" format="2">
  <advance width="643"/>
  <unicode hex="0024"/>
  <outline>
    <contour>
      <point x="221" y="-135" type="line"/>
      <point x="241" y="-6" type="line"/>
      <point x="117" y="12"/>
      <point x="16" y="82"/>
      <point x="13" y="226" type="curve"/>
      <point x="197" y="226" type="line"/>
      <point x="198" y="180"/>
      <point x="220" y="148"/>
      <point x="263" y="134" type="curve"/>
      <point x="287" y="286" type="line"/>
      <point x="142" y="319"/>
      <point x="72" y="377"/>
      <point x="72" y="491" type="curve" smooth="yes"/>
      <point x="72" y="635"/>
      <point x="199" y="723"/>
      <point x="357" y="725" type="curve"/>
      <point x="371" y="813" type="line"/>
      <point x="449" y="813" type="line"/>
      <point x="434" y="720" type="line"/>
      <point x="552" y="704"/>
      <point x="642" y="645"/>
      <point x="647" y="507" type="curve"/>
      <point x="466" y="507" type="line"/>
      <point x="464" y="547"/>
      <point x="443" y="569"/>
      <point x="412" y="580" type="curve"/>
      <point x="389" y="436" type="line"/>
      <point x="525" y="404"/>
      <point x="612" y="351"/>
      <point x="612" y="231" type="curve" smooth="yes"/>
      <point x="612" y="73"/>
      <point x="488" y="-11"/>
      <point x="318" y="-12" type="curve"/>
      <point x="299" y="-135" type="line"/>
    </contour>
    <contour>
      <point x="428" y="204" type="curve" smooth="yes"/>
      <point x="428" y="233"/>
      <point x="412" y="251"/>
      <point x="362" y="267" type="curve"/>
      <point x="340" y="127" type="line"/>
      <point x="398" y="131"/>
      <point x="428" y="157"/>
    </contour>
    <contour>
      <point x="250" y="518" type="curve" smooth="yes"/>
      <point x="250" y="486"/>
      <point x="265" y="469"/>
      <point x="314" y="454" type="curve"/>
      <point x="335" y="587" type="line"/>
      <point x="288" y="583"/>
      <point x="250" y="561"/>
    </contour>
  </outline>
</glyph>
<glyph name="percent" format="2">
  <advance width="827"/>
  <unicode hex="0025"/>
  <outline>
    <contour>
      <point x="191" y="528" type="curve" smooth="yes"/>
      <point x="191" y="497"/>
      <point x="203" y="467"/>
      <point x="244" y="468" type="curve" smooth="yes"/>
      <point x="287" y="469"/>
      <point x="307" y="515"/>
      <point x="307" y="562" type="curve" smooth="yes"/>
      <point x="307" y="593"/>
      <point x="292" y="621"/>
      <point x="256" y="621" type="curve" smooth="yes"/>
      <point x="211" y="621"/>
      <point x="191" y="578"/>
    </contour>
    <contour>
      <point x="239" y="364" type="curve" smooth="yes"/>
      <point x="140" y="364"/>
      <point x="58" y="421"/>
      <point x="58" y="524" type="curve" smooth="yes"/>
      <point x="58" y="634"/>
      <point x="141" y="723"/>
      <point x="260" y="723" type="curve" smooth="yes"/>
      <point x="357" y="723"/>
      <point x="438" y="664"/>
      <point x="438" y="562" type="curve" smooth="yes"/>
      <point x="438" y="455"/>
      <point x="356" y="364"/>
    </contour>
    <contour>
      <point x="95" y="0" type="line"/>
      <point x="672" y="715" type="line"/>
      <point x="771" y="715" type="line"/>
      <point x="194" y="0" type="line"/>
    </contour>
    <contour>
      <point x="557" y="152" type="curve" smooth="yes"/>
      <point x="557" y="121"/>
      <point x="570" y="92"/>
      <point x="610" y="92" type="curve" smooth="yes"/>
      <point x="653" y="93"/>
      <point x="673" y="140"/>
      <point x="673" y="186" type="curve" smooth="yes"/>
      <point x="673" y="217"/>
      <point x="659" y="246"/>
      <point x="622" y="246" type="curve" smooth="yes"/>
      <point x="577" y="246"/>
      <point x="557" y="202"/>
    </contour>
    <contour>
      <point x="605" y="-12" type="curve" smooth="yes"/>
      <point x="507" y="-12"/>
      <point x="425" y="45"/>
      <point x="425" y="148" type="curve" smooth="yes"/>
      <point x="425" y="256"/>
      <point x="507" y="347"/>
      <point x="626" y="347" type="curve" smooth="yes"/>
      <point x="723" y="347"/>
      <point x="805" y="288"/>
      <point x="805" y="186" type="curve" smooth="yes"/>
      <point x="805" y="79"/>
      <point x="723" y="-12"/>
    </contour>
  </outline>
</glyph>
<glyph name="ampersand" format="2">
  <advance width="762"/>
  <unicode hex="0026"/>
  <outline>
    <contour>
      <point x="693" y="0" type="line"/>
      <point x="476" y="0" type="line"/>
      <point x="440" y="54" type="line"/>
      <point x="396" y="20"/>
      <point x="333" y="-11"/>
      <point x="245" y="-11" type="curve" smooth="yes"/>
      <point x="129" y="-11"/>
      <point x="17" y="41"/>
      <point x="17" y="182" type="curve" smooth="yes"/>
      <point x="17" y="304"/>
      <point x="113" y="375"/>
      <point x="210" y="411" type="curve"/>
      <point x="189" y="445"/>
      <point x="176" y="488"/>
      <point x="176" y="524" type="curve" smooth="yes"/>
      <point x="176" y="653"/>
      <point x="285" y="724"/>
      <point x="414" y="724" type="curve" smooth="yes"/>
      <point x="515" y="724"/>
      <point x="622" y="677"/>
      <point x="622" y="558" type="curve" smooth="yes"/>
      <point x="622" y="457"/>
      <point x="544" y="407"/>
      <point x="456" y="371" type="curve"/>
      <point x="527" y="261" type="line"/>
      <point x="598" y="372" type="line"/>
      <point x="760" y="372" type="line"/>
      <point x="607" y="135" type="line"/>
    </contour>
    <contour>
      <point x="212" y="210" type="curve" smooth="yes"/>
      <point x="212" y="164"/>
      <point x="240" y="135"/>
      <point x="291" y="135" type="curve" smooth="yes"/>
      <point x="320" y="135"/>
      <point x="348" y="147"/>
      <point x="366" y="165" type="curve"/>
      <point x="275" y="303" type="line"/>
      <point x="243" y="286"/>
      <point x="212" y="260"/>
    </contour>
    <contour>
      <point x="411" y="597" type="curve" smooth="yes"/>
      <point x="376" y="597"/>
      <point x="350" y="572"/>
      <point x="350" y="531" type="curve" smooth="yes"/>
      <point x="350" y="507"/>
      <point x="363" y="482"/>
      <point x="382" y="456" type="curve"/>
      <point x="422" y="475"/>
      <point x="463" y="496"/>
      <point x="463" y="544" type="curve" smooth="yes"/>
      <point x="463" y="573"/>
      <point x="445" y="597"/>
    </contour>
  </outline>
</glyph>
<glyph name="quotesingle" format="2">
  <advance width="256"/>
  <unicode hex="0027"/>
  <outline>
    <contour>
      <point x="91" y="440" type="line"/>
      <point x="111" y="715" type="line"/>
      <point x="286" y="715" type="line"/>
      <point x="224" y="440" type="line"/>
    </contour>
  </outline>
</glyph>
<glyph name="parenleft" format="2">
  <advance width="356"/>
  <unicode hex="0028"/>
  <outline>
    <contour>
      <point x="140" y="-148" type="line"/>
      <point x="86" y="-65"/>
      <point x="35" y="48"/>
      <point x="35" y="210" type="curve" smooth="yes"/>
      <point x="35" y="437"/>
      <point x="133" y="631"/>
      <point x="286" y="775" type="curve"/>
      <point x="433" y="775" type="line"/>
      <point x="293" y="601"/>
      <point x="205" y="428"/>
      <point x="205" y="197" type="curve" smooth="yes"/>
      <point x="205" y="56"/>
      <point x="236" y="-61"/>
      <point x="279" y="-148" type="curve"/>
    </contour>
  </outline>
</glyph>
<glyph name="parenright" format="2">
  <advance width="356"/>
  <unicode hex="0029"/>
  <outline>
    <contour>
      <point x="229" y="776" type="line"/>
      <point x="283" y="693"/>
      <point x="334" y="580"/>
      <point x="334" y="418" type="curve" smooth="yes"/>
      <point x="334" y="191"/>
      <point x="237" y="-3"/>
      <point x="83" y="-147" type="curve"/>
      <point x="-64" y="-147" type="line"/>
      <point x="76" y="27"/>
      <point x="164" y="200"/>
      <point x="164" y="431" type="curve" smooth="yes"/>
      <point x="164" y="572"/>
      <point x="133" y="689"/>
      <point x="90" y="776" type="curve"/>
    </contour>
  </outline>
</glyph>
<glyph name="asterisk" format="2">
  <advance width="440"/>
  <unicode hex="002A"/>
  <outline>
    <contour>
      <point x="181" y="374" type="line"/>
      <point x="86" y="457" type="line"/>
      <point x="188" y="541" type="line"/>
      <point x="73" y="561" type="line"/>
      <point x="127" y="681" type="line"/>
      <point x="229" y="622" type="line"/>
      <point x="224" y="743" type="line"/>
      <point x="367" y="743" type="line"/>
      <point x="324" y="616" type="line"/>
      <point x="441" y="661" type="line"/>
      <point x="456" y="537" type="line"/>
      <point x="336" y="532" type="line"/>
      <point x="412" y="436" type="line"/>
      <point x="292" y="368" type="line"/>
      <point x="254" y="485" type="line"/>
    </contour>
  </outline>
</glyph>
<glyph name="plus" format="2">
  <advance width="570"/>
  <unicode hex="002B"/>
  <outline>
    <contour>
      <point x="184" y="83" type="line"/>
      <point x="214" y="275" type="line"/>
      <point x="38" y="275" type="line"/>
      <point x="59" y="405" type="line"/>
      <point x="235" y="405" type="line"/>
      <point x="265" y="597" type="line"/>
      <point x="408" y="597" type="line"/>
      <point x="378" y="405" type="line"/>
      <point x="554" y="405" type="line"/>
      <point x="533" y="275" type="line"/>
      <point x="357" y="275" type="line"/>
      <point x="327" y="83" type="line"/>
    </contour>
  </outline>
</glyph>
<glyph name="comma" format="2">
  <advance width="306"/>
  <unicode hex="002C"/>
  <outline>
    <contour>
      <point x="77" y="-124" type="line"/>
      <point x="-22" y="-80" type="line"/>
      <point x="85" y="182" type="line"/>
      <point x="242" y="123" type="line"/>
    </contour>
  </outline>
</glyph>
<glyph name="period" format="2">
  <advance width="299"/>
  <unicode hex="002E"/>
  <outline>
    <contour>
      <point x="120" y="-11" type="curve" smooth="yes"/>
      <point x="61" y="-11"/>
      <point x="18" y="34"/>
      <point x="18" y="90" type="curve" smooth="yes"/>
      <point x="18" y="146"/>
      <point x="60" y="191"/>
      <point x="119" y="191" type="curve" smooth="yes"/>
      <point x="179" y="191"/>
      <point x="225" y="146"/>
      <point x="225" y="90" type="curve" smooth="yes"/>
      <point x="225" y="34"/>
      <point x="180" y="-11"/>
    </contour>
  </outline>
</glyph>
<glyph name="slash" format="2">
  <advance width="434"/>
  <unicode hex="002F"/>
  <outline>
    <contour>
      <point x="-84" y="-148" type="line"/>
      <point x="364" y="776" type="line"/>
      <point x="510" y="776" type="line"/>
      <point x="61" y="-148" type="line"/>
    </contour>
  </outline>
</glyph>
<glyph name="zero" format="2">
  <advance width="732"/>
  <unicode hex="0030"/>
  <outline>
    <contour>
      <point x="348" y="-12" type="curve" smooth="yes"/>
      <point x="159" y="-12"/>
      <point x="44" y="97"/>
      <point x="44" y="278" type="curve" smooth="yes"/>
      <point x="44" y="305"/>
      <point x="47" y="333"/>
      <point x="51" y="361" type="curve" smooth="yes"/>
      <point x="56" y="391" type="line" smooth="yes"/>
      <point x="90" y="610"/>
      <point x="227" y="725"/>
      <point x="413" y="725" type="curve" smooth="yes"/>
      <point x="596" y="725"/>
      <point x="716" y="618"/>
      <point x="716" y="431" type="curve" smooth="yes"/>
      <point x="716" y="407"/>
      <point x="714" y="379"/>
      <point x="710" y="353" type="curve" smooth="yes"/>
      <point x="705" y="323" type="line" smooth="yes"/>
      <point x="671" y="104"/>
      <point x="541" y="-12"/>
    </contour>
    <contour>
      <point x="357" y="147" type="curve" smooth="yes"/>
      <point x="441" y="147"/>
      <point x="482" y="209"/>
      <point x="502" y="335" type="curve" smooth="yes"/>
      <point x="507" y="364" type="line" smooth="yes"/>
      <point x="511" y="391"/>
      <point x="513" y="417"/>
      <point x="513" y="440" type="curve" smooth="yes"/>
      <point x="513" y="511"/>
      <point x="490" y="570"/>
      <point x="408" y="570" type="curve" smooth="yes"/>
      <point x="326" y="570"/>
      <point x="279" y="507"/>
      <point x="259" y="380" type="curve" smooth="yes"/>
      <point x="254" y="351" type="line" smooth="yes"/>
      <point x="250" y="324"/>
      <point x="246" y="297"/>
      <point x="246" y="272" type="curve" smooth="yes"/>
      <point x="246" y="205"/>
      <point x="271" y="147"/>
    </contour>
  </outline>
</glyph>
<glyph name="one" format="2">
  <advance width="450"/>
  <unicode hex="0031"/>
  <outline>
    <contour>
      <point x="126" y="0" type="line"/>
      <point x="206" y="513" type="line"/>
      <point x="57" y="427" type="line"/>
      <point x="84" y="602" type="line"/>
      <point x="267" y="715" type="line"/>
      <point x="444" y="715" type="line"/>
      <point x="331" y="0" type="line"/>
    </contour>
  </outline>
</glyph>
<glyph name="two" format="2">
  <advance width="615"/>
  <unicode hex="0032"/>
  <outline>
    <contour>
      <point x="-37" y="0" type="line"/>
      <point x="-33" y="29" type="line"/>
      <point x="262" y="294" type="line" smooth="yes"/>
      <point x="340" y="362"/>
      <point x="408" y="427"/>
      <point x="408" y="501" type="curve" smooth="yes"/>
      <point x="408" y="542"/>
      <point x="386" y="571"/>
      <point x="340" y="571" type="curve" smooth="yes"/>
      <point x="291" y="571"/>
      <point x="253" y="543"/>
      <point x="233" y="455" type="curve"/>
      <point x="48" y="455" type="line"/>
      <point x="70" y="639"/>
      <point x="194" y="726"/>
      <point x="357" y="725" type="curve" smooth="yes"/>
      <point x="504" y="725"/>
      <point x="613" y="656"/>
      <point x="613" y="517" type="curve" smooth="yes"/>
      <point x="613" y="399"/>
      <point x="533" y="323"/>
      <point x="440" y="246" type="curve" smooth="yes"/>
      <point x="329" y="153" type="line"/>
      <point x="565" y="153" type="line"/>
      <point x="541" y="0" type="line"/>
    </contour>
  </outline>
</glyph>
<glyph name="three" format="2">
  <advance width="652"/>
  <unicode hex="0033"/>
  <outline>
    <contour>
      <point x="313" y="-12" type="curve" smooth="yes"/>
      <point x="136" y="-12"/>
      <point x="21" y="66"/>
      <point x="20" y="235" type="curve"/>
      <point x="206" y="235" type="line"/>
      <point x="206" y="178"/>
      <point x="234" y="136"/>
      <point x="305" y="136" type="curve" smooth="yes"/>
      <point x="364" y="136"/>
      <point x="403" y="168"/>
      <point x="403" y="228" type="curve" smooth="yes"/>
      <point x="403" y="274"/>
      <point x="376" y="301"/>
      <point x="315" y="301" type="curve" smooth="yes"/>
      <point x="265" y="301" type="line"/>
      <point x="286" y="428" type="line"/>
      <point x="350" y="428" type="line" smooth="yes"/>
      <point x="402" y="428"/>
      <point x="439" y="452"/>
      <point x="440" y="509" type="curve" smooth="yes"/>
      <point x="440" y="555"/>
      <point x="410" y="578"/>
      <point x="365" y="578" type="curve" smooth="yes"/>
      <point x="309" y="578"/>
      <point x="271" y="548"/>
      <point x="259" y="487" type="curve"/>
      <point x="77" y="487" type="line"/>
      <point x="96" y="630"/>
      <point x="209" y="725"/>
      <point x="378" y="725" type="curve" smooth="yes"/>
      <point x="509" y="725"/>
      <point x="635" y="673"/>
      <point x="635" y="535" type="curve" smooth="yes"/>
      <point x="635" y="454"/>
      <point x="584" y="390"/>
      <point x="496" y="367" type="curve"/>
      <point x="566" y="349"/>
      <point x="609" y="293"/>
      <point x="609" y="222" type="curve" smooth="yes"/>
      <point x="609" y="63"/>
      <point x="465" y="-12"/>
    </contour>
  </outline>
</glyph>
<glyph name="four" format="2">
  <advance width="678"/>
  <unicode hex="0034"/>
  <outline>
    <contour>
      <point x="324" y="0" type="line"/>
      <point x="345" y="137" type="line"/>
      <point x="-2" y="137" type="line"/>
      <point x="10" y="214" type="line"/>
      <point x="388" y="715" type="line"/>
      <point x="634" y="715" type="line"/>
      <point x="565" y="278" type="line"/>
      <point x="657" y="278" type="line"/>
      <point x="634" y="137" type="line"/>
      <point x="542" y="137" type="line"/>
      <point x="521" y="0" type="line"/>
    </contour>
    <contour>
      <point x="216" y="278" type="line"/>
      <point x="372" y="278" type="line"/>
      <point x="416" y="554" type="line"/>
    </contour>
  </outline>
</glyph>
<glyph name="five" format="2">
  <advance width="631"/>
  <unicode hex="0035"/>
  <outline>
    <contour>
      <point x="291" y="-12" type="curve" smooth="yes"/>
      <point x="144" y="-12"/>
      <point x="16" y="54"/>
      <point x="16" y="225" type="curve"/>
      <point x="208" y="225" type="line"/>
      <point x="209" y="175"/>
      <point x="233" y="142"/>
      <point x="291" y="142" type="curve" smooth="yes"/>
      <point x="354" y="142"/>
      <point x="388" y="187"/>
      <point x="389" y="255" type="curve" smooth="yes"/>
      <point x="390" y="312"/>
      <point x="357" y="346"/>
      <point x="295" y="346" type="curve" smooth="yes"/>
      <point x="242" y="346"/>
      <point x="203" y="323"/>
      <point x="177" y="294" type="curve"/>
      <point x="58" y="294" type="line"/>
      <point x="136" y="715" type="line"/>
      <point x="618" y="715" type="line"/>
      <point x="594" y="565" type="line"/>
      <point x="261" y="565" type="line"/>
      <point x="234" y="411" type="line"/>
      <point x="265" y="449"/>
      <point x="319" y="483"/>
      <point x="400" y="483" type="curve" smooth="yes"/>
      <point x="517" y="483"/>
      <point x="596" y="410"/>
      <point x="595" y="273" type="curve" smooth="yes"/>
      <point x="595" y="100"/>
      <point x="477" y="-12"/>
    </contour>
  </outline>
</glyph>
<glyph name="six" format="2">
  <advance width="674"/>
  <unicode hex="0036"/>
  <outline>
    <contour>
      <point x="335" y="-12" type="curve" smooth="yes"/>
      <point x="155" y="-12"/>
      <point x="43" y="80"/>
      <point x="45" y="265" type="curve" smooth="yes"/>
      <point x="45" y="294"/>
      <point x="48" y="327"/>
      <point x="53" y="359" type="curve" smooth="yes"/>
      <point x="57" y="383" type="line" smooth="yes"/>
      <point x="87" y="577"/>
      <point x="212" y="725"/>
      <point x="410" y="725" type="curve" smooth="yes"/>
      <point x="547" y="725"/>
      <point x="659" y="665"/>
      <point x="665" y="514" type="curve"/>
      <point x="475" y="514" type="line"/>
      <point x="473" y="551"/>
      <point x="453" y="574"/>
      <point x="405" y="574" type="curve" smooth="yes"/>
      <point x="314" y="574"/>
      <point x="275" y="484"/>
      <point x="257" y="386" type="curve"/>
      <point x="291" y="430"/>
      <point x="343" y="469"/>
      <point x="426" y="468" type="curve" smooth="yes"/>
      <point x="537" y="468"/>
      <point x="640" y="398"/>
      <point x="640" y="263" type="curve" smooth="yes"/>
      <point x="640" y="91"/>
      <point x="504" y="-12"/>
    </contour>
    <contour>
      <point x="247" y="225" type="curve" smooth="yes"/>
      <point x="247" y="175"/>
      <point x="275" y="133"/>
      <point x="336" y="133" type="curve" smooth="yes"/>
      <point x="398" y="133"/>
      <point x="440" y="185"/>
      <point x="440" y="251" type="curve" smooth="yes"/>
      <point x="440" y="299"/>
      <point x="412" y="340"/>
      <point x="352" y="340" type="curve" smooth="yes"/>
      <point x="292" y="340"/>
      <point x="247" y="291"/>
    </contour>
  </outline>
</glyph>
<glyph name="seven" format="2">
  <advance width="576"/>
  <unicode hex="0037"/>
  <outline>
    <contour>
      <point x="62" y="0" type="line"/>
      <point x="351" y="549" type="line"/>
      <point x="68" y="549" type="line"/>
      <point x="94" y="715" type="line"/>
      <point x="638" y="715" type="line"/>
      <point x="635" y="694" type="line"/>
      <point x="273" y="0" type="line"/>
    </contour>
  </outline>
</glyph>
<glyph name="eight" format="2">
  <advance width="657"/>
  <unicode hex="0038"/>
  <outline>
    <contour>
      <point x="310" y="-12" type="curve" smooth="yes"/>
      <point x="162" y="-12"/>
      <point x="20" y="50"/>
      <point x="20" y="187" type="curve" smooth="yes"/>
      <point x="20" y="293"/>
      <point x="85" y="357"/>
      <point x="179" y="384" type="curve"/>
      <point x="128" y="410"/>
      <point x="97" y="457"/>
      <point x="97" y="513" type="curve" smooth="yes"/>
      <point x="97" y="653"/>
      <point x="229" y="725"/>
      <point x="377" y="725" type="curve" smooth="yes"/>
      <point x="498" y="725"/>
      <point x="639" y="673"/>
      <point x="639" y="535" type="curve" smooth="yes"/>
      <point x="639" y="454"/>
      <point x="589" y="398"/>
      <point x="513" y="370" type="curve"/>
      <point x="583" y="343"/>
      <point x="620" y="285"/>
      <point x="620" y="220" type="curve" smooth="yes"/>
      <point x="620" y="64"/>
      <point x="486" y="-12"/>
    </contour>
    <contour>
      <point x="225" y="216" type="curve" smooth="yes"/>
      <point x="225" y="164"/>
      <point x="263" y="132"/>
      <point x="318" y="132" type="curve" smooth="yes"/>
      <point x="376" y="132"/>
      <point x="420" y="168"/>
      <point x="420" y="233" type="curve" smooth="yes"/>
      <point x="420" y="284"/>
      <point x="383" y="314"/>
      <point x="331" y="314" type="curve" smooth="yes"/>
      <point x="273" y="314"/>
      <point x="225" y="281"/>
    </contour>
    <contour>
      <point x="281" y="503" type="curve" smooth="yes"/>
      <point x="281" y="461"/>
      <point x="312" y="430"/>
      <point x="361" y="430" type="curve" smooth="yes"/>
      <point x="406" y="430"/>
      <point x="451" y="457"/>
      <point x="451" y="513" type="curve" smooth="yes"/>
      <point x="451" y="557"/>
      <point x="419" y="587"/>
      <point x="371" y="587" type="curve" smooth="yes"/>
      <point x="325" y="587"/>
      <point x="281" y="558"/>
    </contour>
  </outline>
</glyph>
<glyph name="nine" format="2">
  <advance width="675"/>
  <unicode hex="0039"/>
  <outline>
    <contour>
      <point x="293" y="-11" type="curve" smooth="yes"/>
      <point x="155" y="-11"/>
      <point x="34" y="48"/>
      <point x="27" y="202" type="curve"/>
      <point x="217" y="202" type="line"/>
      <point x="222" y="158"/>
      <point x="254" y="141"/>
      <point x="301" y="141" type="curve" smooth="yes"/>
      <point x="380" y="141"/>
      <point x="422" y="207"/>
      <point x="444" y="324" type="curve"/>
      <point x="410" y="277"/>
      <point x="360" y="243"/>
      <point x="279" y="243" type="curve" smooth="yes"/>
      <point x="168" y="243"/>
      <point x="62" y="305"/>
      <point x="62" y="446" type="curve" smooth="yes"/>
      <point x="62" y="618"/>
      <point x="193" y="726"/>
      <point x="369" y="726" type="curve" smooth="yes"/>
      <point x="548" y="726"/>
      <point x="658" y="630"/>
      <point x="659" y="443" type="curve" smooth="yes"/>
      <point x="659" y="415"/>
      <point x="657" y="385"/>
      <point x="651" y="354" type="curve" smooth="yes"/>
      <point x="648" y="331" type="line"/>
      <point x="610" y="101"/>
      <point x="492" y="-11"/>
    </contour>
    <contour>
      <point x="259" y="464" type="curve" smooth="yes"/>
      <point x="259" y="411"/>
      <point x="288" y="375"/>
      <point x="342" y="375" type="curve" smooth="yes"/>
      <point x="403" y="375"/>
      <point x="453" y="417"/>
      <point x="453" y="490" type="curve" smooth="yes"/>
      <point x="453" y="539"/>
      <point x="426" y="582"/>
      <point x="365" y="582" type="curve" smooth="yes"/>
      <point x="304" y="582"/>
      <point x="259" y="534"/>
    </contour>
  </outline>
</glyph>
<glyph name="colon" format="2">
  <advance width="305"/>
  <unicode hex="003A"/>
  <outline>
    <contour>
      <point x="123" y="-11" type="curve" smooth="yes"/>
      <point x="64" y="-11"/>
      <point x="20" y="34"/>
      <point x="20" y="90" type="curve" smooth="yes"/>
      <point x="20" y="146"/>
      <point x="63" y="191"/>
      <point x="122" y="191" type="curve" smooth="yes"/>
      <point x="182" y="191"/>
      <point x="227" y="146"/>
      <point x="227" y="90" type="curve" smooth="yes"/>
      <point x="227" y="34"/>
      <point x="183" y="-11"/>
    </contour>
    <contour>
      <point x="169" y="275" type="curve" smooth="yes"/>
      <point x="110" y="275"/>
      <point x="66" y="319"/>
      <point x="66" y="376" type="curve" smooth="yes"/>
      <point x="66" y="432"/>
      <point x="109" y="477"/>
      <point x="168" y="477" type="curve" smooth="yes"/>
      <point x="228" y="477"/>
      <point x="274" y="432"/>
      <point x="274" y="376" type="curve" smooth="yes"/>
      <point x="274" y="319"/>
      <point x="229" y="275"/>
    </contour>
  </outline>
</glyph>
<glyph name="semicolon" format="2">
  <advance width="321"/>
  <unicode hex="003B"/>
  <outline>
    <contour>
      <point x="72" y="-124" type="line"/>
      <point x="-27" y="-80" type="line"/>
      <point x="79" y="182" type="line"/>
      <point x="237" y="123" type="line"/>
    </contour>
    <contour>
      <point x="191" y="275" type="curve" smooth="yes"/>
      <point x="132" y="275"/>
      <point x="89" y="319"/>
      <point x="89" y="376" type="curve" smooth="yes"/>
      <point x="89" y="432"/>
      <point x="131" y="477"/>
      <point x="190" y="477" type="curve" smooth="yes"/>
      <point x="250" y="477"/>
      <point x="296" y="432"/>
      <point x="296" y="376" type="curve" smooth="yes"/>
      <point x="296" y="319"/>
      <point x="251" y="275"/>
    </contour>
  </outline>
</glyph>
<glyph name="less" format="2">
  <advance width="513"/>
  <unicode hex="003C"/>
  <outline>
    <contour>
      <point x="430" y="59" type="line"/>
      <point x="48" y="310" type="line"/>
      <point x="54" y="345" type="line"/>
      <point x="513" y="585" type="line"/>
      <point x="487" y="419" type="line"/>
      <point x="281" y="321" type="line"/>
      <point x="455" y="214" type="line"/>
    </contour>
  </outline>
</glyph>
<glyph name="equal" format="2">
  <advance width="557"/>
  <unicode hex="003D"/>
  <outline>
    <contour>
      <point x="23" y="167" type="line"/>
      <point x="42" y="289" type="line"/>
      <point x="521" y="289" type="line"/>
      <point x="502" y="167" type="line"/>
    </contour>
    <contour>
      <point x="54" y="363" type="line"/>
      <point x="73" y="486" type="line"/>
      <point x="552" y="486" type="line"/>
      <point x="533" y="363" type="line"/>
    </contour>
  </outline>
</glyph>
<glyph name="greater" format="2">
  <advance width="513"/>
  <unicode hex="003E"/>
  <outline>
    <contour>
      <point x="99" y="586" type="line"/>
      <point x="481" y="335" type="line"/>
      <point x="476" y="300" type="line"/>
      <point x="16" y="60" type="line"/>
      <point x="42" y="227" type="line"/>
      <point x="248" y="325" type="line"/>
      <point x="75" y="432" type="line"/>
    </contour>
  </outline>
</glyph>
<glyph name="question" format="2">
  <advance width="556"/>
  <unicode hex="003F"/>
  <outline>
    <contour>
      <point x="163" y="235" type="line"/>
      <point x="167" y="259" type="line" smooth="yes"/>
      <point x="180" y="338"/>
      <point x="238" y="386"/>
      <point x="288" y="424" type="curve" smooth="yes"/>
      <point x="335" y="460"/>
      <point x="374" y="482"/>
      <point x="374" y="529" type="curve" smooth="yes"/>
      <point x="373" y="561"/>
      <point x="353" y="580"/>
      <point x="316" y="580" type="curve" smooth="yes"/>
      <point x="274" y="580"/>
      <point x="243" y="552"/>
      <point x="232" y="492" type="curve"/>
      <point x="57" y="492" type="line"/>
      <point x="77" y="649"/>
      <point x="189" y="726"/>
      <point x="333" y="725" type="curve" smooth="yes"/>
      <point x="486" y="725"/>
      <point x="566" y="649"/>
      <point x="566" y="543" type="curve" smooth="yes"/>
      <point x="566" y="456"/>
      <point x="517" y="408"/>
      <point x="461" y="366" type="curve" smooth="yes"/>
      <point x="410" y="328"/>
      <point x="344" y="297"/>
      <point x="331" y="235" type="curve"/>
    </contour>
    <contour>
      <point x="225" y="-11" type="curve" smooth="yes"/>
      <point x="166" y="-11"/>
      <point x="123" y="32"/>
      <point x="123" y="87" type="curve" smooth="yes"/>
      <point x="123" y="143"/>
      <point x="168" y="188"/>
      <point x="227" y="188" type="curve" smooth="yes"/>
      <point x="285" y="188"/>
      <point x="331" y="144"/>
      <point x="331" y="89" type="curve" smooth="yes"/>
      <point x="331" y="34"/>
      <point x="284" y="-11"/>
    </contour>
  </outline>
</glyph>
<glyph name="at" format="2">
  <advance width="918"/>
  <unicode hex="0040"/>
  <outline>
    <contour>
      <point x="701" y="463" type="line"/>
      <point x="657" y="190" type="line" smooth="yes"/>
      <point x="651" y="148"/>
      <point x="662" y="124"/>
      <point x="698" y="124" type="curve" smooth="yes"/>
      <point x="753" y="124"/>
      <point x="814" y="182"/>
      <point x="814" y="329" type="curve" smooth="yes"/>
      <point x="814" y="503"/>
      <point x="684" y="621"/>
      <point x="482" y="621" type="curve" smooth="yes"/>
      <point x="277" y="621"/>
      <point x="115" y="477"/>
      <point x="115" y="250" type="curve" smooth="yes"/>
      <point x="115" y="60"/>
      <point x="233" y="-89"/>
      <point x="465" y="-89" type="curve" smooth="yes"/>
      <point x="582" y="-89"/>
      <point x="672" y="-48"/>
      <point x="722" y="0" type="curve"/>
      <point x="813" y="0" type="line"/>
      <point x="748" y="-96"/>
      <point x="615" y="-158"/>
      <point x="462" y="-158" type="curve" smooth="yes"/>
      <point x="192" y="-158"/>
      <point x="30" y="25"/>
      <point x="30" y="251" type="curve" smooth="yes"/>
      <point x="30" y="516"/>
      <point x="245" y="691"/>
      <point x="483" y="691" type="curve" smooth="yes"/>
      <point x="718" y="691"/>
      <point x="893" y="546"/>
      <point x="893" y="327" type="curve" smooth="yes"/>
      <point x="893" y="128"/>
      <point x="780" y="52"/>
      <point x="670" y="52" type="curve" smooth="yes"/>
      <point x="588" y="52"/>
      <point x="541" y="82"/>
      <point x="528" y="134" type="curve"/>
      <point x="501" y="83"/>
      <point x="455" y="50"/>
      <point x="386" y="50" type="curve" smooth="yes"/>
      <point x="294" y="50"/>
      <point x="233" y="116"/>
      <point x="232" y="225" type="curve" smooth="yes"/>
      <point x="232" y="371"/>
      <point x="322" y="471"/>
      <point x="438" y="471" type="curve" smooth="yes"/>
      <point x="500" y="471"/>
      <point x="531" y="444"/>
      <point x="545" y="411" type="curve"/>
      <point x="554" y="463" type="line"/>
    </contour>
    <contour>
      <point x="441" y="168" type="curve" smooth="yes"/>
      <point x="487" y="168"/>
      <point x="524" y="220"/>
      <point x="524" y="289" type="curve" smooth="yes"/>
      <point x="524" y="331"/>
      <point x="503" y="355"/>
      <point x="464" y="355" type="curve" smooth="yes"/>
      <point x="419" y="355"/>
      <point x="382" y="309"/>
      <point x="383" y="234" type="curve" smooth="yes"/>
      <point x="383" y="192"/>
      <point x="404" y="168"/>
    </contour>
  </outline>
</glyph>
<glyph name="B" format="2">
  <advance width="679"/>
  <unicode hex="0042"/>
  <outline>
    <contour>
      <point x="27" y="0" type="line"/>
      <point x="140" y="715" type="line"/>
      <point x="429" y="715" type="line" smooth="yes"/>
      <point x="593" y="715"/>
      <point x="658" y="642"/>
      <point x="658" y="540" type="curve" smooth="yes"/>
      <point x="658" y="447"/>
      <point x="601" y="389"/>
      <point x="519" y="369" type="curve"/>
      <point x="591" y="353"/>
      <point x="642" y="306"/>
      <point x="642" y="219" type="curve" smooth="yes"/>
      <point x="642" y="88"/>
      <point x="535" y="0"/>
      <point x="368" y="0" type="curve" smooth="yes"/>
    </contour>
    <contour>
      <point x="248" y="137" type="line"/>
      <point x="338" y="137" type="line" smooth="yes"/>
      <point x="406" y="137"/>
      <point x="444" y="176"/>
      <point x="444" y="231" type="curve" smooth="yes"/>
      <point x="444" y="281"/>
      <point x="415" y="306"/>
      <point x="348" y="306" type="curve" smooth="yes"/>
      <point x="275" y="306" type="line"/>
    </contour>
    <contour>
      <point x="294" y="431" type="line"/>
      <point x="374" y="431" type="line" smooth="yes"/>
      <point x="440" y="431"/>
      <point x="471" y="460"/>
      <point x="471" y="514" type="curve" smooth="yes"/>
      <point x="471" y="560"/>
      <point x="445" y="579"/>
      <point x="390" y="579" type="curve" smooth="yes"/>
      <point x="318" y="579" type="line"/>
    </contour>
  </outline>
</glyph>
<glyph name="F" format="2">
  <advance width="582"/>
  <unicode hex="0046"/>
  <outline>
    <contour>
      <point x="27" y="0" type="line"/>
      <point x="140" y="715" type="line"/>
      <point x="623" y="715" type="line"/>
      <point x="597" y="556" type="line"/>
      <point x="320" y="556" type="line"/>
      <point x="296" y="404" type="line"/>
      <point x="518" y="404" type="line"/>
      <point x="494" y="253" type="line"/>
      <point x="272" y="253" type="line"/>
      <point x="233" y="0" type="line"/>
    </contour>
  </outline>
</glyph>
<glyph name="H" format="2">
  <advance width="784"/>
  <unicode hex="0048"/>
  <outline>
    <contour>
      <point x="27" y="0" type="line"/>
      <point x="140" y="715" type="line"/>
      <point x="346" y="715" type="line"/>
      <point x="302" y="442" type="line"/>
      <point x="538" y="442" type="line"/>
      <point x="581" y="715" type="line"/>
      <point x="786" y="715" type="line"/>
      <point x="673" y="0" type="line"/>
      <point x="468" y="0" type="line"/>
      <point x="512" y="282" type="line"/>
      <point x="277" y="282" type="line"/>
      <point x="233" y="0" type="line"/>
    </contour>
  </outline>
</glyph>
<glyph name="J" format="2">
  <advance width="478"/>
  <unicode hex="004A"/>
  <outline>
    <contour>
      <point x="145" y="-9" type="curve" smooth="yes"/>
      <point x="64" y="-9"/>
      <point x="20" y="8"/>
      <point x="-7" y="21" type="curve"/>
      <point x="18" y="173" type="line"/>
      <point x="41" y="163"/>
      <point x="70" y="154"/>
      <point x="110" y="154" type="curve" smooth="yes"/>
      <point x="162" y="154"/>
      <point x="199" y="177"/>
      <point x="209" y="242" type="curve" smooth="yes"/>
      <point x="284" y="715" type="line"/>
      <point x="490" y="715" type="line"/>
      <point x="414" y="233" type="line" smooth="yes"/>
      <point x="387" y="66"/>
      <point x="293" y="-9"/>
    </contour>
  </outline>
</glyph>
<glyph name="L" format="2">
  <advance width="575"/>
  <unicode hex="004C"/>
  <outline>
    <contour>
      <point x="27" y="0" type="line"/>
      <point x="140" y="715" type="line"/>
      <point x="346" y="715" type="line"/>
      <point x="258" y="159" type="line"/>
      <point x="528" y="159" type="line"/>
      <point x="503" y="0" type="line"/>
    </contour>
  </outline>
</glyph>
<glyph name="M" format="2">
  <advance width="941"/>
  <unicode hex="004D"/>
  <outline>
    <contour>
      <point x="27" y="0" type="line"/>
      <point x="140" y="715" type="line"/>
      <point x="399" y="715" type="line"/>
      <point x="476" y="336" type="line"/>
      <point x="673" y="715" type="line"/>
      <point x="943" y="715" type="line"/>
      <point x="830" y="0" type="line"/>
      <point x="626" y="0" type="line"/>
      <point x="697" y="448" type="line"/>
      <point x="451" y="0" type="line"/>
      <point x="383" y="0" type="line"/>
      <point x="281" y="448" type="line"/>
      <point x="210" y="0" type="line"/>
    </contour>
  </outline>
</glyph>
<glyph name="N" format="2">
  <advance width="777"/>
  <unicode hex="004E"/>
  <outline>
    <contour>
      <point x="27" y="0" type="line"/>
      <point x="140" y="715" type="line"/>
      <point x="374" y="715" type="line"/>
      <point x="533" y="313" type="line"/>
      <point x="597" y="715" type="line"/>
      <point x="779" y="715" type="line"/>
      <point x="666" y="0" type="line"/>
      <point x="466" y="0" type="line"/>
      <point x="280" y="449" type="line"/>
      <point x="210" y="0" type="line"/>
    </contour>
  </outline>
</glyph>
<glyph name="P" format="2">
  <advance width="652"/>
  <unicode hex="0050"/>
  <outline>
    <contour>
      <point x="27" y="0" type="line"/>
      <point x="140" y="715" type="line"/>
      <point x="397" y="715" type="line" smooth="yes"/>
      <point x="568" y="715"/>
      <point x="661" y="637"/>
      <point x="662" y="511" type="curve" smooth="yes"/>
      <point x="662" y="333"/>
      <point x="542" y="242"/>
      <point x="362" y="242" type="curve" smooth="yes"/>
      <point x="271" y="242" type="line"/>
      <point x="233" y="0" type="line"/>
    </contour>
    <contour>
      <point x="292" y="381" type="line"/>
      <point x="354" y="381" type="line" smooth="yes"/>
      <point x="427" y="381"/>
      <point x="467" y="418"/>
      <point x="467" y="488" type="curve" smooth="yes"/>
      <point x="467" y="537"/>
      <point x="436" y="563"/>
      <point x="375" y="563" type="curve" smooth="yes"/>
      <point x="320" y="563" type="line"/>
    </contour>
  </outline>
</glyph>
<glyph name="Q" format="2">
  <advance width="819"/>
  <unicode hex="0051"/>
  <outline>
    <contour>
      <point x="390" y="-12" type="curve" smooth="yes"/>
      <point x="200" y="-12"/>
      <point x="44" y="101"/>
      <point x="44" y="301" type="curve" smooth="yes"/>
      <point x="44" y="549"/>
      <point x="213" y="725"/>
      <point x="453" y="725" type="curve" smooth="yes"/>
      <point x="651" y="725"/>
      <point x="804" y="613"/>
      <point x="804" y="409" type="curve" smooth="yes"/>
      <point x="804" y="258"/>
      <point x="742" y="135"/>
      <point x="638" y="62" type="curve"/>
      <point x="704" y="-6" type="line"/>
      <point x="581" y="-120" type="line"/>
      <point x="475" y="-4" type="line"/>
      <point x="448" y="-9"/>
      <point x="419" y="-12"/>
    </contour>
    <contour>
      <point x="332" y="160" type="curve"/>
      <point x="451" y="258" type="line"/>
      <point x="517" y="189" type="line"/>
      <point x="566" y="236"/>
      <point x="591" y="315"/>
      <point x="591" y="402" type="curve" smooth="yes"/>
      <point x="591" y="490"/>
      <point x="547" y="564"/>
      <point x="447" y="565" type="curve" smooth="yes"/>
      <point x="322" y="566"/>
      <point x="257" y="442"/>
      <point x="257" y="309" type="curve" smooth="yes"/>
      <point x="257" y="242"/>
      <point x="282" y="187"/>
    </contour>
  </outline>
</glyph>
<glyph name="R" format="2">
  <advance width="697"/>
  <unicode hex="0052"/>
  <outline>
    <contour>
      <point x="27" y="0" type="line"/>
      <point x="140" y="715" type="line"/>
      <point x="412" y="715" type="line" smooth="yes"/>
      <point x="586" y="715"/>
      <point x="675" y="638"/>
      <point x="674" y="512" type="curve" smooth="yes"/>
      <point x="674" y="392"/>
      <point x="605" y="320"/>
      <point x="509" y="295" type="curve"/>
      <point x="644" y="0" type="line"/>
      <point x="436" y="0" type="line"/>
      <point x="319" y="256" type="line"/>
      <point x="271" y="256" type="line"/>
      <point x="231" y="0" type="line"/>
    </contour>
    <contour>
      <point x="293" y="389" type="line"/>
      <point x="365" y="389" type="line" smooth="yes"/>
      <point x="434" y="389"/>
      <point x="474" y="419"/>
      <point x="474" y="487" type="curve" smooth="yes"/>
      <point x="475" y="537"/>
      <point x="444" y="561"/>
      <point x="385" y="561" type="curve" smooth="yes"/>
      <point x="320" y="561" type="line"/>
    </contour>
  </outline>
</glyph>
<glyph name="V" format="2">
  <advance width="719"/>
  <unicode hex="0056"/>
  <outline>
    <contour>
      <point x="203" y="0" type="line"/>
      <point x="79" y="715" type="line"/>
      <point x="292" y="715" type="line"/>
      <point x="357" y="213" type="line"/>
      <point x="583" y="715" type="line"/>
      <point x="782" y="715" type="line"/>
      <point x="436" y="0" type="line"/>
    </contour>
  </outline>
</glyph>
<glyph name="X" format="2">
  <advance width="723"/>
  <unicode hex="0058"/>
  <outline>
    <contour>
      <point x="-28" y="0" type="line"/>
      <point x="251" y="376" type="line"/>
      <point x="102" y="715" type="line"/>
      <point x="322" y="715" type="line"/>
      <point x="403" y="500" type="line"/>
      <point x="545" y="715" type="line"/>
      <point x="758" y="715" type="line"/>
      <point x="513" y="367" type="line"/>
      <point x="673" y="0" type="line"/>
      <point x="453" y="0" type="line"/>
      <point x="356" y="247" type="line"/>
      <point x="187" y="0" type="line"/>
    </contour>
  </outline>
</glyph>
<glyph name="Y" format="2">
  <advance width="678"/>
  <unicode hex="0059"/>
  <outline>
    <contour>
      <point x="197" y="0" type="line"/>
      <point x="245" y="307" type="line"/>
      <point x="77" y="715" type="line"/>
      <point x="291" y="715" type="line"/>
      <point x="377" y="477" type="line"/>
      <point x="534" y="715" type="line"/>
      <point x="739" y="715" type="line"/>
      <point x="450" y="296" type="line"/>
      <point x="404" y="0" type="line"/>
    </contour>
  </outline>
</glyph>
<glyph name="Z" format="2">
  <advance width="625"/>
  <unicode hex="005A"/>
  <outline>
    <contour>
      <point x="-29" y="0" type="line"/>
      <point x="-26" y="23" type="line"/>
      <point x="360" y="558" type="line"/>
      <point x="96" y="558" type="line"/>
      <point x="121" y="715" type="line"/>
      <point x="681" y="715" type="line"/>
      <point x="677" y="693" type="line"/>
      <point x="293" y="158" type="line"/>
      <point x="573" y="158" type="line"/>
      <point x="548" y="0" type="line"/>
    </contour>
  </outline>
</glyph>
<glyph name="bracketleft" format="2">
  <advance width="409"/>
  <unicode hex="005B"/>
  <outline>
    <contour>
      <point x="0" y="-148" type="line"/>
      <point x="146" y="776" type="line"/>
      <point x="451" y="776" type="line"/>
      <point x="431" y="645" type="line"/>
      <point x="306" y="645" type="line"/>
      <point x="201" y="-17" type="line"/>
      <point x="326" y="-17" type="line"/>
      <point x="305" y="-148" type="line"/>
    </contour>
  </outline>
</glyph>
<glyph name="backslash" format="2">
  <advance width="434"/>
  <unicode hex="005C"/>
  <outline>
    <contour>
      <point x="262" y="-148" type="line"/>
      <point x="72" y="776" type="line"/>
      <point x="209" y="776" type="line"/>
      <point x="399" y="-148" type="line"/>
    </contour>
  </outline>
</glyph>
<glyph name="bracketright" format="2">
  <advance width="517"/>
  <unicode hex="005D"/>
  <outline>
    <contour>
      <point x="-27" y="-148" type="line"/>
      <point x="-6" y="-17" type="line"/>
      <point x="117" y="-17" type="line"/>
      <point x="222" y="645" type="line"/>
      <point x="98" y="645" type="line"/>
      <point x="119" y="776" type="line"/>
      <point x="423" y="776" type="line"/>
      <point x="277" y="-148" type="line"/>
    </contour>
  </outline>
</glyph>
<glyph name="asciicircum" format="2">
  <advance width="531"/>
  <unicode hex="005E"/>
  <outline>
    <contour>
      <point x="43" y="393" type="line"/>
      <point x="255" y="715" type="line"/>
      <point x="412" y="715" type="line"/>
      <point x="528" y="393" type="line"/>
      <point x="379" y="393" type="line"/>
      <point x="314" y="569" type="line"/>
      <point x="197" y="393" type="line"/>
    </contour>
  </outline>
</glyph>
<glyph name="grave" format="2">
  <advance width="400"/>
  <unicode hex="0060"/>
  <outline>
    <contour>
      <point x="196" y="583" type="line"/>
      <point x="103" y="749" type="line"/>
      <point x="281" y="749" type="line"/>
      <point x="321" y="583" type="line"/>
    </contour>
  </outline>
</glyph>
<glyph name="b" format="2">
  <advance width="643"/>
  <unicode hex="0062"/>
  <outline>
    <contour>
      <point x="367" y="-12" type="curve" smooth="yes"/>
      <point x="283" y="-12"/>
      <point x="226" y="29"/>
      <point x="203" y="84" type="curve"/>
      <point x="190" y="0" type="line"/>
      <point x="10" y="0" type="line"/>
      <point x="130" y="753" type="line"/>
      <point x="309" y="753" type="line"/>
      <point x="261" y="451" type="line"/>
      <point x="297" y="505"/>
      <point x="352" y="537"/>
      <point x="433" y="537" type="curve" smooth="yes"/>
      <point x="539" y="537"/>
      <point x="620" y="459"/>
      <point x="620" y="311" type="curve" smooth="yes"/>
      <point x="620" y="110"/>
      <point x="513" y="-12"/>
    </contour>
    <contour>
      <point x="317" y="123" type="curve" smooth="yes"/>
      <point x="388" y="123"/>
      <point x="435" y="194"/>
      <point x="435" y="298" type="curve" smooth="yes"/>
      <point x="435" y="366"/>
      <point x="405" y="404"/>
      <point x="349" y="404" type="curve" smooth="yes"/>
      <point x="277" y="404"/>
      <point x="224" y="331"/>
      <point x="224" y="229" type="curve" smooth="yes"/>
      <point x="224" y="161"/>
      <point x="257" y="123"/>
    </contour>
  </outline>
</glyph>
<glyph name="d" format="2">
  <advance width="641"/>
  <unicode hex="0064"/>
  <outline>
    <contour>
      <point x="216" y="-12" type="curve" smooth="yes"/>
      <point x="104" y="-12"/>
      <point x="22" y="67"/>
      <point x="22" y="216" type="curve" smooth="yes"/>
      <point x="22" y="416"/>
      <point x="132" y="537"/>
      <point x="283" y="537" type="curve" smooth="yes"/>
      <point x="364" y="537"/>
      <point x="414" y="505"/>
      <point x="439" y="451" type="curve"/>
      <point x="487" y="753" type="line"/>
      <point x="667" y="753" type="line"/>
      <point x="574" y="163" type="line" smooth="yes"/>
      <point x="563" y="94"/>
      <point x="559" y="44"/>
      <point x="563" y="0" type="curve"/>
      <point x="386" y="0" type="line"/>
      <point x="382" y="23"/>
      <point x="383" y="50"/>
      <point x="384" y="79" type="curve"/>
      <point x="345" y="18"/>
      <point x="294" y="-12"/>
    </contour>
    <contour>
      <point x="293" y="122" type="curve" smooth="yes"/>
      <point x="365" y="122"/>
      <point x="417" y="192"/>
      <point x="417" y="299" type="curve" smooth="yes"/>
      <point x="417" y="366"/>
      <point x="383" y="404"/>
      <point x="327" y="404" type="curve" smooth="yes"/>
      <point x="254" y="404"/>
      <point x="206" y="333"/>
      <point x="206" y="229" type="curve" smooth="yes"/>
      <point x="206" y="162"/>
      <point x="236" y="122"/>
    </contour>
  </outline>
</glyph>
<glyph name="f" format="2">
  <advance width="382"/>
  <unicode hex="0066"/>
  <outline>
    <contour>
      <point x="33" y="401" type="line"/>
      <point x="52" y="523" type="line"/>
      <point x="118" y="523" type="line"/>
      <point x="129" y="589" type="line" smooth="yes"/>
      <point x="149" y="713"/>
      <point x="238" y="764"/>
      <point x="348" y="764" type="curve" smooth="yes"/>
      <point x="395" y="764"/>
      <point x="418" y="758"/>
      <point x="441" y="750" type="curve"/>
      <point x="420" y="619" type="line"/>
      <point x="407" y="624"/>
      <point x="394" y="627"/>
      <point x="373" y="627" type="curve" smooth="yes"/>
      <point x="331" y="627"/>
      <point x="311" y="606"/>
      <point x="305" y="572" type="curve" smooth="yes"/>
      <point x="297" y="523" type="line"/>
      <point x="403" y="523" type="line"/>
      <point x="384" y="401" type="line"/>
      <point x="278" y="401" type="line"/>
      <point x="214" y="0" type="line"/>
      <point x="36" y="0" type="line"/>
      <point x="99" y="401" type="line"/>
    </contour>
  </outline>
</glyph>
<glyph name="i" format="2">
  <advance width="295"/>
  <unicode hex="0069"/>
  <outline>
    <contour>
      <point x="208" y="574" type="curve" smooth="yes"/>
      <point x="152" y="574"/>
      <point x="112" y="612"/>
      <point x="112" y="665" type="curve" smooth="yes"/>
      <point x="112" y="717"/>
      <point x="153" y="757"/>
      <point x="209" y="757" type="curve" smooth="yes"/>
      <point x="264" y="757"/>
      <point x="305" y="718"/>
      <point x="305" y="666" type="curve" smooth="yes"/>
      <point x="305" y="613"/>
      <point x="263" y="574"/>
    </contour>
    <contour>
      <point x="16" y="0" type="line"/>
      <point x="99" y="523" type="line"/>
      <point x="277" y="523" type="line"/>
      <point x="195" y="0" type="line"/>
    </contour>
  </outline>
</glyph>
<glyph name="j" format="2">
  <advance width="295"/>
  <unicode hex="006A"/>
  <outline>
    <contour>
      <point x="-76" y="-183" type="curve"/>
      <point x="-57" y="-54" type="line"/>
      <point x="-12" y="-52"/>
      <point x="10" y="-35"/>
      <point x="16" y="5" type="curve" smooth="yes"/>
      <point x="98" y="523" type="line"/>
      <point x="277" y="523" type="line"/>
      <point x="192" y="-12" type="line" smooth="yes"/>
      <point x="177" y="-113"/>
      <point x="116" y="-192"/>
    </contour>
    <contour>
      <point x="207" y="574" type="curve" smooth="yes"/>
      <point x="151" y="574"/>
      <point x="111" y="612"/>
      <point x="111" y="665" type="curve" smooth="yes"/>
      <point x="111" y="717"/>
      <point x="152" y="757"/>
      <point x="208" y="757" type="curve" smooth="yes"/>
      <point x="263" y="757"/>
      <point x="304" y="718"/>
      <point x="304" y="666" type="curve" smooth="yes"/>
      <point x="304" y="613"/>
      <point x="262" y="574"/>
    </contour>
  </outline>
</glyph>
<glyph name="m" format="2">
  <advance width="927"/>
  <unicode hex="006D"/>
  <outline>
    <contour>
      <point x="11" y="0" type="line"/>
      <point x="66" y="352" type="line" smooth="yes"/>
      <point x="78" y="427"/>
      <point x="83" y="476"/>
      <point x="85" y="523" type="curve"/>
      <point x="260" y="523" type="line"/>
      <point x="260" y="497"/>
      <point x="259" y="469"/>
      <point x="255" y="437" type="curve"/>
      <point x="290" y="491"/>
      <point x="352" y="537"/>
      <point x="430" y="537" type="curve" smooth="yes"/>
      <point x="499" y="537"/>
      <point x="546" y="504"/>
      <point x="564" y="440" type="curve"/>
      <point x="616" y="510"/>
      <point x="675" y="537"/>
      <point x="742" y="537" type="curve" smooth="yes"/>
      <point x="842" y="537"/>
      <point x="910" y="472"/>
      <point x="887" y="328" type="curve" smooth="yes"/>
      <point x="836" y="0" type="line"/>
      <point x="657" y="0" type="line"/>
      <point x="705" y="305" type="line" smooth="yes"/>
      <point x="714" y="364"/>
      <point x="695" y="392"/>
      <point x="651" y="392" type="curve" smooth="yes"/>
      <point x="605" y="392"/>
      <point x="569" y="360"/>
      <point x="559" y="299" type="curve" smooth="yes"/>
      <point x="512" y="0" type="line"/>
      <point x="335" y="0" type="line"/>
      <point x="383" y="306" type="line" smooth="yes"/>
      <point x="392" y="364"/>
      <point x="372" y="392"/>
      <point x="329" y="392" type="curve" smooth="yes"/>
      <point x="280" y="392"/>
      <point x="247" y="358"/>
      <point x="237" y="299" type="curve" smooth="yes"/>
      <point x="190" y="0" type="line"/>
    </contour>
  </outline>
</glyph>
<glyph name="n" format="2">
  <advance width="622"/>
  <unicode hex="006E"/>
  <outline>
    <contour>
      <point x="11" y="0" type="line"/>
      <point x="66" y="352" type="line" smooth="yes"/>
      <point x="78" y="427"/>
      <point x="83" y="476"/>
      <point x="85" y="523" type="curve"/>
      <point x="260" y="523" type="line"/>
      <point x="260" y="497"/>
      <point x="259" y="465"/>
      <point x="255" y="434" type="curve"/>
      <point x="292" y="493"/>
      <point x="348" y="537"/>
      <point x="433" y="537" type="curve" smooth="yes"/>
      <point x="532" y="537"/>
      <point x="606" y="473"/>
      <point x="581" y="315" type="curve" smooth="yes"/>
      <point x="531" y="0" type="line"/>
      <point x="352" y="0" type="line"/>
      <point x="399" y="302" type="line" smooth="yes"/>
      <point x="409" y="363"/>
      <point x="389" y="392"/>
      <point x="340" y="392" type="curve" smooth="yes"/>
      <point x="284" y="392"/>
      <point x="246" y="357"/>
      <point x="236" y="289" type="curve" smooth="yes"/>
      <point x="190" y="0" type="line"/>
    </contour>
  </outline>
</glyph>
<glyph name="p" format="2">
  <advance width="643"/>
  <unicode hex="0070"/>
  <outline>
    <contour>
      <point x="432" y="537" type="curve" smooth="yes"/>
      <point x="539" y="537"/>
      <point x="620" y="459"/>
      <point x="620" y="311" type="curve" smooth="yes"/>
      <point x="620" y="110"/>
      <point x="514" y="-12"/>
      <point x="367" y="-12" type="curve" smooth="yes"/>
      <point x="283" y="-12"/>
      <point x="226" y="29"/>
      <point x="203" y="84" type="curve"/>
      <point x="162" y="-175" type="line"/>
      <point x="-17" y="-175" type="line"/>
      <point x="66" y="352" type="line" smooth="yes"/>
      <point x="78" y="427"/>
      <point x="83" y="476"/>
      <point x="85" y="523" type="curve"/>
      <point x="260" y="523" type="line"/>
      <point x="260" y="499"/>
      <point x="259" y="472"/>
      <point x="256" y="442" type="curve"/>
      <point x="296" y="504"/>
      <point x="351" y="537"/>
    </contour>
    <contour>
      <point x="317" y="123" type="curve" smooth="yes"/>
      <point x="388" y="123"/>
      <point x="435" y="194"/>
      <point x="435" y="298" type="curve" smooth="yes"/>
      <point x="435" y="366"/>
      <point x="405" y="404"/>
      <point x="349" y="404" type="curve" smooth="yes"/>
      <point x="277" y="404"/>
      <point x="224" y="331"/>
      <point x="224" y="229" type="curve" smooth="yes"/>
      <point x="224" y="161"/>
      <point x="257" y="123"/>
    </contour>
  </outline>
</glyph>
<glyph name="q" format="2">
  <advance width="643"/>
  <unicode hex="0071"/>
  <outline>
    <contour>
      <point x="340" y="-175" type="line"/>
      <point x="380" y="72" type="line"/>
      <point x="346" y="20"/>
      <point x="294" y="-12"/>
      <point x="216" y="-12" type="curve" smooth="yes"/>
      <point x="104" y="-12"/>
      <point x="22" y="67"/>
      <point x="22" y="216" type="curve" smooth="yes"/>
      <point x="22" y="416"/>
      <point x="132" y="537"/>
      <point x="283" y="537" type="curve" smooth="yes"/>
      <point x="364" y="537"/>
      <point x="414" y="505"/>
      <point x="439" y="451" type="curve"/>
      <point x="451" y="523" type="line"/>
      <point x="630" y="523" type="line"/>
      <point x="520" y="-175" type="line"/>
    </contour>
    <contour>
      <point x="293" y="122" type="curve" smooth="yes"/>
      <point x="365" y="122"/>
      <point x="417" y="192"/>
      <point x="417" y="299" type="curve" smooth="yes"/>
      <point x="417" y="366"/>
      <point x="383" y="404"/>
      <point x="327" y="404" type="curve" smooth="yes"/>
      <point x="254" y="404"/>
      <point x="206" y="333"/>
      <point x="206" y="229" type="curve" smooth="yes"/>
      <point x="206" y="162"/>
      <point x="236" y="122"/>
    </contour>
  </outline>
</glyph>
<glyph name="r" format="2">
  <advance width="429"/>
  <unicode hex="0072"/>
  <outline>
    <contour>
      <point x="11" y="0" type="line"/>
      <point x="66" y="352" type="line" smooth="yes"/>
      <point x="78" y="427"/>
      <point x="83" y="476"/>
      <point x="84" y="523" type="curve"/>
      <point x="259" y="523" type="line"/>
      <point x="259" y="497"/>
      <point x="257" y="454"/>
      <point x="252" y="412" type="curve"/>
      <point x="294" y="494"/>
      <point x="351" y="531"/>
      <point x="442" y="530" type="curve"/>
      <point x="416" y="363" type="line"/>
      <point x="306" y="367"/>
      <point x="243" y="334"/>
      <point x="227" y="231" type="curve" smooth="yes"/>
      <point x="190" y="0" type="line"/>
    </contour>
  </outline>
</glyph>
<glyph name="s" format="2">
  <advance width="513"/>
  <unicode hex="0073"/>
  <outline>
    <contour>
      <point x="231" y="-13" type="curve" smooth="yes"/>
      <point x="88" y="-13"/>
      <point x="-3" y="46"/>
      <point x="-4" y="166" type="curve"/>
      <point x="162" y="166" type="line"/>
      <point x="165" y="131"/>
      <point x="183" y="107"/>
      <point x="236" y="107" type="curve" smooth="yes"/>
      <point x="276" y="107"/>
      <point x="297" y="121"/>
      <point x="297" y="149" type="curve" smooth="yes"/>
      <point x="297" y="175"/>
      <point x="280" y="185"/>
      <point x="208" y="199" type="curve" smooth="yes"/>
      <point x="90" y="222"/>
      <point x="37" y="267"/>
      <point x="37" y="356" type="curve" smooth="yes"/>
      <point x="37" y="477"/>
      <point x="138" y="538"/>
      <point x="271" y="537" type="curve" smooth="yes"/>
      <point x="399" y="537"/>
      <point x="487" y="489"/>
      <point x="494" y="368" type="curve"/>
      <point x="331" y="368" type="line"/>
      <point x="328" y="397"/>
      <point x="307" y="420"/>
      <point x="266" y="420" type="curve" smooth="yes"/>
      <point x="226" y="420"/>
      <point x="206" y="406"/>
      <point x="206" y="381" type="curve" smooth="yes"/>
      <point x="206" y="355"/>
      <point x="231" y="346"/>
      <point x="288" y="333" type="curve" smooth="yes"/>
      <point x="420" y="307"/>
      <point x="474" y="268"/>
      <point x="474" y="168" type="curve" smooth="yes"/>
      <point x="474" y="46"/>
      <point x="372" y="-13"/>
    </contour>
  </outline>
</glyph>
<glyph name="w" format="2">
  <advance width="830"/>
  <unicode hex="0077"/>
  <outline>
    <contour>
      <point x="119" y="0" type="line"/>
      <point x="48" y="523" type="line"/>
      <point x="230" y="523" type="line"/>
      <point x="257" y="209" type="line"/>
      <point x="388" y="523" type="line"/>
      <point x="533" y="523" type="line"/>
      <point x="562" y="209" type="line"/>
      <point x="690" y="523" type="line"/>
      <point x="864" y="523" type="line"/>
      <point x="620" y="0" type="line"/>
      <point x="448" y="0" type="line"/>
      <point x="419" y="293" type="line"/>
      <point x="294" y="0" type="line"/>
    </contour>
  </outline>
</glyph>
<glyph name="x" format="2">
  <advance width="585"/>
  <unicode hex="0078"/>
  <outline>
    <contour>
      <point x="-36" y="0" type="line"/>
      <point x="179" y="270" type="line"/>
      <point x="57" y="523" type="line"/>
      <point x="254" y="523" type="line"/>
      <point x="313" y="386" type="line"/>
      <point x="413" y="523" type="line"/>
      <point x="602" y="523" type="line"/>
      <point x="401" y="275" type="line"/>
      <point x="537" y="0" type="line"/>
      <point x="339" y="0" type="line"/>
      <point x="271" y="156" type="line"/>
      <point x="152" y="0" type="line"/>
    </contour>
  </outline>
</glyph>
<glyph name="y" format="2">
  <advance width="577"/>
  <unicode hex="0079"/>
  <outline>
    <contour>
      <point x="46" y="-175" type="line"/>
      <point x="173" y="59" type="line"/>
      <point x="46" y="523" type="line"/>
      <point x="232" y="523" type="line"/>
      <point x="292" y="242" type="line"/>
      <point x="433" y="523" type="line"/>
      <point x="611" y="523" type="line"/>
      <point x="225" y="-175" type="line"/>
    </contour>
  </outline>
</glyph>
<glyph name="z" format="2">
  <advance width="505"/>
  <unicode hex="007A"/>
  <outline>
    <contour>
      <point x="-32" y="0" type="line"/>
      <point x="-30" y="18" type="line"/>
      <point x="251" y="389" type="line"/>
      <point x="52" y="389" type="line"/>
      <point x="72" y="523" type="line"/>
      <point x="532" y="523" type="line"/>
      <point x="529" y="504" type="line"/>
      <point x="243" y="134" type="line"/>
      <point x="459" y="134" type="line"/>
      <point x="438" y="0" type="line"/>
    </contour>
  </outline>
</glyph>
<glyph name="braceleft" format="2">
  <advance width="418"/>
  <unicode hex="007B"/>
  <outline>
    <contour>
      <point x="314" y="-148" type="line"/>
      <point x="120" y="-145"/>
      <point x="34" y="-61"/>
      <point x="87" y="93" type="curve" smooth="yes"/>
      <point x="113" y="173" type="line" smooth="yes"/>
      <point x="130" y="225"/>
      <point x="108" y="256"/>
      <point x="30" y="260" type="curve"/>
      <point x="50" y="384" type="line"/>
      <point x="130" y="384"/>
      <point x="159" y="410"/>
      <point x="158" y="464" type="curve" smooth="yes"/>
      <point x="157" y="549" type="line" smooth="yes"/>
      <point x="156" y="722"/>
      <point x="251" y="778"/>
      <point x="460" y="777" type="curve"/>
      <point x="440" y="647" type="line"/>
      <point x="358" y="643"/>
      <point x="335" y="619"/>
      <point x="333" y="545" type="curve" smooth="yes"/>
      <point x="331" y="449" type="line" smooth="yes"/>
      <point x="329" y="373"/>
      <point x="283" y="330"/>
      <point x="208" y="315" type="curve"/>
      <point x="282" y="296"/>
      <point x="309" y="244"/>
      <point x="287" y="171" type="curve" smooth="yes"/>
      <point x="260" y="82" type="line" smooth="yes"/>
      <point x="239" y="12"/>
      <point x="257" y="-12"/>
      <point x="334" y="-17" type="curve"/>
    </contour>
  </outline>
</glyph>
<glyph name="braceright" format="2">
  <advance width="418"/>
  <unicode hex="007D"/>
  <outline>
    <contour>
      <point x="118" y="777" type="line"/>
      <point x="313" y="774"/>
      <point x="395" y="691"/>
      <point x="346" y="536" type="curve" smooth="yes"/>
      <point x="320" y="457" type="line" smooth="yes"/>
      <point x="303" y="406"/>
      <point x="325" y="374"/>
      <point x="402" y="368" type="curve"/>
      <point x="383" y="244" type="line"/>
      <point x="303" y="246"/>
      <point x="275" y="222"/>
      <point x="275" y="167" type="curve" smooth="yes"/>
      <point x="275" y="81" type="line" smooth="yes"/>
      <point x="275" y="-93"/>
      <point x="181" y="-149"/>
      <point x="-28" y="-148" type="curve"/>
      <point x="-7" y="-18" type="line"/>
      <point x="74" y="-14"/>
      <point x="98" y="11"/>
      <point x="99" y="84" type="curve" smooth="yes"/>
      <point x="102" y="184" type="line" smooth="yes"/>
      <point x="105" y="260"/>
      <point x="151" y="301"/>
      <point x="225" y="314" type="curve"/>
      <point x="151" y="335"/>
      <point x="125" y="388"/>
      <point x="145" y="457" type="curve" smooth="yes"/>
      <point x="172" y="547" type="line" smooth="yes"/>
      <point x="194" y="618"/>
      <point x="175" y="641"/>
      <point x="98" y="647" type="curve"/>
    </contour>
  </outline>
</glyph>
<glyph name="asciitilde" format="2">
  <advance width="518"/>
  <unicode hex="007E"/>
  <outline>
    <contour>
      <point x="23" y="214" type="line"/>
      <point x="43" y="359"/>
      <point x="112" y="412"/>
      <point x="185" y="412" type="curve" smooth="yes"/>
      <point x="257" y="412"/>
      <point x="308" y="368"/>
      <point x="343" y="368" type="curve" smooth="yes"/>
      <point x="369" y="368"/>
      <point x="386" y="385"/>
      <point x="393" y="414" type="curve"/>
      <point x="509" y="414" type="line"/>
      <point x="493" y="279"/>
      <point x="420" y="216"/>
      <point x="347" y="216" type="curve" smooth="yes"/>
      <point x="273" y="216"/>
      <point x="223" y="260"/>
      <point x="188" y="260" type="curve" smooth="yes"/>
      <point x="161" y="260"/>
      <point x="146" y="242"/>
      <point x="139" y="214" type="curve"/>
    </contour>
  </outline>
</glyph>
<glyph name="exclamdown" format="2">
  <advance width="334"/>
  <unicode hex="00A1"/>
  <outline>
    <contour>
      <point x="255" y="363" type="line"/>
      <point x="205" y="-117" type="line"/>
      <point x="3" y="-117" type="line"/>
      <point x="107" y="363" type="line"/>
    </contour>
    <contour>
      <point x="202" y="609" type="curve" smooth="yes"/>
      <point x="261" y="609"/>
      <point x="304" y="566"/>
      <point x="304" y="511" type="curve" smooth="yes"/>
      <point x="304" y="455"/>
      <point x="259" y="410"/>
      <point x="201" y="410" type="curve" smooth="yes"/>
      <point x="142" y="410"/>
      <point x="97" y="454"/>
      <point x="97" y="509" type="curve" smooth="yes"/>
      <point x="97" y="564"/>
      <point x="143" y="609"/>
    </contour>
  </outline>
</glyph>
<glyph name="cent" format="2">
  <advance width="594"/>
  <unicode hex="00A2"/>
  <outline>
    <contour>
      <point x="209" y="-135" type="line"/>
      <point x="229" y="-6" type="line"/>
      <point x="109" y="14"/>
      <point x="22" y="93"/>
      <point x="21" y="222" type="curve" smooth="yes"/>
      <point x="21" y="402"/>
      <point x="143" y="528"/>
      <point x="315" y="536" type="curve"/>
      <point x="330" y="629" type="line"/>
      <point x="408" y="629" type="line"/>
      <point x="392" y="531" type="line"/>
      <point x="503" y="514"/>
      <point x="575" y="448"/>
      <point x="580" y="321" type="curve"/>
      <point x="418" y="321" type="line"/>
      <point x="416" y="362"/>
      <point x="400" y="387"/>
      <point x="371" y="398" type="curve"/>
      <point x="326" y="113" type="line"/>
      <point x="371" y="120"/>
      <point x="402" y="148"/>
      <point x="414" y="205" type="curve"/>
      <point x="570" y="205" type="line"/>
      <point x="554" y="72"/>
      <point x="452" y="-8"/>
      <point x="306" y="-12" type="curve"/>
      <point x="287" y="-135" type="line"/>
    </contour>
    <contour>
      <point x="195" y="224" type="curve" smooth="yes"/>
      <point x="195" y="169"/>
      <point x="214" y="135"/>
      <point x="249" y="120" type="curve"/>
      <point x="294" y="402" type="line"/>
      <point x="234" y="387"/>
      <point x="195" y="327"/>
    </contour>
  </outline>
</glyph>
<glyph name="sterling" format="2">
  <advance width="657"/>
  <unicode hex="00A3"/>
  <outline>
    <contour>
      <point x="38" y="287" type="line"/>
      <point x="57" y="407" type="line"/>
      <point x="106" y="407" type="line"/>
      <point x="103" y="427"/>
      <point x="102" y="448"/>
      <point x="102" y="470" type="curve" smooth="yes"/>
      <point x="102" y="626"/>
      <point x="219" y="725"/>
      <point x="389" y="725" type="curve" smooth="yes"/>
      <point x="542" y="725"/>
      <point x="654" y="663"/>
      <point x="653" y="484" type="curve"/>
      <point x="462" y="484" type="line"/>
      <point x="462" y="541"/>
      <point x="443" y="571"/>
      <point x="389" y="571" type="curve" smooth="yes"/>
      <point x="318" y="571"/>
      <point x="298" y="511"/>
      <point x="298" y="444" type="curve" smooth="yes"/>
      <point x="298" y="407" type="line"/>
      <point x="483" y="407" type="line"/>
      <point x="463" y="287" type="line"/>
      <point x="301" y="287" type="line"/>
      <point x="301" y="280" type="line" smooth="yes"/>
      <point x="301" y="244"/>
      <point x="294" y="208"/>
      <point x="276" y="172" type="curve"/>
      <point x="315" y="161"/>
      <point x="350" y="150"/>
      <point x="377" y="150" type="curve" smooth="yes"/>
      <point x="413" y="150"/>
      <point x="437" y="168"/>
      <point x="444" y="209" type="curve"/>
      <point x="627" y="209" type="line"/>
      <point x="610" y="83"/>
      <point x="537" y="-9"/>
      <point x="399" y="-9" type="curve" smooth="yes"/>
      <point x="300" y="-9"/>
      <point x="230" y="43"/>
      <point x="181" y="43" type="curve" smooth="yes"/>
      <point x="152" y="43"/>
      <point x="134" y="24"/>
      <point x="130" y="0" type="curve"/>
      <point x="-21" y="0" type="line"/>
      <point x="-8" y="79"/>
      <point x="32" y="150"/>
      <point x="102" y="178" type="curve"/>
      <point x="115" y="206"/>
      <point x="122" y="237"/>
      <point x="122" y="272" type="curve" smooth="yes"/>
      <point x="122" y="277"/>
      <point x="122" y="282"/>
      <point x="121" y="287" type="curve"/>
    </contour>
  </outline>
</glyph>
<glyph name="yen" format="2">
  <advance width="646"/>
  <unicode hex="00A5"/>
  <outline>
    <contour>
      <point x="69" y="294" type="line"/>
      <point x="79" y="365" type="line"/>
      <point x="217" y="365" type="line"/>
      <point x="82" y="715" type="line"/>
      <point x="299" y="715" type="line"/>
      <point x="365" y="482" type="line"/>
      <point x="506" y="715" type="line"/>
      <point x="706" y="715" type="line"/>
      <point x="469" y="365" type="line"/>
      <point x="608" y="365" type="line"/>
      <point x="597" y="294" type="line"/>
      <point x="435" y="294" type="line"/>
      <point x="427" y="243" type="line"/>
      <point x="588" y="243" type="line"/>
      <point x="577" y="171" type="line"/>
      <point x="416" y="171" type="line"/>
      <point x="389" y="0" type="line"/>
      <point x="183" y="0" type="line"/>
      <point x="210" y="171" type="line"/>
      <point x="48" y="171" type="line"/>
      <point x="59" y="243" type="line"/>
      <point x="221" y="243" type="line"/>
      <point x="229" y="294" type="line"/>
    </contour>
  </outline>
</glyph>
<glyph name="brokenbar" format="2">
  <advance width="268"/>
  <unicode hex="00A6"/>
  <outline>
    <contour>
      <point x="85" y="-148" type="line"/>
      <point x="85" y="301" type="line"/>
      <point x="210" y="301" type="line"/>
      <point x="210" y="-148" type="line"/>
    </contour>
    <contour>
      <point x="85" y="372" type="line"/>
      <point x="85" y="776" type="line"/>
      <point x="210" y="776" type="line"/>
      <point x="210" y="372" type="line"/>
    </contour>
  </outline>
</glyph>
<glyph name="section" format="2">
  <advance width="606"/>
  <unicode hex="00A7"/>
  <outline>
    <contour>
      <point x="259" y="-137" type="curve" smooth="yes"/>
      <point x="139" y="-137"/>
      <point x="35" y="-85"/>
      <point x="36" y="46" type="curve"/>
      <point x="200" y="46" type="line"/>
      <point x="202" y="7"/>
      <point x="220" y="-16"/>
      <point x="266" y="-16" type="curve" smooth="yes"/>
      <point x="298" y="-16"/>
      <point x="324" y="-1"/>
      <point x="324" y="29" type="curve" smooth="yes"/>
      <point x="324" y="55"/>
      <point x="297" y="72"/>
      <point x="220" y="97" type="curve" smooth="yes"/>
      <point x="101" y="135"/>
      <point x="23" y="183"/>
      <point x="23" y="282" type="curve" smooth="yes"/>
      <point x="23" y="368"/>
      <point x="79" y="414"/>
      <point x="155" y="436" type="curve"/>
      <point x="134" y="461"/>
      <point x="123" y="489"/>
      <point x="123" y="524" type="curve" smooth="yes"/>
      <point x="123" y="660"/>
      <point x="231" y="725"/>
      <point x="361" y="725" type="curve" smooth="yes"/>
      <point x="481" y="725"/>
      <point x="574" y="677"/>
      <point x="578" y="542" type="curve"/>
      <point x="411" y="542" type="line"/>
      <point x="410" y="580"/>
      <point x="396" y="601"/>
      <point x="353" y="602" type="curve" smooth="yes"/>
      <point x="318" y="602"/>
      <point x="294" y="587"/>
      <point x="294" y="556" type="curve" smooth="yes"/>
      <point x="294" y="528"/>
      <point x="319" y="513"/>
      <point x="392" y="489" type="curve" smooth="yes"/>
      <point x="511" y="451"/>
      <point x="590" y="403"/>
      <point x="590" y="301" type="curve" smooth="yes"/>
      <point x="590" y="217"/>
      <point x="538" y="175"/>
      <point x="460" y="150" type="curve"/>
      <point x="482" y="126"/>
      <point x="495" y="95"/>
      <point x="495" y="61" type="curve" smooth="yes"/>
      <point x="495" y="-76"/>
      <point x="384" y="-137"/>
    </contour>
    <contour>
      <point x="366" y="221" type="line"/>
      <point x="389" y="226"/>
      <point x="413" y="235"/>
      <point x="413" y="265" type="curve" smooth="yes"/>
      <point x="413" y="292"/>
      <point x="389" y="305"/>
      <point x="331" y="329" type="curve" smooth="yes"/>
      <point x="251" y="363" type="line"/>
      <point x="228" y="360"/>
      <point x="202" y="349"/>
      <point x="202" y="319" type="curve" smooth="yes"/>
      <point x="202" y="293"/>
      <point x="225" y="279"/>
      <point x="284" y="255" type="curve" smooth="yes"/>
    </contour>
  </outline>
</glyph>
<glyph name="dieresis" format="2">
  <advance width="400"/>
  <unicode hex="00A8"/>
  <outline>
    <contour>
      <point x="156" y="580" type="curve" smooth="yes"/>
      <point x="109" y="580"/>
      <point x="71" y="617"/>
      <point x="71" y="663" type="curve" smooth="yes"/>
      <point x="71" y="709"/>
      <point x="109" y="747"/>
      <point x="157" y="747" type="curve" smooth="yes"/>
      <point x="204" y="747"/>
      <point x="242" y="710"/>
      <point x="242" y="664" type="curve" smooth="yes"/>
      <point x="242" y="617"/>
      <point x="204" y="580"/>
    </contour>
    <contour>
      <point x="369" y="580" type="curve" smooth="yes"/>
      <point x="321" y="580"/>
      <point x="284" y="617"/>
      <point x="284" y="663" type="curve" smooth="yes"/>
      <point x="284" y="709"/>
      <point x="321" y="747"/>
      <point x="369" y="747" type="curve" smooth="yes"/>
      <point x="417" y="747"/>
      <point x="455" y="710"/>
      <point x="455" y="664" type="curve" smooth="yes"/>
      <point x="455" y="617"/>
      <point x="417" y="580"/>
    </contour>
  </outline>
</glyph>
<glyph name="copyright" format="2">
  <advance width="843"/>
  <unicode hex="00A9"/>
  <outline>
    <contour>
      <point x="441" y="151" type="curve" smooth="yes"/>
      <point x="298" y="151"/>
      <point x="229" y="231"/>
      <point x="229" y="354" type="curve" smooth="yes"/>
      <point x="229" y="362" type="line" smooth="yes"/>
      <point x="229" y="485"/>
      <point x="318" y="564"/>
      <point x="436" y="564" type="curve" smooth="yes"/>
      <point x="542" y="564"/>
      <point x="616" y="516"/>
      <point x="625" y="407" type="curve"/>
      <point x="497" y="407" type="line"/>
      <point x="493" y="445"/>
      <point x="473" y="466"/>
      <point x="436" y="466" type="curve" smooth="yes"/>
      <point x="389" y="466"/>
      <point x="360" y="431"/>
      <point x="360" y="362" type="curve" smooth="yes"/>
      <point x="360" y="355" type="line" smooth="yes"/>
      <point x="360" y="287"/>
      <point x="387" y="250"/>
      <point x="438" y="250" type="curve" smooth="yes"/>
      <point x="475" y="250"/>
      <point x="502" y="269"/>
      <point x="507" y="311" type="curve"/>
      <point x="629" y="311" type="line"/>
      <point x="623" y="206"/>
      <point x="546" y="151"/>
    </contour>
    <contour>
      <point x="433" y="31" type="curve" smooth="yes"/>
      <point x="609" y="31"/>
      <point x="755" y="163"/>
      <point x="755" y="359" type="curve" smooth="yes"/>
      <point x="755" y="552"/>
      <point x="614" y="684"/>
      <point x="435" y="684" type="curve" smooth="yes"/>
      <point x="254" y="684"/>
      <point x="112" y="551"/>
      <point x="112" y="357" type="curve" smooth="yes"/>
      <point x="112" y="161"/>
      <point x="258" y="31"/>
    </contour>
    <contour>
      <point x="433" y="-20" type="curve" smooth="yes"/>
      <point x="220" y="-20"/>
      <point x="50" y="143"/>
      <point x="50" y="357" type="curve" smooth="yes"/>
      <point x="50" y="568"/>
      <point x="219" y="735"/>
      <point x="435" y="735" type="curve" smooth="yes"/>
      <point x="653" y="735"/>
      <point x="818" y="569"/>
      <point x="818" y="359" type="curve" smooth="yes"/>
      <point x="818" y="144"/>
      <point x="648" y="-20"/>
    </contour>
  </outline>
</glyph>
<glyph name="ordfeminine" format="2">
  <advance width="483"/>
  <unicode hex="00AA"/>
  <outline>
    <contour>
      <point x="182" y="287" type="curve" smooth="yes"/>
      <point x="110" y="287"/>
      <point x="52" y="328"/>
      <point x="52" y="401" type="curve" smooth="yes"/>
      <point x="52" y="510"/>
      <point x="141" y="545"/>
      <point x="283" y="545" type="curve" smooth="yes"/>
      <point x="329" y="545" type="line"/>
      <point x="331" y="559" type="line" smooth="yes"/>
      <point x="336" y="592"/>
      <point x="331" y="615"/>
      <point x="290" y="615" type="curve" smooth="yes"/>
      <point x="258" y="615"/>
      <point x="242" y="595"/>
      <point x="237" y="570" type="curve"/>
      <point x="88" y="570" type="line"/>
      <point x="108" y="674"/>
      <point x="190" y="723"/>
      <point x="302" y="723" type="curve" smooth="yes"/>
      <point x="446" y="723"/>
      <point x="504" y="668"/>
      <point x="482" y="529" type="curve" smooth="yes"/>
      <point x="466" y="427" type="line" smooth="yes"/>
      <point x="457" y="374"/>
      <point x="455" y="333"/>
      <point x="460" y="298" type="curve"/>
      <point x="309" y="298" type="line"/>
      <point x="306" y="315"/>
      <point x="306" y="334"/>
      <point x="306" y="350" type="curve"/>
      <point x="283" y="317"/>
      <point x="246" y="287"/>
    </contour>
    <contour>
      <point x="248" y="392" type="curve" smooth="yes"/>
      <point x="283" y="392"/>
      <point x="307" y="409"/>
      <point x="313" y="443" type="curve" smooth="yes"/>
      <point x="317" y="466" type="line"/>
      <point x="277" y="466" type="line" smooth="yes"/>
      <point x="227" y="466"/>
      <point x="208" y="453"/>
      <point x="208" y="425" type="curve" smooth="yes"/>
      <point x="208" y="405"/>
      <point x="221" y="392"/>
    </contour>
  </outline>
</glyph>
<glyph name="guillemotleft" format="2">
  <advance width="480"/>
  <unicode hex="00AB"/>
  <outline>
    <contour>
      <point x="128" y="70" type="line"/>
      <point x="30" y="265" type="line"/>
      <point x="174" y="452" type="line"/>
      <point x="293" y="452" type="line"/>
      <point x="150" y="263" type="line"/>
      <point x="240" y="70" type="line"/>
    </contour>
    <contour>
      <point x="306" y="70" type="line"/>
      <point x="211" y="263" type="line"/>
      <point x="356" y="452" type="line"/>
      <point x="474" y="452" type="line"/>
      <point x="331" y="259" type="line"/>
      <point x="418" y="70" type="line"/>
    </contour>
  </outline>
</glyph>
<glyph name="registered" format="2">
  <advance width="517"/>
  <unicode hex="00AE"/>
  <outline>
    <contour>
      <point x="209" y="396" type="line"/>
      <point x="209" y="615" type="line"/>
      <point x="299" y="615" type="line" smooth="yes"/>
      <point x="359" y="615"/>
      <point x="390" y="591"/>
      <point x="390" y="544" type="curve" smooth="yes"/>
      <point x="390" y="543" type="line" smooth="yes"/>
      <point x="390" y="512"/>
      <point x="375" y="495"/>
      <point x="353" y="485" type="curve"/>
      <point x="403" y="396" type="line"/>
      <point x="331" y="396" type="line"/>
      <point x="291" y="471" type="line"/>
      <point x="279" y="471" type="line"/>
      <point x="279" y="396" type="line"/>
    </contour>
    <contour>
      <point x="279" y="516" type="line"/>
      <point x="294" y="516" type="line" smooth="yes"/>
      <point x="313" y="516"/>
      <point x="322" y="524"/>
      <point x="322" y="539" type="curve" smooth="yes"/>
      <point x="322" y="540" type="line" smooth="yes"/>
      <point x="322" y="556"/>
      <point x="313" y="562"/>
      <point x="294" y="562" type="curve" smooth="yes"/>
      <point x="279" y="562" type="line"/>
    </contour>
    <contour>
      <point x="294" y="319" type="curve" smooth="yes"/>
      <point x="399" y="319"/>
      <point x="480" y="395"/>
      <point x="480" y="503" type="curve" smooth="yes"/>
      <point x="480" y="611"/>
      <point x="402" y="687"/>
      <point x="294" y="687" type="curve" smooth="yes"/>
      <point x="186" y="687"/>
      <point x="109" y="610"/>
      <point x="109" y="502" type="curve" smooth="yes"/>
      <point x="109" y="393"/>
      <point x="190" y="319"/>
    </contour>
    <contour>
      <point x="294" y="281" type="curve" smooth="yes"/>
      <point x="167" y="281"/>
      <point x="65" y="376"/>
      <point x="65" y="502" type="curve" smooth="yes"/>
      <point x="65" y="626"/>
      <point x="166" y="725"/>
      <point x="294" y="725" type="curve" smooth="yes"/>
      <point x="424" y="725"/>
      <point x="524" y="627"/>
      <point x="524" y="503" type="curve" smooth="yes"/>
      <point x="524" y="377"/>
      <point x="422" y="281"/>
    </contour>
  </outline>
</glyph>
<glyph name="macron" format="2">
  <advance width="400"/>
  <unicode hex="00AF"/>
  <outline>
    <contour>
      <point x="100" y="612" type="line"/>
      <point x="116" y="712" type="line"/>
      <point x="423" y="712" type="line"/>
      <point x="408" y="612" type="line"/>
    </contour>
  </outline>
</glyph>
<glyph name="degree" format="2">
  <advance width="453"/>
  <unicode hex="00B0"/>
  <outline>
    <contour>
      <point x="270" y="451" type="curve" smooth="yes"/>
      <point x="323" y="451"/>
      <point x="361" y="493"/>
      <point x="361" y="553" type="curve" smooth="yes"/>
      <point x="361" y="610"/>
      <point x="324" y="654"/>
      <point x="272" y="654" type="curve" smooth="yes"/>
      <point x="217" y="654"/>
      <point x="178" y="611"/>
      <point x="178" y="550" type="curve" smooth="yes"/>
      <point x="178" y="494"/>
      <point x="216" y="451"/>
    </contour>
    <contour>
      <point x="270" y="381" type="curve" smooth="yes"/>
      <point x="172" y="381"/>
      <point x="94" y="458"/>
      <point x="94" y="550" type="curve" smooth="yes"/>
      <point x="94" y="646"/>
      <point x="172" y="724"/>
      <point x="272" y="724" type="curve" smooth="yes"/>
      <point x="369" y="724"/>
      <point x="446" y="647"/>
      <point x="446" y="553" type="curve" smooth="yes"/>
      <point x="446" y="459"/>
      <point x="368" y="381"/>
    </contour>
  </outline>
</glyph>
<glyph name="plusminus" format="2">
  <advance width="570"/>
  <unicode hex="00B1"/>
  <outline>
    <contour>
      <point x="198" y="176" type="line"/>
      <point x="225" y="341" type="line"/>
      <point x="49" y="341" type="line"/>
      <point x="69" y="472" type="line"/>
      <point x="245" y="472" type="line"/>
      <point x="271" y="636" type="line"/>
      <point x="415" y="636" type="line"/>
      <point x="389" y="472" type="line"/>
      <point x="564" y="472" type="line"/>
      <point x="544" y="341" type="line"/>
      <point x="368" y="341" type="line"/>
      <point x="342" y="176" type="line"/>
    </contour>
    <contour>
      <point x="-5" y="0" type="line"/>
      <point x="14" y="118" type="line"/>
      <point x="511" y="118" type="line"/>
      <point x="493" y="0" type="line"/>
    </contour>
  </outline>
</glyph>
<glyph name="threesuperior" format="2">
  <advance width="374"/>
  <unicode hex="00B3"/>
  <outline>
    <contour>
      <point x="215" y="332" type="curve" smooth="yes"/>
      <point x="119" y="332"/>
      <point x="50" y="370"/>
      <point x="49" y="466" type="curve"/>
      <point x="167" y="466" type="line"/>
      <point x="167" y="440"/>
      <point x="181" y="424"/>
      <point x="209" y="424" type="curve" smooth="yes"/>
      <point x="228" y="424"/>
      <point x="249" y="434"/>
      <point x="249" y="461" type="curve" smooth="yes"/>
      <point x="249" y="481"/>
      <point x="236" y="492"/>
      <point x="206" y="492" type="curve" smooth="yes"/>
      <point x="178" y="492" type="line"/>
      <point x="190" y="566" type="line"/>
      <point x="223" y="566" type="line" smooth="yes"/>
      <point x="252" y="566"/>
      <point x="268" y="577"/>
      <point x="268" y="600" type="curve" smooth="yes"/>
      <point x="268" y="617"/>
      <point x="258" y="629"/>
      <point x="234" y="629" type="curve" smooth="yes"/>
      <point x="213" y="629"/>
      <point x="195" y="617"/>
      <point x="189" y="591" type="curve"/>
      <point x="73" y="591" type="line"/>
      <point x="85" y="673"/>
      <point x="148" y="720"/>
      <point x="246" y="720" type="curve" smooth="yes"/>
      <point x="316" y="720"/>
      <point x="393" y="698"/>
      <point x="393" y="618" type="curve" smooth="yes"/>
      <point x="393" y="572"/>
      <point x="362" y="542"/>
      <point x="316" y="529" type="curve"/>
      <point x="354" y="521"/>
      <point x="380" y="498"/>
      <point x="380" y="452" type="curve" smooth="yes"/>
      <point x="380" y="370"/>
      <point x="303" y="332"/>
    </contour>
  </outline>
</glyph>
<glyph name="acute" format="2">
  <advance width="400"/>
  <unicode hex="00B4"/>
  <outline>
    <contour>
      <point x="178" y="583" type="line"/>
      <point x="251" y="749" type="line"/>
      <point x="433" y="749" type="line"/>
      <point x="308" y="583" type="line"/>
    </contour>
  </outline>
</glyph>
<glyph name="paragraph" format="2">
  <advance width="551"/>
  <unicode hex="00B6"/>
  <outline>
    <contour>
      <point x="198" y="-100" type="line"/>
      <point x="266" y="329" type="line"/>
      <point x="263" y="329" type="line" smooth="yes"/>
      <point x="151" y="329"/>
      <point x="65" y="386"/>
      <point x="65" y="499" type="curve" smooth="yes"/>
      <point x="65" y="643"/>
      <point x="172" y="715"/>
      <point x="310" y="715" type="curve" smooth="yes"/>
      <point x="552" y="715" type="line"/>
      <point x="423" y="-100" type="line"/>
      <point x="347" y="-100" type="line"/>
      <point x="466" y="651" type="line"/>
      <point x="391" y="651" type="line"/>
      <point x="273" y="-100" type="line"/>
    </contour>
  </outline>
</glyph>
<glyph name="periodcentered" format="2">
  <advance width="299"/>
  <unicode hex="00B7"/>
  <outline>
    <contour>
      <point x="157" y="225" type="curve" smooth="yes"/>
      <point x="99" y="225"/>
      <point x="55" y="270"/>
      <point x="55" y="326" type="curve" smooth="yes"/>
      <point x="55" y="382"/>
      <point x="98" y="427"/>
      <point x="156" y="427" type="curve" smooth="yes"/>
      <point x="216" y="427"/>
      <point x="262" y="382"/>
      <point x="262" y="326" type="curve" smooth="yes"/>
      <point x="262" y="270"/>
      <point x="217" y="225"/>
    </contour>
  </outline>
</glyph>
<glyph name="cedilla" format="2">
  <advance width="400"/>
  <unicode hex="00B8"/>
  <outline>
    <contour>
      <point x="139" y="-226" type="curve" smooth="yes"/>
      <point x="75" y="-226"/>
      <point x="18" y="-198"/>
      <point x="13" y="-133" type="curve"/>
      <point x="98" y="-133" type="line"/>
      <point x="100" y="-147"/>
      <point x="109" y="-161"/>
      <point x="133" y="-161" type="curve" smooth="yes"/>
      <point x="148" y="-161"/>
      <point x="166" y="-152"/>
      <point x="166" y="-128" type="curve" smooth="yes"/>
      <point x="166" y="-109"/>
      <point x="154" y="-100"/>
      <point x="134" y="-100" type="curve" smooth="yes"/>
      <point x="120" y="-100"/>
      <point x="112" y="-105"/>
      <point x="105" y="-110" type="curve"/>
      <point x="71" y="-72" type="line"/>
      <point x="129" y="0" type="line"/>
      <point x="201" y="0" type="line"/>
      <point x="164" y="-45" type="line"/>
      <point x="217" y="-41"/>
      <point x="262" y="-70"/>
      <point x="262" y="-124" type="curve" smooth="yes"/>
      <point x="262" y="-193"/>
      <point x="207" y="-226"/>
    </contour>
  </outline>
</glyph>
<glyph name="ordmasculine" format="2">
  <advance width="522"/>
  <unicode hex="00BA"/>
  <outline>
    <contour>
      <point x="274" y="287" type="curve" smooth="yes"/>
      <point x="146" y="287"/>
      <point x="66" y="358"/>
      <point x="66" y="474" type="curve" smooth="yes"/>
      <point x="66" y="623"/>
      <point x="181" y="723"/>
      <point x="318" y="723" type="curve" smooth="yes"/>
      <point x="454" y="723"/>
      <point x="525" y="646"/>
      <point x="525" y="533" type="curve" smooth="yes"/>
      <point x="525" y="383"/>
      <point x="409" y="287"/>
    </contour>
    <contour>
      <point x="285" y="402" type="curve" smooth="yes"/>
      <point x="341" y="402"/>
      <point x="369" y="465"/>
      <point x="369" y="536" type="curve" smooth="yes"/>
      <point x="369" y="580"/>
      <point x="351" y="608"/>
      <point x="308" y="608" type="curve" smooth="yes"/>
      <point x="255" y="608"/>
      <point x="223" y="550"/>
      <point x="223" y="474" type="curve" smooth="yes"/>
      <point x="223" y="429"/>
      <point x="243" y="402"/>
    </contour>
  </outline>
</glyph>
<glyph name="guillemotright" format="2">
  <advance width="480"/>
  <unicode hex="00BB"/>
  <outline>
    <contour>
      <point x="351" y="452" type="line"/>
      <point x="449" y="257" type="line"/>
      <point x="304" y="70" type="line"/>
      <point x="186" y="70" type="line"/>
      <point x="329" y="259" type="line"/>
      <point x="239" y="452" type="line"/>
    </contour>
    <contour>
      <point x="173" y="452" type="line"/>
      <point x="268" y="259" type="line"/>
      <point x="123" y="70" type="line"/>
      <point x="4" y="70" type="line"/>
      <point x="148" y="263" type="line"/>
      <point x="61" y="452" type="line"/>
    </contour>
  </outline>
</glyph>
<glyph name="onequarter" format="2">
  <advance width="801"/>
  <unicode hex="00BC"/>
  <outline>
    <contour>
      <point x="116" y="339" type="line"/>
      <point x="155" y="585" type="line"/>
      <point x="66" y="539" type="line"/>
      <point x="83" y="648" type="line"/>
      <point x="196" y="715" type="line"/>
      <point x="310" y="715" type="line"/>
      <point x="250" y="339" type="line"/>
    </contour>
    <contour>
      <point x="53" y="0" type="line"/>
      <point x="664" y="715" type="line"/>
      <point x="759" y="715" type="line"/>
      <point x="148" y="0" type="line"/>
    </contour>
    <contour>
      <point x="561" y="0" type="line"/>
      <point x="572" y="70" type="line"/>
      <point x="385" y="70" type="line"/>
      <point x="393" y="119" type="line"/>
      <point x="590" y="376" type="line"/>
      <point x="749" y="376" type="line"/>
      <point x="714" y="157" type="line"/>
      <point x="762" y="157" type="line"/>
      <point x="748" y="70" type="line"/>
      <point x="701" y="70" type="line"/>
      <point x="690" y="0" type="line"/>
    </contour>
    <contour>
      <point x="516" y="157" type="line"/>
      <point x="590" y="157" type="line"/>
      <point x="610" y="284" type="line"/>
    </contour>
  </outline>
</glyph>
<glyph name="onehalf" format="2">
  <advance width="814"/>
  <unicode hex="00BD"/>
  <outline>
    <contour>
      <point x="40" y="0" type="line"/>
      <point x="651" y="715" type="line"/>
      <point x="746" y="715" type="line"/>
      <point x="135" y="0" type="line"/>
    </contour>
    <contour>
      <point x="116" y="339" type="line"/>
      <point x="155" y="585" type="line"/>
      <point x="66" y="539" type="line"/>
      <point x="83" y="648" type="line"/>
      <point x="196" y="715" type="line"/>
      <point x="310" y="715" type="line"/>
      <point x="250" y="339" type="line"/>
    </contour>
    <contour>
      <point x="420" y="0" type="line"/>
      <point x="423" y="17" type="line"/>
      <point x="572" y="150" type="line" smooth="yes"/>
      <point x="611" y="184"/>
      <point x="657" y="224"/>
      <point x="657" y="254" type="curve" smooth="yes"/>
      <point x="657" y="274"/>
      <point x="645" y="284"/>
      <point x="628" y="284" type="curve" smooth="yes"/>
      <point x="607" y="284"/>
      <point x="590" y="269"/>
      <point x="582" y="231" type="curve"/>
      <point x="460" y="231" type="line"/>
      <point x="475" y="332"/>
      <point x="544" y="381"/>
      <point x="638" y="381" type="curve" smooth="yes"/>
      <point x="719" y="381"/>
      <point x="788" y="352"/>
      <point x="788" y="268" type="curve" smooth="yes"/>
      <point x="788" y="213"/>
      <point x="748" y="174"/>
      <point x="685" y="121" type="curve" smooth="yes"/>
      <point x="654" y="95" type="line"/>
      <point x="763" y="95" type="line"/>
      <point x="747" y="0" type="line"/>
    </contour>
  </outline>
</glyph>
<glyph name="threequarters" format="2">
  <advance width="842"/>
  <unicode hex="00BE"/>
  <outline>
    <contour>
      <point x="218" y="332" type="curve" smooth="yes"/>
      <point x="122" y="332"/>
      <point x="53" y="370"/>
      <point x="52" y="466" type="curve"/>
      <point x="170" y="466" type="line"/>
      <point x="170" y="440"/>
      <point x="184" y="424"/>
      <point x="212" y="424" type="curve" smooth="yes"/>
      <point x="231" y="424"/>
      <point x="252" y="434"/>
      <point x="252" y="461" type="curve" smooth="yes"/>
      <point x="252" y="481"/>
      <point x="239" y="492"/>
      <point x="209" y="492" type="curve" smooth="yes"/>
      <point x="181" y="492" type="line"/>
      <point x="193" y="566" type="line"/>
      <point x="226" y="566" type="line" smooth="yes"/>
      <point x="255" y="566"/>
      <point x="271" y="577"/>
      <point x="271" y="600" type="curve" smooth="yes"/>
      <point x="271" y="617"/>
      <point x="261" y="629"/>
      <point x="237" y="629" type="curve" smooth="yes"/>
      <point x="216" y="629"/>
      <point x="198" y="617"/>
      <point x="192" y="591" type="curve"/>
      <point x="76" y="591" type="line"/>
      <point x="88" y="673"/>
      <point x="151" y="720"/>
      <point x="249" y="720" type="curve" smooth="yes"/>
      <point x="319" y="720"/>
      <point x="396" y="698"/>
      <point x="396" y="618" type="curve" smooth="yes"/>
      <point x="396" y="572"/>
      <point x="365" y="542"/>
      <point x="319" y="529" type="curve"/>
      <point x="357" y="521"/>
      <point x="383" y="498"/>
      <point x="383" y="452" type="curve" smooth="yes"/>
      <point x="383" y="370"/>
      <point x="306" y="332"/>
    </contour>
    <contour>
      <point x="107" y="0" type="line"/>
      <point x="718" y="715" type="line"/>
      <point x="813" y="715" type="line"/>
      <point x="202" y="0" type="line"/>
    </contour>
    <contour>
      <point x="601" y="0" type="line"/>
      <point x="612" y="70" type="line"/>
      <point x="425" y="70" type="line"/>
      <point x="433" y="119" type="line"/>
      <point x="630" y="376" type="line"/>
      <point x="789" y="376" type="line"/>
      <point x="754" y="157" type="line"/>
      <point x="802" y="157" type="line"/>
      <point x="788" y="70" type="line"/>
      <point x="741" y="70" type="line"/>
      <point x="730" y="0" type="line"/>
    </contour>
    <contour>
      <point x="556" y="157" type="line"/>
      <point x="630" y="157" type="line"/>
      <point x="650" y="284" type="line"/>
    </contour>
  </outline>
</glyph>
<glyph name="questiondown" format="2">
  <advance width="556"/>
  <unicode hex="00BF"/>
  <outline>
    <contour>
      <point x="402" y="364" type="line"/>
      <point x="398" y="340" type="line" smooth="yes"/>
      <point x="385" y="261"/>
      <point x="327" y="213"/>
      <point x="277" y="175" type="curve" smooth="yes"/>
      <point x="230" y="139"/>
      <point x="191" y="117"/>
      <point x="191" y="70" type="curve" smooth="yes"/>
      <point x="192" y="38"/>
      <point x="212" y="19"/>
      <point x="249" y="19" type="curve" smooth="yes"/>
      <point x="291" y="19"/>
      <point x="322" y="47"/>
      <point x="333" y="107" type="curve"/>
      <point x="508" y="107" type="line"/>
      <point x="488" y="-50"/>
      <point x="376" y="-127"/>
      <point x="232" y="-126" type="curve" smooth="yes"/>
      <point x="79" y="-126"/>
      <point x="-1" y="-50"/>
      <point x="-1" y="56" type="curve" smooth="yes"/>
      <point x="-1" y="143"/>
      <point x="48" y="191"/>
      <point x="104" y="233" type="curve" smooth="yes"/>
      <point x="155" y="271"/>
      <point x="221" y="302"/>
      <point x="234" y="364" type="curve"/>
    </contour>
    <contour>
      <point x="340" y="610" type="curve" smooth="yes"/>
      <point x="399" y="610"/>
      <point x="442" y="567"/>
      <point x="442" y="512" type="curve" smooth="yes"/>
      <point x="442" y="456"/>
      <point x="397" y="411"/>
      <point x="338" y="411" type="curve" smooth="yes"/>
      <point x="280" y="411"/>
      <point x="234" y="455"/>
      <point x="234" y="510" type="curve" smooth="yes"/>
      <point x="234" y="565"/>
      <point x="281" y="610"/>
    </contour>
  </outline>
</glyph>
<glyph name="Agrave" format="2">
  <advance width="738"/>
  <unicode hex="00C0"/>
  <outline>
    <contour>
      <point x="476" y="0" type="line"/>
      <point x="459" y="133" type="line"/>
      <point x="222" y="133" type="line"/>
      <point x="163" y="0" type="line"/>
      <point x="-33" y="0" type="line"/>
      <point x="309" y="715" type="line"/>
      <point x="574" y="715" type="line"/>
      <point x="688" y="0" type="line"/>
    </contour>
    <contour>
      <point x="387" y="759" type="line"/>
      <point x="301" y="905" type="line"/>
      <point x="486" y="905" type="line"/>
      <point x="519" y="759" type="line"/>
    </contour>
    <contour>
      <point x="406" y="549" type="line"/>
      <point x="284" y="274" type="line"/>
      <point x="441" y="274" type="line"/>
    </contour>
  </outline>
</glyph>
<glyph name="Atilde" format="2">
  <advance width="738"/>
  <unicode hex="00C3"/>
  <outline>
    <contour>
      <point x="476" y="0" type="line"/>
      <point x="459" y="133" type="line"/>
      <point x="222" y="133" type="line"/>
      <point x="163" y="0" type="line"/>
      <point x="-33" y="0" type="line"/>
      <point x="309" y="715" type="line"/>
      <point x="574" y="715" type="line"/>
      <point x="688" y="0" type="line"/>
    </contour>
    <contour>
      <point x="510" y="758" type="curve" smooth="yes"/>
      <point x="452" y="758"/>
      <point x="421" y="792"/>
      <point x="391" y="792" type="curve" smooth="yes"/>
      <point x="374" y="792"/>
      <point x="360" y="779"/>
      <point x="355" y="759" type="curve"/>
      <point x="254" y="759" type="line"/>
      <point x="271" y="865"/>
      <point x="326" y="912"/>
      <point x="388" y="912" type="curve" smooth="yes"/>
      <point x="443" y="912"/>
      <point x="476" y="879"/>
      <point x="509" y="879" type="curve" smooth="yes"/>
      <point x="527" y="879"/>
      <point x="539" y="891"/>
      <point x="545" y="911" type="curve"/>
      <point x="646" y="911" type="line"/>
      <point x="628" y="806"/>
      <point x="570" y="758"/>
    </contour>
    <contour>
      <point x="406" y="549" type="line"/>
      <point x="284" y="274" type="line"/>
      <point x="441" y="274" type="line"/>
    </contour>
  </outline>
</glyph>
<glyph name="Adieresis" format="2">
  <advance width="738"/>
  <unicode hex="00C4"/>
  <outline>
    <contour>
      <point x="476" y="0" type="line"/>
      <point x="459" y="133" type="line"/>
      <point x="222" y="133" type="line"/>
      <point x="163" y="0" type="line"/>
      <point x="-33" y="0" type="line"/>
      <point x="309" y="715" type="line"/>
      <point x="574" y="715" type="line"/>
      <point x="688" y="0" type="line"/>
    </contour>
    <contour>
      <point x="559" y="758" type="curve" smooth="yes"/>
      <point x="511" y="758"/>
      <point x="474" y="795"/>
      <point x="474" y="841" type="curve" smooth="yes"/>
      <point x="474" y="887"/>
      <point x="512" y="925"/>
      <point x="559" y="925" type="curve" smooth="yes"/>
      <point x="607" y="925"/>
      <point x="645" y="888"/>
      <point x="645" y="842" type="curve" smooth="yes"/>
      <point x="645" y="796"/>
      <point x="607" y="758"/>
    </contour>
    <contour>
      <point x="336" y="758" type="curve" smooth="yes"/>
      <point x="289" y="758"/>
      <point x="251" y="795"/>
      <point x="251" y="841" type="curve" smooth="yes"/>
      <point x="251" y="887"/>
      <point x="289" y="925"/>
      <point x="336" y="925" type="curve" smooth="yes"/>
      <point x="384" y="925"/>
      <point x="422" y="888"/>
      <point x="422" y="842" type="curve" smooth="yes"/>
      <point x="422" y="796"/>
      <point x="384" y="758"/>
    </contour>
    <contour>
      <point x="406" y="549" type="line"/>
      <point x="284" y="274" type="line"/>
      <point x="441" y="274" type="line"/>
    </contour>
  </outline>
</glyph>
<glyph name="Aring" format="2">
  <advance width="738"/>
  <unicode hex="00C5"/>
  <outline>
    <contour>
      <point x="476" y="0" type="line"/>
      <point x="459" y="133" type="line"/>
      <point x="222" y="133" type="line"/>
      <point x="163" y="0" type="line"/>
      <point x="-33" y="0" type="line"/>
      <point x="309" y="715" type="line"/>
      <point x="574" y="715" type="line"/>
      <point x="688" y="0" type="line"/>
    </contour>
    <contour>
      <point x="446" y="744" type="curve" smooth="yes"/>
      <point x="381" y="744"/>
      <point x="327" y="796"/>
      <point x="327" y="860" type="curve" smooth="yes"/>
      <point x="327" y="924"/>
      <point x="382" y="976"/>
      <point x="448" y="976" type="curve" smooth="yes"/>
      <point x="513" y="976"/>
      <point x="567" y="925"/>
      <point x="567" y="861" type="curve" smooth="yes"/>
      <point x="567" y="797"/>
      <point x="512" y="744"/>
    </contour>
    <contour>
      <point x="406" y="549" type="line"/>
      <point x="284" y="274" type="line"/>
      <point x="441" y="274" type="line"/>
    </contour>
    <contour>
      <point x="446" y="810" type="curve" smooth="yes"/>
      <point x="473" y="810"/>
      <point x="493" y="831"/>
      <point x="493" y="861" type="curve" smooth="yes"/>
      <point x="493" y="891"/>
      <point x="475" y="911"/>
      <point x="448" y="911" type="curve" smooth="yes"/>
      <point x="420" y="911"/>
      <point x="401" y="890"/>
      <point x="401" y="860" type="curve" smooth="yes"/>
      <point x="401" y="830"/>
      <point x="419" y="810"/>
    </contour>
  </outline>
</glyph>
<glyph name="AE" format="2">
  <advance width="1002"/>
  <unicode hex="00C6"/>
  <outline>
    <contour>
      <point x="-31" y="0" type="line"/>
      <point x="394" y="715" type="line"/>
      <point x="1023" y="715" type="line"/>
      <point x="998" y="557" type="line"/>
      <point x="716" y="557" type="line"/>
      <point x="696" y="434" type="line"/>
      <point x="921" y="434" type="line"/>
      <point x="898" y="290" type="line"/>
      <point x="674" y="290" type="line"/>
      <point x="653" y="158" type="line"/>
      <point x="953" y="158" type="line"/>
      <point x="928" y="0" type="line"/>
      <point x="424" y="0" type="line"/>
      <point x="447" y="146" type="line"/>
      <point x="252" y="146" type="line"/>
      <point x="168" y="0" type="line"/>
    </contour>
    <contour>
      <point x="489" y="557" type="line"/>
      <point x="331" y="284" type="line"/>
      <point x="469" y="284" type="line"/>
      <point x="512" y="557" type="line"/>
    </contour>
  </outline>
</glyph>
<glyph name="Ccedilla" format="2">
  <advance width="762"/>
  <unicode hex="00C7"/>
  <outline>
    <contour>
      <point x="315" y="-226" type="curve" smooth="yes"/>
      <point x="251" y="-226"/>
      <point x="194" y="-198"/>
      <point x="189" y="-133" type="curve"/>
      <point x="274" y="-133" type="line"/>
      <point x="276" y="-147"/>
      <point x="285" y="-161"/>
      <point x="309" y="-161" type="curve" smooth="yes"/>
      <point x="324" y="-161"/>
      <point x="342" y="-152"/>
      <point x="342" y="-128" type="curve" smooth="yes"/>
      <point x="342" y="-109"/>
      <point x="330" y="-100"/>
      <point x="310" y="-100" type="curve" smooth="yes"/>
      <point x="296" y="-100"/>
      <point x="288" y="-105"/>
      <point x="281" y="-110" type="curve"/>
      <point x="247" y="-72" type="line"/>
      <point x="301" y="-4" type="line"/>
      <point x="143" y="24"/>
      <point x="44" y="127"/>
      <point x="44" y="303" type="curve" smooth="yes"/>
      <point x="44" y="547"/>
      <point x="196" y="726"/>
      <point x="444" y="726" type="curve" smooth="yes"/>
      <point x="630" y="726"/>
      <point x="751" y="635"/>
      <point x="758" y="451" type="curve"/>
      <point x="552" y="451" type="line"/>
      <point x="545" y="525"/>
      <point x="511" y="566"/>
      <point x="438" y="566" type="curve" smooth="yes"/>
      <point x="319" y="566"/>
      <point x="260" y="448"/>
      <point x="258" y="311" type="curve" smooth="yes"/>
      <point x="258" y="219"/>
      <point x="297" y="150"/>
      <point x="395" y="150" type="curve" smooth="yes"/>
      <point x="466" y="150"/>
      <point x="517" y="191"/>
      <point x="537" y="269" type="curve"/>
      <point x="740" y="269" type="line"/>
      <point x="711" y="83"/>
      <point x="567" y="-12"/>
      <point x="393" y="-12" type="curve" smooth="yes"/>
      <point x="366" y="-12" type="line"/>
      <point x="340" y="-45" type="line"/>
      <point x="393" y="-41"/>
      <point x="438" y="-70"/>
      <point x="438" y="-124" type="curve" smooth="yes"/>
      <point x="438" y="-193"/>
      <point x="383" y="-226"/>
    </contour>
  </outline>
</glyph>
<glyph name="Ecircumflex" format="2">
  <advance width="614"/>
  <unicode hex="00CA"/>
  <outline>
    <contour>
      <point x="199" y="759" type="line"/>
      <point x="330" y="905" type="line"/>
      <point x="480" y="905" type="line"/>
      <point x="573" y="759" type="line"/>
      <point x="448" y="759" type="line"/>
      <point x="395" y="808" type="line"/>
      <point x="331" y="759" type="line"/>
    </contour>
    <contour>
      <point x="27" y="0" type="line"/>
      <point x="140" y="715" type="line"/>
      <point x="633" y="715" type="line"/>
      <point x="608" y="557" type="line"/>
      <point x="319" y="557" type="line"/>
      <point x="300" y="434" type="line"/>
      <point x="530" y="434" type="line"/>
      <point x="508" y="290" type="line"/>
      <point x="277" y="290" type="line"/>
      <point x="256" y="158" type="line"/>
      <point x="562" y="158" type="line"/>
      <point x="537" y="0" type="line"/>
    </contour>
  </outline>
</glyph>
<glyph name="Edieresis" format="2">
  <advance width="614"/>
  <unicode hex="00CB"/>
  <outline>
    <contour>
      <point x="27" y="0" type="line"/>
      <point x="140" y="715" type="line"/>
      <point x="633" y="715" type="line"/>
      <point x="608" y="557" type="line"/>
      <point x="319" y="557" type="line"/>
      <point x="300" y="434" type="line"/>
      <point x="530" y="434" type="line"/>
      <point x="508" y="290" type="line"/>
      <point x="277" y="290" type="line"/>
      <point x="256" y="158" type="line"/>
      <point x="562" y="158" type="line"/>
      <point x="537" y="0" type="line"/>
    </contour>
    <contour>
      <point x="287" y="758" type="curve" smooth="yes"/>
      <point x="240" y="758"/>
      <point x="202" y="795"/>
      <point x="202" y="841" type="curve" smooth="yes"/>
      <point x="202" y="887"/>
      <point x="240" y="925"/>
      <point x="287" y="925" type="curve" smooth="yes"/>
      <point x="335" y="925"/>
      <point x="373" y="888"/>
      <point x="373" y="842" type="curve" smooth="yes"/>
      <point x="373" y="796"/>
      <point x="335" y="758"/>
    </contour>
    <contour>
      <point x="510" y="758" type="curve" smooth="yes"/>
      <point x="462" y="758"/>
      <point x="425" y="795"/>
      <point x="425" y="841" type="curve" smooth="yes"/>
      <point x="425" y="887"/>
      <point x="463" y="925"/>
      <point x="510" y="925" type="curve" smooth="yes"/>
      <point x="558" y="925"/>
      <point x="596" y="888"/>
      <point x="596" y="842" type="curve" smooth="yes"/>
      <point x="596" y="796"/>
      <point x="558" y="758"/>
    </contour>
  </outline>
</glyph>
<glyph name="Igrave" format="2">
  <advance width="353"/>
  <unicode hex="00CC"/>
  <outline>
    <contour>
      <point x="31" y="0" type="line"/>
      <point x="144" y="715" type="line"/>
      <point x="351" y="715" type="line"/>
      <point x="238" y="0" type="line"/>
    </contour>
    <contour>
      <point x="194" y="759" type="line"/>
      <point x="108" y="905" type="line"/>
      <point x="293" y="905" type="line"/>
      <point x="326" y="759" type="line"/>
    </contour>
  </outline>
</glyph>
<glyph name="Idieresis" format="2">
  <advance width="353"/>
  <unicode hex="00CF"/>
  <outline>
    <contour>
      <point x="31" y="0" type="line"/>
      <point x="144" y="715" type="line"/>
      <point x="351" y="715" type="line"/>
      <point x="238" y="0" type="line"/>
    </contour>
    <contour>
      <point x="153" y="758" type="curve" smooth="yes"/>
      <point x="106" y="758"/>
      <point x="68" y="795"/>
      <point x="68" y="841" type="curve" smooth="yes"/>
      <point x="68" y="887"/>
      <point x="106" y="925"/>
      <point x="153" y="925" type="curve" smooth="yes"/>
      <point x="201" y="925"/>
      <point x="239" y="888"/>
      <point x="239" y="842" type="curve" smooth="yes"/>
      <point x="239" y="796"/>
      <point x="201" y="758"/>
    </contour>
    <contour>
      <point x="376" y="758" type="curve" smooth="yes"/>
      <point x="328" y="758"/>
      <point x="291" y="795"/>
      <point x="291" y="841" type="curve" smooth="yes"/>
      <point x="291" y="887"/>
      <point x="329" y="925"/>
      <point x="376" y="925" type="curve" smooth="yes"/>
      <point x="424" y="925"/>
      <point x="462" y="888"/>
      <point x="462" y="842" type="curve" smooth="yes"/>
      <point x="462" y="796"/>
      <point x="424" y="758"/>
    </contour>
  </outline>
</glyph>
<glyph name="Ntilde" format="2">
  <advance width="777"/>
  <unicode hex="00D1"/>
  <outline>
    <contour>
      <point x="546" y="758" type="curve" smooth="yes"/>
      <point x="488" y="758"/>
      <point x="457" y="792"/>
      <point x="427" y="792" type="curve" smooth="yes"/>
      <point x="410" y="792"/>
      <point x="396" y="779"/>
      <point x="391" y="759" type="curve"/>
      <point x="290" y="759" type="line"/>
      <point x="307" y="865"/>
      <point x="362" y="912"/>
      <point x="424" y="912" type="curve" smooth="yes"/>
      <point x="479" y="912"/>
      <point x="512" y="879"/>
      <point x="545" y="879" type="curve" smooth="yes"/>
      <point x="563" y="879"/>
      <point x="575" y="891"/>
      <point x="581" y="911" type="curve"/>
      <point x="682" y="911" type="line"/>
      <point x="664" y="806"/>
      <point x="606" y="758"/>
    </contour>
    <contour>
      <point x="27" y="0" type="line"/>
      <point x="140" y="715" type="line"/>
      <point x="374" y="715" type="line"/>
      <point x="533" y="313" type="line"/>
      <point x="597" y="715" type="line"/>
      <point x="779" y="715" type="line"/>
      <point x="666" y="0" type="line"/>
      <point x="466" y="0" type="line"/>
      <point x="280" y="449" type="line"/>
      <point x="210" y="0" type="line"/>
    </contour>
  </outline>
</glyph>
<glyph name="Ocircumflex" format="2">
  <advance width="819"/>
  <unicode hex="00D4"/>
  <outline>
    <contour>
      <point x="276" y="759" type="line"/>
      <point x="407" y="905" type="line"/>
      <point x="557" y="905" type="line"/>
      <point x="650" y="759" type="line"/>
      <point x="525" y="759" type="line"/>
      <point x="472" y="808" type="line"/>
      <point x="408" y="759" type="line"/>
    </contour>
    <contour>
      <point x="804" y="409" type="curve" smooth="yes"/>
      <point x="804" y="160"/>
      <point x="636" y="-12"/>
      <point x="390" y="-12" type="curve" smooth="yes"/>
      <point x="200" y="-12"/>
      <point x="44" y="101"/>
      <point x="44" y="301" type="curve" smooth="yes"/>
      <point x="44" y="549"/>
      <point x="213" y="725"/>
      <point x="453" y="725" type="curve" smooth="yes"/>
      <point x="651" y="725"/>
      <point x="804" y="613"/>
    </contour>
    <contour>
      <point x="591" y="402" type="curve" smooth="yes"/>
      <point x="591" y="492"/>
      <point x="547" y="564"/>
      <point x="447" y="565" type="curve" smooth="yes"/>
      <point x="322" y="566"/>
      <point x="257" y="442"/>
      <point x="257" y="309" type="curve" smooth="yes"/>
      <point x="257" y="214"/>
      <point x="307" y="149"/>
      <point x="404" y="149" type="curve" smooth="yes"/>
      <point x="528" y="149"/>
      <point x="591" y="271"/>
    </contour>
  </outline>
</glyph>
<glyph name="Otilde" format="2">
  <advance width="819"/>
  <unicode hex="00D5"/>
  <outline>
    <contour>
      <point x="532" y="758" type="curve" smooth="yes"/>
      <point x="474" y="758"/>
      <point x="443" y="792"/>
      <point x="413" y="792" type="curve" smooth="yes"/>
      <point x="396" y="792"/>
      <point x="382" y="779"/>
      <point x="377" y="759" type="curve"/>
      <point x="276" y="759" type="line"/>
      <point x="293" y="865"/>
      <point x="348" y="912"/>
      <point x="410" y="912" type="curve" smooth="yes"/>
      <point x="465" y="912"/>
      <point x="498" y="879"/>
      <point x="531" y="879" type="curve" smooth="yes"/>
      <point x="549" y="879"/>
      <point x="561" y="891"/>
      <point x="567" y="911" type="curve"/>
      <point x="668" y="911" type="line"/>
      <point x="650" y="806"/>
      <point x="592" y="758"/>
    </contour>
    <contour>
      <point x="804" y="409" type="curve" smooth="yes"/>
      <point x="804" y="160"/>
      <point x="636" y="-12"/>
      <point x="390" y="-12" type="curve" smooth="yes"/>
      <point x="200" y="-12"/>
      <point x="44" y="101"/>
      <point x="44" y="301" type="curve" smooth="yes"/>
      <point x="44" y="549"/>
      <point x="213" y="725"/>
      <point x="453" y="725" type="curve" smooth="yes"/>
      <point x="651" y="725"/>
      <point x="804" y="613"/>
    </contour>
    <contour>
      <point x="591" y="402" type="curve" smooth="yes"/>
      <point x="591" y="492"/>
      <point x="547" y="564"/>
      <point x="447" y="565" type="curve" smooth="yes"/>
      <point x="322" y="566"/>
      <point x="257" y="442"/>
      <point x="257" y="309" type="curve" smooth="yes"/>
      <point x="257" y="214"/>
      <point x="307" y="149"/>
      <point x="404" y="149" type="curve" smooth="yes"/>
      <point x="528" y="149"/>
      <point x="591" y="271"/>
    </contour>
  </outline>
</glyph>
<glyph name="Odieresis" format="2">
  <advance width="819"/>
  <unicode hex="00D6"/>
  <outline>
    <contour>
      <point x="366" y="758" type="curve" smooth="yes"/>
      <point x="319" y="758"/>
      <point x="281" y="795"/>
      <point x="281" y="841" type="curve" smooth="yes"/>
      <point x="281" y="887"/>
      <point x="319" y="925"/>
      <point x="366" y="925" type="curve" smooth="yes"/>
      <point x="414" y="925"/>
      <point x="452" y="888"/>
      <point x="452" y="842" type="curve" smooth="yes"/>
      <point x="452" y="796"/>
      <point x="414" y="758"/>
    </contour>
    <contour>
      <point x="589" y="758" type="curve" smooth="yes"/>
      <point x="541" y="758"/>
      <point x="504" y="795"/>
      <point x="504" y="841" type="curve" smooth="yes"/>
      <point x="504" y="887"/>
      <point x="542" y="925"/>
      <point x="589" y="925" type="curve" smooth="yes"/>
      <point x="637" y="925"/>
      <point x="675" y="888"/>
      <point x="675" y="842" type="curve" smooth="yes"/>
      <point x="675" y="796"/>
      <point x="637" y="758"/>
    </contour>
    <contour>
      <point x="804" y="409" type="curve" smooth="yes"/>
      <point x="804" y="160"/>
      <point x="636" y="-12"/>
      <point x="390" y="-12" type="curve" smooth="yes"/>
      <point x="200" y="-12"/>
      <point x="44" y="101"/>
      <point x="44" y="301" type="curve" smooth="yes"/>
      <point x="44" y="549"/>
      <point x="213" y="725"/>
      <point x="453" y="725" type="curve" smooth="yes"/>
      <point x="651" y="725"/>
      <point x="804" y="613"/>
    </contour>
    <contour>
      <point x="591" y="402" type="curve" smooth="yes"/>
      <point x="591" y="492"/>
      <point x="547" y="564"/>
      <point x="447" y="565" type="curve" smooth="yes"/>
      <point x="322" y="566"/>
      <point x="257" y="442"/>
      <point x="257" y="309" type="curve" smooth="yes"/>
      <point x="257" y="214"/>
      <point x="307" y="149"/>
      <point x="404" y="149" type="curve" smooth="yes"/>
      <point x="528" y="149"/>
      <point x="591" y="271"/>
    </contour>
  </outline>
</glyph>
<glyph name="multiply" format="2">
  <advance width="571"/>
  <unicode hex="00D7"/>
  <outline>
    <contour>
      <point x="110" y="90" type="line"/>
      <point x="27" y="186" type="line"/>
      <point x="200" y="338" type="line"/>
      <point x="70" y="491" type="line"/>
      <point x="175" y="586" type="line"/>
      <point x="307" y="431" type="line"/>
      <point x="481" y="583" type="line"/>
      <point x="565" y="487" type="line"/>
      <point x="390" y="334" type="line"/>
      <point x="522" y="181" type="line"/>
      <point x="415" y="87" type="line"/>
      <point x="283" y="241" type="line"/>
    </contour>
  </outline>
</glyph>
<glyph name="Oslash" format="2">
  <advance width="819"/>
  <unicode hex="00D8"/>
  <outline>
    <contour>
      <point x="92" y="-32" type="line"/>
      <point x="35" y="26" type="line"/>
      <point x="112" y="104" type="line"/>
      <point x="69" y="155"/>
      <point x="44" y="221"/>
      <point x="44" y="301" type="curve" smooth="yes"/>
      <point x="44" y="549"/>
      <point x="213" y="725"/>
      <point x="453" y="725" type="curve" smooth="yes"/>
      <point x="534" y="725"/>
      <point x="608" y="705"/>
      <point x="667" y="668" type="curve"/>
      <point x="737" y="740" type="line"/>
      <point x="794" y="682" type="line"/>
      <point x="729" y="616" type="line"/>
      <point x="776" y="564"/>
      <point x="804" y="494"/>
      <point x="804" y="409" type="curve" smooth="yes"/>
      <point x="804" y="160"/>
      <point x="636" y="-12"/>
      <point x="390" y="-12" type="curve" smooth="yes"/>
      <point x="308" y="-12"/>
      <point x="232" y="9"/>
      <point x="172" y="50" type="curve"/>
    </contour>
    <contour>
      <point x="597" y="401" type="curve" smooth="yes"/>
      <point x="597" y="427"/>
      <point x="594" y="451"/>
      <point x="587" y="471" type="curve"/>
      <point x="302" y="181" type="line"/>
      <point x="327" y="160"/>
      <point x="361" y="149"/>
      <point x="404" y="149" type="curve" smooth="yes"/>
      <point x="529" y="149"/>
      <point x="597" y="265"/>
    </contour>
    <contour>
      <point x="252" y="310" type="curve" smooth="yes"/>
      <point x="252" y="289"/>
      <point x="254" y="270"/>
      <point x="258" y="253" type="curve"/>
      <point x="539" y="539" type="line"/>
      <point x="515" y="555"/>
      <point x="485" y="564"/>
      <point x="447" y="565" type="curve" smooth="yes"/>
      <point x="321" y="566"/>
      <point x="252" y="447"/>
    </contour>
  </outline>
</glyph>
<glyph name="Uacute" format="2">
  <advance width="764"/>
  <unicode hex="00DA"/>
  <outline>
    <contour>
      <point x="381" y="759" type="line"/>
      <point x="445" y="905" type="line"/>
      <point x="633" y="905" type="line"/>
      <point x="518" y="759" type="line"/>
    </contour>
    <contour>
      <point x="369" y="-12" type="curve" smooth="yes"/>
      <point x="152" y="-12"/>
      <point x="36" y="95"/>
      <point x="70" y="308" type="curve" smooth="yes"/>
      <point x="135" y="715" type="line"/>
      <point x="340" y="715" type="line"/>
      <point x="275" y="302" type="line" smooth="yes"/>
      <point x="258" y="198"/>
      <point x="287" y="149"/>
      <point x="372" y="149" type="curve" smooth="yes"/>
      <point x="453" y="149"/>
      <point x="482" y="195"/>
      <point x="497" y="289" type="curve" smooth="yes"/>
      <point x="564" y="715" type="line"/>
      <point x="771" y="715" type="line"/>
      <point x="701" y="271" type="line" smooth="yes"/>
      <point x="670" y="78"/>
      <point x="566" y="-12"/>
    </contour>
  </outline>
</glyph>
<glyph name="Ucircumflex" format="2">
  <advance width="764"/>
  <unicode hex="00DB"/>
  <outline>
    <contour>
      <point x="262" y="759" type="line"/>
      <point x="393" y="905" type="line"/>
      <point x="543" y="905" type="line"/>
      <point x="636" y="759" type="line"/>
      <point x="511" y="759" type="line"/>
      <point x="458" y="808" type="line"/>
      <point x="394" y="759" type="line"/>
    </contour>
    <contour>
      <point x="369" y="-12" type="curve" smooth="yes"/>
      <point x="152" y="-12"/>
      <point x="36" y="95"/>
      <point x="70" y="308" type="curve" smooth="yes"/>
      <point x="135" y="715" type="line"/>
      <point x="340" y="715" type="line"/>
      <point x="275" y="302" type="line" smooth="yes"/>
      <point x="258" y="198"/>
      <point x="287" y="149"/>
      <point x="372" y="149" type="curve" smooth="yes"/>
      <point x="453" y="149"/>
      <point x="482" y="195"/>
      <point x="497" y="289" type="curve" smooth="yes"/>
      <point x="564" y="715" type="line"/>
      <point x="771" y="715" type="line"/>
      <point x="701" y="271" type="line" smooth="yes"/>
      <point x="670" y="78"/>
      <point x="566" y="-12"/>
    </contour>
  </outline>
</glyph>
<glyph name="Udieresis" format="2">
  <advance width="764"/>
  <unicode hex="00DC"/>
  <outline>
    <contour>
      <point x="369" y="-12" type="curve" smooth="yes"/>
      <point x="152" y="-12"/>
      <point x="36" y="95"/>
      <point x="70" y="308" type="curve" smooth="yes"/>
      <point x="135" y="715" type="line"/>
      <point x="340" y="715" type="line"/>
      <point x="275" y="302" type="line" smooth="yes"/>
      <point x="258" y="198"/>
      <point x="287" y="149"/>
      <point x="372" y="149" type="curve" smooth="yes"/>
      <point x="453" y="149"/>
      <point x="482" y="195"/>
      <point x="497" y="289" type="curve" smooth="yes"/>
      <point x="564" y="715" type="line"/>
      <point x="771" y="715" type="line"/>
      <point x="701" y="271" type="line" smooth="yes"/>
      <point x="670" y="78"/>
      <point x="566" y="-12"/>
    </contour>
    <contour>
      <point x="349" y="758" type="curve" smooth="yes"/>
      <point x="302" y="758"/>
      <point x="264" y="795"/>
      <point x="264" y="841" type="curve" smooth="yes"/>
      <point x="264" y="887"/>
      <point x="302" y="925"/>
      <point x="349" y="925" type="curve" smooth="yes"/>
      <point x="397" y="925"/>
      <point x="435" y="888"/>
      <point x="435" y="842" type="curve" smooth="yes"/>
      <point x="435" y="796"/>
      <point x="397" y="758"/>
    </contour>
    <contour>
      <point x="572" y="758" type="curve" smooth="yes"/>
      <point x="524" y="758"/>
      <point x="487" y="795"/>
      <point x="487" y="841" type="curve" smooth="yes"/>
      <point x="487" y="887"/>
      <point x="525" y="925"/>
      <point x="572" y="925" type="curve" smooth="yes"/>
      <point x="620" y="925"/>
      <point x="658" y="888"/>
      <point x="658" y="842" type="curve" smooth="yes"/>
      <point x="658" y="796"/>
      <point x="620" y="758"/>
    </contour>
  </outline>
</glyph>
<glyph name="Thorn" format="2">
  <advance width="652"/>
  <unicode hex="00DE"/>
  <outline>
    <contour>
      <point x="344" y="715" type="line"/>
      <point x="325" y="597" type="line"/>
      <point x="381" y="597" type="line" smooth="yes"/>
      <point x="552" y="597"/>
      <point x="646" y="525"/>
      <point x="645" y="395" type="curve" smooth="yes"/>
      <point x="645" y="228"/>
      <point x="525" y="135"/>
      <point x="347" y="135" type="curve" smooth="yes"/>
      <point x="254" y="135" type="line"/>
      <point x="233" y="0" type="line"/>
      <point x="27" y="0" type="line"/>
      <point x="140" y="715" type="line"/>
    </contour>
    <contour>
      <point x="358" y="452" type="curve" smooth="yes"/>
      <point x="303" y="452" type="line"/>
      <point x="275" y="275" type="line"/>
      <point x="340" y="275" type="line" smooth="yes"/>
      <point x="410" y="275"/>
      <point x="450" y="312"/>
      <point x="450" y="380" type="curve" smooth="yes"/>
      <point x="450" y="427"/>
      <point x="421" y="452"/>
    </contour>
  </outline>
</glyph>
<glyph name="germandbls" format="2">
  <advance width="633"/>
  <unicode hex="00DF"/>
  <outline>
    <contour>
      <point x="351" y="-10" type="curve" smooth="yes"/>
      <point x="306" y="-10"/>
      <point x="270" y="-2"/>
      <point x="242" y="8" type="curve"/>
      <point x="264" y="140" type="line"/>
      <point x="279" y="132"/>
      <point x="298" y="127"/>
      <point x="320" y="127" type="curve" smooth="yes"/>
      <point x="396" y="127"/>
      <point x="427" y="181"/>
      <point x="427" y="258" type="curve" smooth="yes"/>
      <point x="427" y="331"/>
      <point x="382" y="369"/>
      <point x="306" y="367" type="curve"/>
      <point x="327" y="500" type="line"/>
      <point x="387" y="501"/>
      <point x="434" y="526"/>
      <point x="434" y="586" type="curve" smooth="yes"/>
      <point x="434" y="628"/>
      <point x="408" y="653"/>
      <point x="364" y="653" type="curve" smooth="yes"/>
      <point x="317" y="653"/>
      <point x="288" y="622"/>
      <point x="279" y="561" type="curve" smooth="yes"/>
      <point x="190" y="0" type="line"/>
      <point x="11" y="0" type="line"/>
      <point x="99" y="554" type="line" smooth="yes"/>
      <point x="123" y="708"/>
      <point x="229" y="771"/>
      <point x="370" y="771" type="curve" smooth="yes"/>
      <point x="505" y="771"/>
      <point x="602" y="712"/>
      <point x="602" y="594" type="curve" smooth="yes"/>
      <point x="602" y="513"/>
      <point x="546" y="459"/>
      <point x="464" y="436" type="curve"/>
      <point x="548" y="412"/>
      <point x="607" y="344"/>
      <point x="607" y="243" type="curve" smooth="yes"/>
      <point x="607" y="90"/>
      <point x="514" y="-10"/>
    </contour>
  </outline>
</glyph>
<glyph name="agrave" format="2">
  <advance width="578"/>
  <unicode hex="00E0"/>
  <outline>
    <contour>
      <point x="173" y="-12" type="curve" smooth="yes"/>
      <point x="78" y="-12"/>
      <point x="7" y="41"/>
      <point x="7" y="133" type="curve" smooth="yes"/>
      <point x="7" y="270"/>
      <point x="113" y="316"/>
      <point x="282" y="316" type="curve" smooth="yes"/>
      <point x="359" y="316" type="line"/>
      <point x="361" y="330" type="line" smooth="yes"/>
      <point x="369" y="379"/>
      <point x="358" y="411"/>
      <point x="301" y="411" type="curve" smooth="yes"/>
      <point x="253" y="411"/>
      <point x="233" y="383"/>
      <point x="225" y="349" type="curve"/>
      <point x="57" y="349" type="line"/>
      <point x="83" y="477"/>
      <point x="176" y="537"/>
      <point x="309" y="537" type="curve" smooth="yes"/>
      <point x="477" y="537"/>
      <point x="560" y="464"/>
      <point x="535" y="308" type="curve" smooth="yes"/>
      <point x="512" y="163" type="line" smooth="yes"/>
      <point x="501" y="95"/>
      <point x="498" y="44"/>
      <point x="504" y="0" type="curve"/>
      <point x="331" y="0" type="line"/>
      <point x="327" y="22"/>
      <point x="327" y="44"/>
      <point x="328" y="65" type="curve"/>
      <point x="296" y="23"/>
      <point x="250" y="-12"/>
    </contour>
    <contour>
      <point x="244" y="108" type="curve" smooth="yes"/>
      <point x="293" y="108"/>
      <point x="331" y="137"/>
      <point x="338" y="183" type="curve" smooth="yes"/>
      <point x="343" y="215" type="line"/>
      <point x="287" y="215" type="line" smooth="yes"/>
      <point x="215" y="215"/>
      <point x="185" y="200"/>
      <point x="185" y="157" type="curve" smooth="yes"/>
      <point x="185" y="130"/>
      <point x="205" y="108"/>
    </contour>
    <contour>
      <point x="260" y="583" type="line"/>
      <point x="167" y="749" type="line"/>
      <point x="345" y="749" type="line"/>
      <point x="385" y="583" type="line"/>
    </contour>
  </outline>
</glyph>
<glyph name="adieresis" format="2">
  <advance width="578"/>
  <unicode hex="00E4"/>
  <outline>
    <contour>
      <point x="173" y="-12" type="curve" smooth="yes"/>
      <point x="78" y="-12"/>
      <point x="7" y="41"/>
      <point x="7" y="133" type="curve" smooth="yes"/>
      <point x="7" y="270"/>
      <point x="113" y="316"/>
      <point x="282" y="316" type="curve" smooth="yes"/>
      <point x="359" y="316" type="line"/>
      <point x="361" y="330" type="line" smooth="yes"/>
      <point x="369" y="379"/>
      <point x="358" y="411"/>
      <point x="301" y="411" type="curve" smooth="yes"/>
      <point x="253" y="411"/>
      <point x="233" y="383"/>
      <point x="225" y="349" type="curve"/>
      <point x="57" y="349" type="line"/>
      <point x="83" y="477"/>
      <point x="176" y="537"/>
      <point x="309" y="537" type="curve" smooth="yes"/>
      <point x="477" y="537"/>
      <point x="560" y="464"/>
      <point x="535" y="308" type="curve" smooth="yes"/>
      <point x="512" y="163" type="line" smooth="yes"/>
      <point x="501" y="95"/>
      <point x="498" y="44"/>
      <point x="504" y="0" type="curve"/>
      <point x="331" y="0" type="line"/>
      <point x="327" y="22"/>
      <point x="327" y="44"/>
      <point x="328" y="65" type="curve"/>
      <point x="296" y="23"/>
      <point x="250" y="-12"/>
    </contour>
    <contour>
      <point x="244" y="108" type="curve" smooth="yes"/>
      <point x="293" y="108"/>
      <point x="331" y="137"/>
      <point x="338" y="183" type="curve" smooth="yes"/>
      <point x="343" y="215" type="line"/>
      <point x="287" y="215" type="line" smooth="yes"/>
      <point x="215" y="215"/>
      <point x="185" y="200"/>
      <point x="185" y="157" type="curve" smooth="yes"/>
      <point x="185" y="130"/>
      <point x="205" y="108"/>
    </contour>
    <contour>
      <point x="224" y="580" type="curve" smooth="yes"/>
      <point x="177" y="580"/>
      <point x="139" y="617"/>
      <point x="139" y="663" type="curve" smooth="yes"/>
      <point x="139" y="709"/>
      <point x="177" y="747"/>
      <point x="225" y="747" type="curve" smooth="yes"/>
      <point x="272" y="747"/>
      <point x="310" y="710"/>
      <point x="310" y="664" type="curve" smooth="yes"/>
      <point x="310" y="617"/>
      <point x="272" y="580"/>
    </contour>
    <contour>
      <point x="437" y="580" type="curve" smooth="yes"/>
      <point x="389" y="580"/>
      <point x="352" y="617"/>
      <point x="352" y="663" type="curve" smooth="yes"/>
      <point x="352" y="709"/>
      <point x="389" y="747"/>
      <point x="437" y="747" type="curve" smooth="yes"/>
      <point x="485" y="747"/>
      <point x="523" y="710"/>
      <point x="523" y="664" type="curve" smooth="yes"/>
      <point x="523" y="617"/>
      <point x="485" y="580"/>
    </contour>
  </outline>
</glyph>
<glyph name="ae" format="2">
  <advance width="906"/>
  <unicode hex="00E6"/>
  <outline>
    <contour>
      <point x="515" y="216" type="line" smooth="yes"/>
      <point x="515" y="156"/>
      <point x="539" y="111"/>
      <point x="611" y="111" type="curve" smooth="yes"/>
      <point x="663" y="111"/>
      <point x="689" y="135"/>
      <point x="701" y="173" type="curve"/>
      <point x="870" y="173" type="line"/>
      <point x="844" y="52"/>
      <point x="746" y="-12"/>
      <point x="606" y="-12" type="curve" smooth="yes"/>
      <point x="507" y="-12"/>
      <point x="433" y="20"/>
      <point x="393" y="85" type="curve"/>
      <point x="361" y="33"/>
      <point x="306" y="-12"/>
      <point x="197" y="-12" type="curve" smooth="yes"/>
      <point x="84" y="-12"/>
      <point x="7" y="42"/>
      <point x="7" y="137" type="curve" smooth="yes"/>
      <point x="7" y="273"/>
      <point x="117" y="319"/>
      <point x="285" y="319" type="curve" smooth="yes"/>
      <point x="360" y="319" type="line"/>
      <point x="362" y="332" type="line" smooth="yes"/>
      <point x="369" y="379"/>
      <point x="357" y="411"/>
      <point x="300" y="411" type="curve" smooth="yes"/>
      <point x="252" y="411"/>
      <point x="229" y="383"/>
      <point x="221" y="349" type="curve"/>
      <point x="53" y="349" type="line"/>
      <point x="77" y="479"/>
      <point x="181" y="537"/>
      <point x="308" y="537" type="curve" smooth="yes"/>
      <point x="388" y="537"/>
      <point x="441" y="517"/>
      <point x="472" y="477" type="curve"/>
      <point x="519" y="515"/>
      <point x="577" y="536"/>
      <point x="640" y="536" type="curve" smooth="yes"/>
      <point x="808" y="536"/>
      <point x="906" y="433"/>
      <point x="878" y="246" type="curve" smooth="yes"/>
      <point x="874" y="221" type="line"/>
      <point x="515" y="221" type="line"/>
    </contour>
    <contour>
      <point x="635" y="419" type="curve" smooth="yes"/>
      <point x="588" y="419"/>
      <point x="546" y="391"/>
      <point x="526" y="319" type="curve"/>
      <point x="711" y="319" type="line"/>
      <point x="715" y="377"/>
      <point x="695" y="419"/>
    </contour>
    <contour>
      <point x="244" y="108" type="curve" smooth="yes"/>
      <point x="293" y="108"/>
      <point x="331" y="135"/>
      <point x="339" y="187" type="curve" smooth="yes"/>
      <point x="344" y="218" type="line"/>
      <point x="286" y="218" type="line" smooth="yes"/>
      <point x="215" y="218"/>
      <point x="185" y="202"/>
      <point x="185" y="157" type="curve" smooth="yes"/>
      <point x="185" y="128"/>
      <point x="205" y="108"/>
    </contour>
  </outline>
</glyph>
<glyph name="ccedilla" format="2">
  <advance width="579"/>
  <unicode hex="00E7"/>
  <outline>
    <contour>
      <point x="226" y="-226" type="curve" smooth="yes"/>
      <point x="162" y="-226"/>
      <point x="105" y="-198"/>
      <point x="100" y="-133" type="curve"/>
      <point x="185" y="-133" type="line"/>
      <point x="187" y="-147"/>
      <point x="196" y="-161"/>
      <point x="220" y="-161" type="curve" smooth="yes"/>
      <point x="235" y="-161"/>
      <point x="253" y="-152"/>
      <point x="253" y="-128" type="curve" smooth="yes"/>
      <point x="253" y="-109"/>
      <point x="241" y="-100"/>
      <point x="221" y="-100" type="curve" smooth="yes"/>
      <point x="207" y="-100"/>
      <point x="199" y="-105"/>
      <point x="192" y="-110" type="curve"/>
      <point x="158" y="-72" type="line"/>
      <point x="213" y="-3" type="line"/>
      <point x="100" y="20"/>
      <point x="24" y="99"/>
      <point x="24" y="229" type="curve" smooth="yes"/>
      <point x="24" y="415"/>
      <point x="146" y="536"/>
      <point x="318" y="536" type="curve" smooth="yes"/>
      <point x="454" y="536"/>
      <point x="557" y="472"/>
      <point x="563" y="321" type="curve"/>
      <point x="395" y="321" type="line"/>
      <point x="389" y="376"/>
      <point x="363" y="397"/>
      <point x="314" y="397" type="curve" smooth="yes"/>
      <point x="238" y="397"/>
      <point x="203" y="319"/>
      <point x="203" y="227" type="curve" smooth="yes"/>
      <point x="203" y="160"/>
      <point x="230" y="119"/>
      <point x="296" y="119" type="curve" smooth="yes"/>
      <point x="345" y="119"/>
      <point x="382" y="148"/>
      <point x="392" y="205" type="curve"/>
      <point x="553" y="205" type="line"/>
      <point x="535" y="66"/>
      <point x="440" y="-11"/>
      <point x="290" y="-11" type="curve" smooth="yes"/>
      <point x="279" y="-11" type="line"/>
      <point x="251" y="-45" type="line"/>
      <point x="304" y="-41"/>
      <point x="349" y="-70"/>
      <point x="349" y="-124" type="curve" smooth="yes"/>
      <point x="349" y="-193"/>
      <point x="294" y="-226"/>
    </contour>
  </outline>
</glyph>
<glyph name="ecircumflex" format="2">
  <advance width="595"/>
  <unicode hex="00EA"/>
  <outline>
    <contour>
      <point x="199" y="216" type="line" smooth="yes"/>
      <point x="199" y="156"/>
      <point x="225" y="111"/>
      <point x="297" y="111" type="curve" smooth="yes"/>
      <point x="349" y="111"/>
      <point x="378" y="135"/>
      <point x="390" y="173" type="curve"/>
      <point x="559" y="173" type="line"/>
      <point x="533" y="52"/>
      <point x="432" y="-12"/>
      <point x="292" y="-12" type="curve" smooth="yes"/>
      <point x="141" y="-12"/>
      <point x="23" y="64"/>
      <point x="23" y="225" type="curve" smooth="yes"/>
      <point x="23" y="412"/>
      <point x="149" y="537"/>
      <point x="321" y="537" type="curve" smooth="yes"/>
      <point x="492" y="537"/>
      <point x="596" y="429"/>
      <point x="567" y="245" type="curve" smooth="yes"/>
      <point x="563" y="220" type="line"/>
      <point x="199" y="220" type="line"/>
    </contour>
    <contour>
      <point x="146" y="585" type="line"/>
      <point x="290" y="748" type="line"/>
      <point x="418" y="748" type="line"/>
      <point x="514" y="585" type="line"/>
      <point x="394" y="585" type="line"/>
      <point x="341" y="641" type="line"/>
      <point x="273" y="585" type="line"/>
    </contour>
    <contour>
      <point x="321" y="419" type="curve" smooth="yes"/>
      <point x="275" y="419"/>
      <point x="232" y="392"/>
      <point x="211" y="321" type="curve"/>
      <point x="399" y="321" type="line"/>
      <point x="404" y="380"/>
      <point x="384" y="419"/>
    </contour>
  </outline>
</glyph>
<glyph name="edieresis" format="2">
  <advance width="595"/>
  <unicode hex="00EB"/>
  <outline>
    <contour>
      <point x="199" y="216" type="line" smooth="yes"/>
      <point x="199" y="156"/>
      <point x="225" y="111"/>
      <point x="297" y="111" type="curve" smooth="yes"/>
      <point x="349" y="111"/>
      <point x="378" y="135"/>
      <point x="390" y="173" type="curve"/>
      <point x="559" y="173" type="line"/>
      <point x="533" y="52"/>
      <point x="432" y="-12"/>
      <point x="292" y="-12" type="curve" smooth="yes"/>
      <point x="141" y="-12"/>
      <point x="23" y="64"/>
      <point x="23" y="225" type="curve" smooth="yes"/>
      <point x="23" y="412"/>
      <point x="149" y="537"/>
      <point x="321" y="537" type="curve" smooth="yes"/>
      <point x="492" y="537"/>
      <point x="596" y="429"/>
      <point x="567" y="245" type="curve" smooth="yes"/>
      <point x="563" y="220" type="line"/>
      <point x="199" y="220" type="line"/>
    </contour>
    <contour>
      <point x="450" y="580" type="curve" smooth="yes"/>
      <point x="402" y="580"/>
      <point x="365" y="617"/>
      <point x="365" y="663" type="curve" smooth="yes"/>
      <point x="365" y="709"/>
      <point x="402" y="747"/>
      <point x="450" y="747" type="curve" smooth="yes"/>
      <point x="498" y="747"/>
      <point x="536" y="710"/>
      <point x="536" y="664" type="curve" smooth="yes"/>
      <point x="536" y="617"/>
      <point x="498" y="580"/>
    </contour>
    <contour>
      <point x="237" y="580" type="curve" smooth="yes"/>
      <point x="190" y="580"/>
      <point x="152" y="617"/>
      <point x="152" y="663" type="curve" smooth="yes"/>
      <point x="152" y="709"/>
      <point x="190" y="747"/>
      <point x="238" y="747" type="curve" smooth="yes"/>
      <point x="285" y="747"/>
      <point x="323" y="710"/>
      <point x="323" y="664" type="curve" smooth="yes"/>
      <point x="323" y="617"/>
      <point x="285" y="580"/>
    </contour>
    <contour>
      <point x="321" y="419" type="curve" smooth="yes"/>
      <point x="275" y="419"/>
      <point x="232" y="392"/>
      <point x="211" y="321" type="curve"/>
      <point x="399" y="321" type="line"/>
      <point x="404" y="380"/>
      <point x="384" y="419"/>
    </contour>
  </outline>
</glyph>
<glyph name="igrave" format="2">
  <advance width="295"/>
  <unicode hex="00EC"/>
  <outline>
    <contour>
      <point x="16" y="0" type="line"/>
      <point x="99" y="523" type="line"/>
      <point x="277" y="523" type="line"/>
      <point x="195" y="0" type="line"/>
    </contour>
    <contour>
      <point x="140" y="583" type="line"/>
      <point x="47" y="749" type="line"/>
      <point x="225" y="749" type="line"/>
      <point x="265" y="583" type="line"/>
    </contour>
  </outline>
</glyph>
<glyph name="iacute" format="2">
  <advance width="295"/>
  <unicode hex="00ED"/>
  <outline>
    <contour>
      <point x="125" y="583" type="line"/>
      <point x="198" y="749" type="line"/>
      <point x="380" y="749" type="line"/>
      <point x="255" y="583" type="line"/>
    </contour>
    <contour>
      <point x="16" y="0" type="line"/>
      <point x="99" y="523" type="line"/>
      <point x="277" y="523" type="line"/>
      <point x="195" y="0" type="line"/>
    </contour>
  </outline>
</glyph>
<glyph name="icircumflex" format="2">
  <advance width="295"/>
  <unicode hex="00EE"/>
  <outline>
    <contour>
      <point x="12" y="585" type="line"/>
      <point x="156" y="748" type="line"/>
      <point x="284" y="748" type="line"/>
      <point x="380" y="585" type="line"/>
      <point x="260" y="585" type="line"/>
      <point x="207" y="641" type="line"/>
      <point x="139" y="585" type="line"/>
    </contour>
    <contour>
      <point x="16" y="0" type="line"/>
      <point x="99" y="523" type="line"/>
      <point x="277" y="523" type="line"/>
      <point x="195" y="0" type="line"/>
    </contour>
  </outline>
</glyph>
<glyph name="idieresis" format="2">
  <advance width="295"/>
  <unicode hex="00EF"/>
  <outline>
    <contour>
      <point x="107" y="580" type="curve" smooth="yes"/>
      <point x="60" y="580"/>
      <point x="22" y="617"/>
      <point x="22" y="663" type="curve" smooth="yes"/>
      <point x="22" y="709"/>
      <point x="60" y="747"/>
      <point x="107" y="747" type="curve" smooth="yes"/>
      <point x="155" y="747"/>
      <point x="193" y="710"/>
      <point x="193" y="664" type="curve" smooth="yes"/>
      <point x="193" y="617"/>
      <point x="154" y="580"/>
    </contour>
    <contour>
      <point x="316" y="580" type="curve" smooth="yes"/>
      <point x="269" y="580"/>
      <point x="231" y="617"/>
      <point x="231" y="663" type="curve" smooth="yes"/>
      <point x="231" y="709"/>
      <point x="269" y="747"/>
      <point x="316" y="747" type="curve" smooth="yes"/>
      <point x="364" y="747"/>
      <point x="402" y="710"/>
      <point x="402" y="664" type="curve" smooth="yes"/>
      <point x="402" y="617"/>
      <point x="364" y="580"/>
    </contour>
    <contour>
      <point x="16" y="0" type="line"/>
      <point x="99" y="523" type="line"/>
      <point x="277" y="523" type="line"/>
      <point x="195" y="0" type="line"/>
    </contour>
  </outline>
</glyph>
<glyph name="eth" format="2">
  <advance width="620"/>
  <unicode hex="00F0"/>
  <outline>
    <contour>
      <point x="169" y="556" type="line"/>
      <point x="148" y="619" type="line"/>
      <point x="266" y="660" type="line"/>
      <point x="229" y="694"/>
      <point x="190" y="725"/>
      <point x="153" y="753" type="curve"/>
      <point x="364" y="753" type="line"/>
      <point x="381" y="742"/>
      <point x="400" y="729"/>
      <point x="418" y="714" type="curve"/>
      <point x="529" y="753" type="line"/>
      <point x="550" y="689" type="line"/>
      <point x="471" y="661" type="line"/>
      <point x="540" y="584"/>
      <point x="596" y="473"/>
      <point x="596" y="339" type="curve" smooth="yes"/>
      <point x="596" y="144"/>
      <point x="497" y="-12"/>
      <point x="290" y="-12" type="curve" smooth="yes"/>
      <point x="138" y="-12"/>
      <point x="23" y="70"/>
      <point x="23" y="232" type="curve" smooth="yes"/>
      <point x="23" y="391"/>
      <point x="122" y="529"/>
      <point x="282" y="529" type="curve" smooth="yes"/>
      <point x="332" y="529"/>
      <point x="367" y="516"/>
      <point x="399" y="481" type="curve"/>
      <point x="378" y="529"/>
      <point x="350" y="570"/>
      <point x="317" y="608" type="curve"/>
    </contour>
    <contour>
      <point x="203" y="223" type="curve" smooth="yes"/>
      <point x="203" y="167"/>
      <point x="227" y="121"/>
      <point x="294" y="121" type="curve" smooth="yes"/>
      <point x="378" y="121"/>
      <point x="414" y="215"/>
      <point x="414" y="302" type="curve" smooth="yes"/>
      <point x="414" y="357"/>
      <point x="388" y="403"/>
      <point x="322" y="403" type="curve" smooth="yes"/>
      <point x="241" y="403"/>
      <point x="203" y="320"/>
    </contour>
  </outline>
</glyph>
<glyph name="ocircumflex" format="2">
  <advance width="615"/>
  <unicode hex="00F4"/>
  <outline>
    <contour>
      <point x="151" y="585" type="line"/>
      <point x="295" y="748" type="line"/>
      <point x="423" y="748" type="line"/>
      <point x="519" y="585" type="line"/>
      <point x="399" y="585" type="line"/>
      <point x="346" y="641" type="line"/>
      <point x="278" y="585" type="line"/>
    </contour>
    <contour>
      <point x="290" y="-12" type="curve" smooth="yes"/>
      <point x="148" y="-12"/>
      <point x="25" y="66"/>
      <point x="24" y="227" type="curve" smooth="yes"/>
      <point x="23" y="405"/>
      <point x="148" y="536"/>
      <point x="326" y="536" type="curve" smooth="yes"/>
      <point x="468" y="536"/>
      <point x="592" y="458"/>
      <point x="592" y="295" type="curve" smooth="yes"/>
      <point x="592" y="114"/>
      <point x="469" y="-12"/>
    </contour>
    <contour>
      <point x="293" y="121" type="curve" smooth="yes"/>
      <point x="373" y="121"/>
      <point x="412" y="199"/>
      <point x="412" y="302" type="curve" smooth="yes"/>
      <point x="412" y="359"/>
      <point x="384" y="403"/>
      <point x="323" y="403" type="curve" smooth="yes"/>
      <point x="245" y="403"/>
      <point x="203" y="327"/>
      <point x="203" y="225" type="curve" smooth="yes"/>
      <point x="203" y="171"/>
      <point x="225" y="121"/>
    </contour>
  </outline>
</glyph>
<glyph name="otilde" format="2">
  <advance width="615"/>
  <unicode hex="00F5"/>
  <outline>
    <contour>
      <point x="290" y="-12" type="curve" smooth="yes"/>
      <point x="148" y="-12"/>
      <point x="25" y="66"/>
      <point x="24" y="227" type="curve" smooth="yes"/>
      <point x="23" y="405"/>
      <point x="148" y="536"/>
      <point x="326" y="536" type="curve" smooth="yes"/>
      <point x="468" y="536"/>
      <point x="592" y="458"/>
      <point x="592" y="295" type="curve" smooth="yes"/>
      <point x="592" y="114"/>
      <point x="469" y="-12"/>
    </contour>
    <contour>
      <point x="293" y="121" type="curve" smooth="yes"/>
      <point x="373" y="121"/>
      <point x="412" y="199"/>
      <point x="412" y="302" type="curve" smooth="yes"/>
      <point x="412" y="359"/>
      <point x="384" y="403"/>
      <point x="323" y="403" type="curve" smooth="yes"/>
      <point x="245" y="403"/>
      <point x="203" y="327"/>
      <point x="203" y="225" type="curve" smooth="yes"/>
      <point x="203" y="171"/>
      <point x="225" y="121"/>
    </contour>
    <contour>
      <point x="408" y="587" type="curve" smooth="yes"/>
      <point x="350" y="587"/>
      <point x="321" y="620"/>
      <point x="291" y="620" type="curve" smooth="yes"/>
      <point x="274" y="620"/>
      <point x="261" y="607"/>
      <point x="256" y="588" type="curve"/>
      <point x="159" y="588" type="line"/>
      <point x="176" y="693"/>
      <point x="225" y="744"/>
      <point x="287" y="744" type="curve" smooth="yes"/>
      <point x="342" y="744"/>
      <point x="373" y="710"/>
      <point x="406" y="710" type="curve" smooth="yes"/>
      <point x="424" y="710"/>
      <point x="435" y="722"/>
      <point x="441" y="742" type="curve"/>
      <point x="538" y="742" type="line"/>
      <point x="520" y="637"/>
      <point x="468" y="587"/>
    </contour>
  </outline>
</glyph>
<glyph name="odieresis" format="2">
  <advance width="615"/>
  <unicode hex="00F6"/>
  <outline>
    <contour>
      <point x="243" y="580" type="curve" smooth="yes"/>
      <point x="196" y="580"/>
      <point x="158" y="617"/>
      <point x="158" y="663" type="curve" smooth="yes"/>
      <point x="158" y="709"/>
      <point x="196" y="747"/>
      <point x="244" y="747" type="curve" smooth="yes"/>
      <point x="291" y="747"/>
      <point x="329" y="710"/>
      <point x="329" y="664" type="curve" smooth="yes"/>
      <point x="329" y="617"/>
      <point x="291" y="580"/>
    </contour>
    <contour>
      <point x="456" y="580" type="curve" smooth="yes"/>
      <point x="408" y="580"/>
      <point x="371" y="617"/>
      <point x="371" y="663" type="curve" smooth="yes"/>
      <point x="371" y="709"/>
      <point x="408" y="747"/>
      <point x="456" y="747" type="curve" smooth="yes"/>
      <point x="504" y="747"/>
      <point x="542" y="710"/>
      <point x="542" y="664" type="curve" smooth="yes"/>
      <point x="542" y="617"/>
      <point x="504" y="580"/>
    </contour>
    <contour>
      <point x="290" y="-12" type="curve" smooth="yes"/>
      <point x="148" y="-12"/>
      <point x="25" y="66"/>
      <point x="24" y="227" type="curve" smooth="yes"/>
      <point x="23" y="405"/>
      <point x="148" y="536"/>
      <point x="326" y="536" type="curve" smooth="yes"/>
      <point x="468" y="536"/>
      <point x="592" y="458"/>
      <point x="592" y="295" type="curve" smooth="yes"/>
      <point x="592" y="114"/>
      <point x="469" y="-12"/>
    </contour>
    <contour>
      <point x="293" y="121" type="curve" smooth="yes"/>
      <point x="373" y="121"/>
      <point x="412" y="199"/>
      <point x="412" y="302" type="curve" smooth="yes"/>
      <point x="412" y="359"/>
      <point x="384" y="403"/>
      <point x="323" y="403" type="curve" smooth="yes"/>
      <point x="245" y="403"/>
      <point x="203" y="327"/>
      <point x="203" y="225" type="curve" smooth="yes"/>
      <point x="203" y="171"/>
      <point x="225" y="121"/>
    </contour>
  </outline>
</glyph>
<glyph name="divide" format="2">
  <advance width="572"/>
  <unicode hex="00F7"/>
  <outline>
    <contour>
      <point x="39" y="278" type="line"/>
      <point x="58" y="402" type="line"/>
      <point x="556" y="402" type="line"/>
      <point x="537" y="278" type="line"/>
    </contour>
    <contour>
      <point x="273" y="43" type="curve" smooth="yes"/>
      <point x="219" y="43"/>
      <point x="179" y="83"/>
      <point x="179" y="135" type="curve" smooth="yes"/>
      <point x="179" y="186"/>
      <point x="219" y="228"/>
      <point x="272" y="228" type="curve" smooth="yes"/>
      <point x="327" y="228"/>
      <point x="368" y="186"/>
      <point x="368" y="135" type="curve" smooth="yes"/>
      <point x="368" y="83"/>
      <point x="328" y="43"/>
    </contour>
    <contour>
      <point x="321" y="452" type="curve" smooth="yes"/>
      <point x="267" y="452"/>
      <point x="227" y="493"/>
      <point x="227" y="545" type="curve" smooth="yes"/>
      <point x="227" y="596"/>
      <point x="267" y="637"/>
      <point x="320" y="637" type="curve" smooth="yes"/>
      <point x="375" y="637"/>
      <point x="416" y="596"/>
      <point x="416" y="545" type="curve" smooth="yes"/>
      <point x="416" y="493"/>
      <point x="376" y="452"/>
    </contour>
  </outline>
</glyph>
<glyph name="udieresis" format="2">
  <advance width="621"/>
  <unicode hex="00FC"/>
  <outline>
    <contour>
      <point x="251" y="580" type="curve" smooth="yes"/>
      <point x="204" y="580"/>
      <point x="166" y="617"/>
      <point x="166" y="663" type="curve" smooth="yes"/>
      <point x="166" y="709"/>
      <point x="204" y="747"/>
      <point x="252" y="747" type="curve" smooth="yes"/>
      <point x="299" y="747"/>
      <point x="337" y="710"/>
      <point x="337" y="664" type="curve" smooth="yes"/>
      <point x="337" y="617"/>
      <point x="299" y="580"/>
    </contour>
    <contour>
      <point x="464" y="580" type="curve" smooth="yes"/>
      <point x="416" y="580"/>
      <point x="379" y="617"/>
      <point x="379" y="663" type="curve" smooth="yes"/>
      <point x="379" y="709"/>
      <point x="416" y="747"/>
      <point x="464" y="747" type="curve" smooth="yes"/>
      <point x="512" y="747"/>
      <point x="550" y="710"/>
      <point x="550" y="664" type="curve" smooth="yes"/>
      <point x="550" y="617"/>
      <point x="512" y="580"/>
    </contour>
    <contour>
      <point x="606" y="523" type="line"/>
      <point x="550" y="163" type="line" smooth="yes"/>
      <point x="539" y="94"/>
      <point x="535" y="44"/>
      <point x="537" y="0" type="curve"/>
      <point x="362" y="0" type="line"/>
      <point x="360" y="24"/>
      <point x="360" y="49"/>
      <point x="363" y="79" type="curve"/>
      <point x="324" y="26"/>
      <point x="276" y="-12"/>
      <point x="197" y="-12" type="curve" smooth="yes"/>
      <point x="87" y="-12"/>
      <point x="14" y="52"/>
      <point x="39" y="208" type="curve" smooth="yes"/>
      <point x="89" y="523" type="line"/>
      <point x="268" y="523" type="line"/>
      <point x="219" y="211" type="line" smooth="yes"/>
      <point x="210" y="153"/>
      <point x="229" y="121"/>
      <point x="276" y="121" type="curve" smooth="yes"/>
      <point x="332" y="121"/>
      <point x="369" y="156"/>
      <point x="380" y="225" type="curve" smooth="yes"/>
      <point x="427" y="523" type="line"/>
    </contour>
  </outline>
</glyph>
<glyph name="yacute" format="2">
  <advance width="577"/>
  <unicode hex="00FD"/>
  <outline>
    <contour>
      <point x="46" y="-175" type="line"/>
      <point x="173" y="59" type="line"/>
      <point x="46" y="523" type="line"/>
      <point x="232" y="523" type="line"/>
      <point x="292" y="242" type="line"/>
      <point x="433" y="523" type="line"/>
      <point x="611" y="523" type="line"/>
      <point x="225" y="-175" type="line"/>
    </contour>
    <contour>
      <point x="271" y="583" type="line"/>
      <point x="344" y="749" type="line"/>
      <point x="526" y="749" type="line"/>
      <point x="401" y="583" type="line"/>
    </contour>
  </outline>
</glyph>
<glyph name="thorn" format="2">
  <advance width="644"/>
  <unicode hex="00FE"/>
  <outline>
    <contour>
      <point x="-17" y="-175" type="line"/>
      <point x="130" y="753" type="line"/>
      <point x="309" y="753" type="line"/>
      <point x="260" y="440" type="line"/>
      <point x="294" y="498"/>
      <point x="354" y="537"/>
      <point x="435" y="537" type="curve" smooth="yes"/>
      <point x="538" y="537"/>
      <point x="620" y="459"/>
      <point x="620" y="311" type="curve" smooth="yes"/>
      <point x="620" y="110"/>
      <point x="514" y="-12"/>
      <point x="367" y="-12" type="curve" smooth="yes"/>
      <point x="284" y="-12"/>
      <point x="223" y="30"/>
      <point x="204" y="87" type="curve"/>
      <point x="162" y="-175" type="line"/>
    </contour>
    <contour>
      <point x="317" y="123" type="curve" smooth="yes"/>
      <point x="388" y="123"/>
      <point x="435" y="194"/>
      <point x="435" y="298" type="curve" smooth="yes"/>
      <point x="435" y="366"/>
      <point x="405" y="404"/>
      <point x="349" y="404" type="curve" smooth="yes"/>
      <point x="277" y="404"/>
      <point x="224" y="331"/>
      <point x="224" y="229" type="curve" smooth="yes"/>
      <point x="224" y="161"/>
      <point x="257" y="123"/>
    </contour>
  </outline>
</glyph>
<glyph name="ydieresis" format="2">
  <advance width="577"/>
  <unicode hex="00FF"/>
  <outline>
    <contour>
      <point x="46" y="-175" type="line"/>
      <point x="173" y="59" type="line"/>
      <point x="46" y="523" type="line"/>
      <point x="232" y="523" type="line"/>
      <point x="292" y="242" type="line"/>
      <point x="433" y="523" type="line"/>
      <point x="611" y="523" type="line"/>
      <point x="225" y="-175" type="line"/>
    </contour>
    <contour>
      <point x="243" y="580" type="curve" smooth="yes"/>
      <point x="196" y="580"/>
      <point x="158" y="617"/>
      <point x="158" y="663" type="curve" smooth="yes"/>
      <point x="158" y="709"/>
      <point x="196" y="747"/>
      <point x="244" y="747" type="curve" smooth="yes"/>
      <point x="291" y="747"/>
      <point x="329" y="710"/>
      <point x="329" y="664" type="curve" smooth="yes"/>
      <point x="329" y="617"/>
      <point x="291" y="580"/>
    </contour>
    <contour>
      <point x="456" y="580" type="curve" smooth="yes"/>
      <point x="408" y="580"/>
      <point x="371" y="617"/>
      <point x="371" y="663" type="curve" smooth="yes"/>
      <point x="371" y="709"/>
      <point x="408" y="747"/>
      <point x="456" y="747" type="curve" smooth="yes"/>
      <point x="504" y="747"/>
      <point x="542" y="710"/>
      <point x="542" y="664" type="curve" smooth="yes"/>
      <point x="542" y="617"/>
      <point x="504" y="580"/>
    </contour>
  </outline>
</glyph>
<glyph name="Amacron" format="2">
  <advance width="738"/>
  <unicode hex="0100"/>
  <outline>
    <contour>
      <point x="476" y="0" type="line"/>
      <point x="459" y="133" type="line"/>
      <point x="222" y="133" type="line"/>
      <point x="163" y="0" type="line"/>
      <point x="-33" y="0" type="line"/>
      <point x="309" y="715" type="line"/>
      <point x="574" y="715" type="line"/>
      <point x="688" y="0" type="line"/>
    </contour>
    <contour>
      <point x="285" y="771" type="line"/>
      <point x="301" y="878" type="line"/>
      <point x="623" y="878" type="line"/>
      <point x="607" y="771" type="line"/>
    </contour>
    <contour>
      <point x="406" y="549" type="line"/>
      <point x="284" y="274" type="line"/>
      <point x="441" y="274" type="line"/>
    </contour>
  </outline>
</glyph>
<glyph name="Abreve" format="2">
  <advance width="738"/>
  <unicode hex="0102"/>
  <outline>
    <contour>
      <point x="476" y="0" type="line"/>
      <point x="459" y="133" type="line"/>
      <point x="222" y="133" type="line"/>
      <point x="163" y="0" type="line"/>
      <point x="-33" y="0" type="line"/>
      <point x="309" y="715" type="line"/>
      <point x="574" y="715" type="line"/>
      <point x="688" y="0" type="line"/>
    </contour>
    <contour>
      <point x="451" y="752" type="curve" smooth="yes"/>
      <point x="347" y="752"/>
      <point x="290" y="811"/>
      <point x="289" y="905" type="curve"/>
      <point x="404" y="905" type="line"/>
      <point x="406" y="877"/>
      <point x="422" y="859"/>
      <point x="452" y="859" type="curve" smooth="yes"/>
      <point x="481" y="859"/>
      <point x="500" y="875"/>
      <point x="505" y="905" type="curve"/>
      <point x="620" y="905" type="line"/>
      <point x="606" y="808"/>
      <point x="540" y="752"/>
    </contour>
    <contour>
      <point x="406" y="549" type="line"/>
      <point x="284" y="274" type="line"/>
      <point x="441" y="274" type="line"/>
    </contour>
  </outline>
</glyph>
<glyph name="Aogonek" format="2">
  <advance width="738"/>
  <unicode hex="0104"/>
  <outline>
    <contour>
      <point x="476" y="0" type="line"/>
      <point x="459" y="133" type="line"/>
      <point x="222" y="133" type="line"/>
      <point x="163" y="0" type="line"/>
      <point x="-33" y="0" type="line"/>
      <point x="309" y="715" type="line"/>
      <point x="574" y="715" type="line"/>
      <point x="686" y="9" type="line"/>
      <point x="651" y="-14"/>
      <point x="621" y="-38"/>
      <point x="621" y="-67" type="curve" smooth="yes"/>
      <point x="621" y="-84"/>
      <point x="632" y="-91"/>
      <point x="650" y="-91" type="curve" smooth="yes"/>
      <point x="660" y="-91"/>
      <point x="670" y="-89"/>
      <point x="678" y="-86" type="curve"/>
      <point x="665" y="-168" type="line"/>
      <point x="649" y="-175"/>
      <point x="625" y="-182"/>
      <point x="588" y="-182" type="curve" smooth="yes"/>
      <point x="531" y="-182"/>
      <point x="475" y="-163"/>
      <point x="475" y="-103" type="curve" smooth="yes"/>
      <point x="475" y="-50"/>
      <point x="528" y="-16"/>
      <point x="571" y="0" type="curve"/>
    </contour>
    <contour>
      <point x="406" y="549" type="line"/>
      <point x="284" y="274" type="line"/>
      <point x="441" y="274" type="line"/>
    </contour>
  </outline>
</glyph>
<glyph name="aogonek" format="2">
  <advance width="578"/>
  <unicode hex="0105"/>
  <outline>
    <contour>
      <point x="417" y="-182" type="curve" smooth="yes"/>
      <point x="359" y="-182"/>
      <point x="304" y="-163"/>
      <point x="304" y="-103" type="curve" smooth="yes"/>
      <point x="304" y="-50"/>
      <point x="356" y="-16"/>
      <point x="399" y="0" type="curve"/>
      <point x="331" y="0" type="line"/>
      <point x="327" y="22"/>
      <point x="327" y="44"/>
      <point x="328" y="65" type="curve"/>
      <point x="296" y="23"/>
      <point x="250" y="-12"/>
      <point x="173" y="-12" type="curve" smooth="yes"/>
      <point x="78" y="-12"/>
      <point x="7" y="41"/>
      <point x="7" y="133" type="curve" smooth="yes"/>
      <point x="7" y="270"/>
      <point x="113" y="316"/>
      <point x="282" y="316" type="curve" smooth="yes"/>
      <point x="359" y="316" type="line"/>
      <point x="361" y="330" type="line" smooth="yes"/>
      <point x="369" y="379"/>
      <point x="358" y="411"/>
      <point x="301" y="411" type="curve" smooth="yes"/>
      <point x="253" y="411"/>
      <point x="233" y="383"/>
      <point x="225" y="349" type="curve"/>
      <point x="57" y="349" type="line"/>
      <point x="83" y="477"/>
      <point x="176" y="537"/>
      <point x="309" y="537" type="curve" smooth="yes"/>
      <point x="477" y="537"/>
      <point x="560" y="464"/>
      <point x="535" y="308" type="curve" smooth="yes"/>
      <point x="512" y="163" type="line" smooth="yes"/>
      <point x="501" y="97"/>
      <point x="498" y="49"/>
      <point x="503" y="5" type="curve"/>
      <point x="479" y="-14"/>
      <point x="450" y="-38"/>
      <point x="450" y="-67" type="curve" smooth="yes"/>
      <point x="450" y="-84"/>
      <point x="460" y="-91"/>
      <point x="479" y="-91" type="curve" smooth="yes"/>
      <point x="489" y="-91"/>
      <point x="499" y="-89"/>
      <point x="507" y="-86" type="curve"/>
      <point x="494" y="-168" type="line"/>
      <point x="478" y="-175"/>
      <point x="453" y="-182"/>
    </contour>
    <contour>
      <point x="244" y="108" type="curve" smooth="yes"/>
      <point x="293" y="108"/>
      <point x="331" y="137"/>
      <point x="338" y="183" type="curve" smooth="yes"/>
      <point x="343" y="215" type="line"/>
      <point x="287" y="215" type="line" smooth="yes"/>
      <point x="215" y="215"/>
      <point x="185" y="200"/>
      <point x="185" y="157" type="curve" smooth="yes"/>
      <point x="185" y="130"/>
      <point x="205" y="108"/>
    </contour>
  </outline>
</glyph>
<glyph name="cacute" format="2">
  <advance width="579"/>
  <unicode hex="0107"/>
  <outline>
    <contour>
      <point x="254" y="583" type="line"/>
      <point x="327" y="749" type="line"/>
      <point x="509" y="749" type="line"/>
      <point x="384" y="583" type="line"/>
    </contour>
    <contour>
      <point x="290" y="-11" type="curve" smooth="yes"/>
      <point x="136" y="-11"/>
      <point x="24" y="72"/>
      <point x="24" y="229" type="curve" smooth="yes"/>
      <point x="24" y="415"/>
      <point x="146" y="536"/>
      <point x="318" y="536" type="curve" smooth="yes"/>
      <point x="454" y="536"/>
      <point x="557" y="472"/>
      <point x="563" y="321" type="curve"/>
      <point x="395" y="321" type="line"/>
      <point x="389" y="376"/>
      <point x="363" y="397"/>
      <point x="314" y="397" type="curve" smooth="yes"/>
      <point x="238" y="397"/>
      <point x="203" y="319"/>
      <point x="203" y="227" type="curve" smooth="yes"/>
      <point x="203" y="160"/>
      <point x="230" y="119"/>
      <point x="296" y="119" type="curve" smooth="yes"/>
      <point x="345" y="119"/>
      <point x="382" y="148"/>
      <point x="392" y="205" type="curve"/>
      <point x="553" y="205" type="line"/>
      <point x="535" y="66"/>
      <point x="440" y="-11"/>
    </contour>
  </outline>
</glyph>
<glyph name="Ccircumflex" format="2">
  <advance width="762"/>
  <unicode hex="0108"/>
  <outline>
    <contour>
      <point x="263" y="759" type="line"/>
      <point x="394" y="905" type="line"/>
      <point x="544" y="905" type="line"/>
      <point x="637" y="759" type="line"/>
      <point x="512" y="759" type="line"/>
      <point x="459" y="808" type="line"/>
      <point x="395" y="759" type="line"/>
    </contour>
    <contour>
      <point x="393" y="-12" type="curve" smooth="yes"/>
      <point x="182" y="-12"/>
      <point x="44" y="96"/>
      <point x="44" y="303" type="curve" smooth="yes"/>
      <point x="44" y="547"/>
      <point x="196" y="726"/>
      <point x="444" y="726" type="curve" smooth="yes"/>
      <point x="630" y="726"/>
      <point x="751" y="635"/>
      <point x="758" y="451" type="curve"/>
      <point x="552" y="451" type="line"/>
      <point x="545" y="525"/>
      <point x="511" y="566"/>
      <point x="438" y="566" type="curve" smooth="yes"/>
      <point x="319" y="566"/>
      <point x="260" y="448"/>
      <point x="258" y="311" type="curve" smooth="yes"/>
      <point x="258" y="219"/>
      <point x="297" y="150"/>
      <point x="395" y="150" type="curve" smooth="yes"/>
      <point x="466" y="150"/>
      <point x="517" y="191"/>
      <point x="537" y="269" type="curve"/>
      <point x="740" y="269" type="line"/>
      <point x="711" y="83"/>
      <point x="567" y="-12"/>
    </contour>
  </outline>
</glyph>
<glyph name="ccircumflex" format="2">
  <advance width="579"/>
  <unicode hex="0109"/>
  <outline>
    <contour>
      <point x="138" y="585" type="line"/>
      <point x="282" y="748" type="line"/>
      <point x="410" y="748" type="line"/>
      <point x="506" y="585" type="line"/>
      <point x="386" y="585" type="line"/>
      <point x="333" y="641" type="line"/>
      <point x="265" y="585" type="line"/>
    </contour>
    <contour>
      <point x="290" y="-11" type="curve" smooth="yes"/>
      <point x="136" y="-11"/>
      <point x="24" y="72"/>
      <point x="24" y="229" type="curve" smooth="yes"/>
      <point x="24" y="415"/>
      <point x="146" y="536"/>
      <point x="318" y="536" type="curve" smooth="yes"/>
      <point x="454" y="536"/>
      <point x="557" y="472"/>
      <point x="563" y="321" type="curve"/>
      <point x="395" y="321" type="line"/>
      <point x="389" y="376"/>
      <point x="363" y="397"/>
      <point x="314" y="397" type="curve" smooth="yes"/>
      <point x="238" y="397"/>
      <point x="203" y="319"/>
      <point x="203" y="227" type="curve" smooth="yes"/>
      <point x="203" y="160"/>
      <point x="230" y="119"/>
      <point x="296" y="119" type="curve" smooth="yes"/>
      <point x="345" y="119"/>
      <point x="382" y="148"/>
      <point x="392" y="205" type="curve"/>
      <point x="553" y="205" type="line"/>
      <point x="535" y="66"/>
      <point x="440" y="-11"/>
    </contour>
  </outline>
</glyph>
<glyph name="cdotaccent" format="2">
  <advance width="579"/>
  <unicode hex="010B"/>
  <outline>
    <contour>
      <point x="290" y="-11" type="curve" smooth="yes"/>
      <point x="136" y="-11"/>
      <point x="24" y="72"/>
      <point x="24" y="229" type="curve" smooth="yes"/>
      <point x="24" y="415"/>
      <point x="146" y="536"/>
      <point x="318" y="536" type="curve" smooth="yes"/>
      <point x="454" y="536"/>
      <point x="557" y="472"/>
      <point x="563" y="321" type="curve"/>
      <point x="395" y="321" type="line"/>
      <point x="389" y="376"/>
      <point x="363" y="397"/>
      <point x="314" y="397" type="curve" smooth="yes"/>
      <point x="238" y="397"/>
      <point x="203" y="319"/>
      <point x="203" y="227" type="curve" smooth="yes"/>
      <point x="203" y="160"/>
      <point x="230" y="119"/>
      <point x="296" y="119" type="curve" smooth="yes"/>
      <point x="345" y="119"/>
      <point x="382" y="148"/>
      <point x="392" y="205" type="curve"/>
      <point x="553" y="205" type="line"/>
      <point x="535" y="66"/>
      <point x="440" y="-11"/>
    </contour>
    <contour>
      <point x="335" y="579" type="curve" smooth="yes"/>
      <point x="281" y="579"/>
      <point x="240" y="616"/>
      <point x="240" y="667" type="curve" smooth="yes"/>
      <point x="240" y="718"/>
      <point x="282" y="757"/>
      <point x="336" y="757" type="curve" smooth="yes"/>
      <point x="389" y="757"/>
      <point x="431" y="719"/>
      <point x="431" y="668" type="curve" smooth="yes"/>
      <point x="431" y="616"/>
      <point x="389" y="579"/>
    </contour>
  </outline>
</glyph>
<glyph name="Dcaron" format="2">
  <advance width="748"/>
  <unicode hex="010E"/>
  <outline>
    <contour>
      <point x="611" y="905" type="line"/>
      <point x="479" y="759" type="line"/>
      <point x="329" y="759" type="line"/>
      <point x="237" y="905" type="line"/>
      <point x="361" y="905" type="line"/>
      <point x="414" y="856" type="line"/>
      <point x="479" y="905" type="line"/>
    </contour>
    <contour>
      <point x="27" y="0" type="line"/>
      <point x="140" y="715" type="line"/>
      <point x="371" y="715" type="line" smooth="yes"/>
      <point x="614" y="715"/>
      <point x="735" y="600"/>
      <point x="735" y="411" type="curve" smooth="yes"/>
      <point x="735" y="149"/>
      <point x="569" y="0"/>
      <point x="318" y="0" type="curve" smooth="yes"/>
    </contour>
    <contour>
      <point x="257" y="157" type="line"/>
      <point x="319" y="157" type="line" smooth="yes"/>
      <point x="449" y="157"/>
      <point x="523" y="246"/>
      <point x="523" y="402" type="curve" smooth="yes"/>
      <point x="523" y="501"/>
      <point x="474" y="559"/>
      <point x="367" y="559" type="curve" smooth="yes"/>
      <point x="321" y="559" type="line"/>
    </contour>
  </outline>
</glyph>
<glyph name="Dcroat" format="2">
  <advance width="766"/>
  <unicode hex="0110"/>
  <outline>
    <contour>
      <point x="33" y="290" type="line"/>
      <point x="55" y="428" type="line"/>
      <point x="114" y="428" type="line"/>
      <point x="159" y="715" type="line"/>
      <point x="390" y="715" type="line" smooth="yes"/>
      <point x="633" y="715"/>
      <point x="753" y="600"/>
      <point x="754" y="411" type="curve" smooth="yes"/>
      <point x="754" y="149"/>
      <point x="587" y="0"/>
      <point x="336" y="0" type="curve" smooth="yes"/>
      <point x="46" y="0" type="line"/>
      <point x="92" y="290" type="line"/>
    </contour>
    <contour>
      <point x="272" y="157" type="line"/>
      <point x="337" y="157" type="line" smooth="yes"/>
      <point x="468" y="157"/>
      <point x="541" y="246"/>
      <point x="541" y="402" type="curve" smooth="yes"/>
      <point x="541" y="501"/>
      <point x="493" y="559"/>
      <point x="385" y="559" type="curve" smooth="yes"/>
      <point x="336" y="559" type="line"/>
      <point x="315" y="428" type="line"/>
      <point x="435" y="428" type="line"/>
      <point x="413" y="290" type="line"/>
      <point x="293" y="290" type="line"/>
    </contour>
  </outline>
</glyph>
<glyph name="Emacron" format="2">
  <advance width="614"/>
  <unicode hex="0112"/>
  <outline>
    <contour>
      <point x="27" y="0" type="line"/>
      <point x="140" y="715" type="line"/>
      <point x="633" y="715" type="line"/>
      <point x="608" y="557" type="line"/>
      <point x="319" y="557" type="line"/>
      <point x="300" y="434" type="line"/>
      <point x="530" y="434" type="line"/>
      <point x="508" y="290" type="line"/>
      <point x="277" y="290" type="line"/>
      <point x="256" y="158" type="line"/>
      <point x="562" y="158" type="line"/>
      <point x="537" y="0" type="line"/>
    </contour>
    <contour>
      <point x="230" y="771" type="line"/>
      <point x="246" y="878" type="line"/>
      <point x="568" y="878" type="line"/>
      <point x="552" y="771" type="line"/>
    </contour>
  </outline>
</glyph>
<glyph name="Ebreve" format="2">
  <advance width="614"/>
  <unicode hex="0114"/>
  <outline>
    <contour>
      <point x="27" y="0" type="line"/>
      <point x="140" y="715" type="line"/>
      <point x="633" y="715" type="line"/>
      <point x="608" y="557" type="line"/>
      <point x="319" y="557" type="line"/>
      <point x="300" y="434" type="line"/>
      <point x="530" y="434" type="line"/>
      <point x="508" y="290" type="line"/>
      <point x="277" y="290" type="line"/>
      <point x="256" y="158" type="line"/>
      <point x="562" y="158" type="line"/>
      <point x="537" y="0" type="line"/>
    </contour>
    <contour>
      <point x="396" y="752" type="curve" smooth="yes"/>
      <point x="292" y="752"/>
      <point x="235" y="811"/>
      <point x="234" y="905" type="curve"/>
      <point x="349" y="905" type="line"/>
      <point x="351" y="877"/>
      <point x="367" y="859"/>
      <point x="397" y="859" type="curve" smooth="yes"/>
      <point x="426" y="859"/>
      <point x="445" y="875"/>
      <point x="450" y="905" type="curve"/>
      <point x="565" y="905" type="line"/>
      <point x="551" y="808"/>
      <point x="485" y="752"/>
    </contour>
  </outline>
</glyph>
<glyph name="ebreve" format="2">
  <advance width="595"/>
  <unicode hex="0115"/>
  <outline>
    <contour>
      <point x="199" y="216" type="line" smooth="yes"/>
      <point x="199" y="156"/>
      <point x="225" y="111"/>
      <point x="297" y="111" type="curve" smooth="yes"/>
      <point x="349" y="111"/>
      <point x="378" y="135"/>
      <point x="390" y="173" type="curve"/>
      <point x="559" y="173" type="line"/>
      <point x="533" y="52"/>
      <point x="432" y="-12"/>
      <point x="292" y="-12" type="curve" smooth="yes"/>
      <point x="141" y="-12"/>
      <point x="23" y="64"/>
      <point x="23" y="225" type="curve" smooth="yes"/>
      <point x="23" y="412"/>
      <point x="149" y="537"/>
      <point x="321" y="537" type="curve" smooth="yes"/>
      <point x="492" y="537"/>
      <point x="596" y="429"/>
      <point x="567" y="245" type="curve" smooth="yes"/>
      <point x="563" y="220" type="line"/>
      <point x="199" y="220" type="line"/>
    </contour>
    <contour>
      <point x="342" y="587" type="curve" smooth="yes"/>
      <point x="243" y="587"/>
      <point x="181" y="646"/>
      <point x="183" y="745" type="curve"/>
      <point x="294" y="745" type="line"/>
      <point x="296" y="714"/>
      <point x="312" y="697"/>
      <point x="344" y="697" type="curve" smooth="yes"/>
      <point x="375" y="697"/>
      <point x="395" y="714"/>
      <point x="400" y="745" type="curve"/>
      <point x="511" y="745" type="line"/>
      <point x="498" y="643"/>
      <point x="433" y="587"/>
    </contour>
    <contour>
      <point x="321" y="419" type="curve" smooth="yes"/>
      <point x="275" y="419"/>
      <point x="232" y="392"/>
      <point x="211" y="321" type="curve"/>
      <point x="399" y="321" type="line"/>
      <point x="404" y="380"/>
      <point x="384" y="419"/>
    </contour>
  </outline>
</glyph>
<glyph name="Edotaccent" format="2">
  <advance width="614"/>
  <unicode hex="0116"/>
  <outline>
    <contour>
      <point x="393" y="757" type="curve" smooth="yes"/>
      <point x="339" y="757"/>
      <point x="298" y="795"/>
      <point x="298" y="846" type="curve" smooth="yes"/>
      <point x="298" y="897"/>
      <point x="340" y="935"/>
      <point x="394" y="935" type="curve" smooth="yes"/>
      <point x="447" y="935"/>
      <point x="489" y="897"/>
      <point x="489" y="846" type="curve" smooth="yes"/>
      <point x="489" y="795"/>
      <point x="447" y="757"/>
    </contour>
    <contour>
      <point x="27" y="0" type="line"/>
      <point x="140" y="715" type="line"/>
      <point x="633" y="715" type="line"/>
      <point x="608" y="557" type="line"/>
      <point x="319" y="557" type="line"/>
      <point x="300" y="434" type="line"/>
      <point x="530" y="434" type="line"/>
      <point x="508" y="290" type="line"/>
      <point x="277" y="290" type="line"/>
      <point x="256" y="158" type="line"/>
      <point x="562" y="158" type="line"/>
      <point x="537" y="0" type="line"/>
    </contour>
  </outline>
</glyph>
<glyph name="edotaccent" format="2">
  <advance width="595"/>
  <unicode hex="0117"/>
  <outline>
    <contour>
      <point x="199" y="216" type="line" smooth="yes"/>
      <point x="199" y="156"/>
      <point x="225" y="111"/>
      <point x="297" y="111" type="curve" smooth="yes"/>
      <point x="349" y="111"/>
      <point x="378" y="135"/>
      <point x="390" y="173" type="curve"/>
      <point x="559" y="173" type="line"/>
      <point x="533" y="52"/>
      <point x="432" y="-12"/>
      <point x="292" y="-12" type="curve" smooth="yes"/>
      <point x="141" y="-12"/>
      <point x="23" y="64"/>
      <point x="23" y="225" type="curve" smooth="yes"/>
      <point x="23" y="412"/>
      <point x="149" y="537"/>
      <point x="321" y="537" type="curve" smooth="yes"/>
      <point x="492" y="537"/>
      <point x="596" y="429"/>
      <point x="567" y="245" type="curve" smooth="yes"/>
      <point x="563" y="220" type="line"/>
      <point x="199" y="220" type="line"/>
    </contour>
    <contour>
      <point x="339" y="579" type="curve" smooth="yes"/>
      <point x="285" y="579"/>
      <point x="244" y="616"/>
      <point x="244" y="667" type="curve" smooth="yes"/>
      <point x="244" y="718"/>
      <point x="286" y="757"/>
      <point x="340" y="757" type="curve" smooth="yes"/>
      <point x="393" y="757"/>
      <point x="435" y="719"/>
      <point x="435" y="668" type="curve" smooth="yes"/>
      <point x="435" y="616"/>
      <point x="393" y="579"/>
    </contour>
    <contour>
      <point x="321" y="419" type="curve" smooth="yes"/>
      <point x="275" y="419"/>
      <point x="232" y="392"/>
      <point x="211" y="321" type="curve"/>
      <point x="399" y="321" type="line"/>
      <point x="404" y="380"/>
      <point x="384" y="419"/>
    </contour>
  </outline>
</glyph>
<glyph name="Eogonek" format="2">
  <advance width="614"/>
  <unicode hex="0118"/>
  <outline>
    <contour>
      <point x="27" y="0" type="line"/>
      <point x="140" y="715" type="line"/>
      <point x="633" y="715" type="line"/>
      <point x="608" y="557" type="line"/>
      <point x="319" y="557" type="line"/>
      <point x="300" y="434" type="line"/>
      <point x="530" y="434" type="line"/>
      <point x="508" y="290" type="line"/>
      <point x="277" y="290" type="line"/>
      <point x="256" y="158" type="line"/>
      <point x="562" y="158" type="line"/>
      <point x="537" y="0" type="line"/>
      <point x="500" y="0" type="line"/>
      <point x="480" y="-14"/>
      <point x="447" y="-38"/>
      <point x="447" y="-68" type="curve" smooth="yes"/>
      <point x="447" y="-84"/>
      <point x="458" y="-91"/>
      <point x="476" y="-91" type="curve" smooth="yes"/>
      <point x="486" y="-91"/>
      <point x="496" y="-89"/>
      <point x="504" y="-86" type="curve"/>
      <point x="492" y="-168" type="line"/>
      <point x="475" y="-175"/>
      <point x="451" y="-182"/>
      <point x="414" y="-182" type="curve" smooth="yes"/>
      <point x="357" y="-182"/>
      <point x="301" y="-163"/>
      <point x="302" y="-105" type="curve" smooth="yes"/>
      <point x="302" y="-51"/>
      <point x="352" y="-16"/>
      <point x="395" y="0" type="curve"/>
    </contour>
  </outline>
</glyph>
<glyph name="eogonek" format="2">
  <advance width="595"/>
  <unicode hex="0119"/>
  <outline>
    <contour>
      <point x="292" y="-12" type="line" smooth="yes"/>
      <point x="141" y="-12"/>
      <point x="23" y="64"/>
      <point x="23" y="225" type="curve" smooth="yes"/>
      <point x="23" y="412"/>
      <point x="149" y="537"/>
      <point x="321" y="537" type="curve" smooth="yes"/>
      <point x="492" y="537"/>
      <point x="596" y="429"/>
      <point x="567" y="245" type="curve" smooth="yes"/>
      <point x="563" y="220" type="line"/>
      <point x="199" y="220" type="line"/>
      <point x="199" y="216" type="line" smooth="yes"/>
      <point x="199" y="156"/>
      <point x="225" y="111"/>
      <point x="297" y="111" type="curve" smooth="yes"/>
      <point x="349" y="111"/>
      <point x="378" y="135"/>
      <point x="390" y="173" type="curve"/>
      <point x="559" y="173" type="line"/>
      <point x="547" y="118"/>
      <point x="523" y="78"/>
      <point x="480" y="43" type="curve" smooth="yes"/>
      <point x="447" y="14"/>
      <point x="371" y="-21"/>
      <point x="371" y="-67" type="curve" smooth="yes"/>
      <point x="371" y="-84"/>
      <point x="382" y="-91"/>
      <point x="400" y="-91" type="curve" smooth="yes"/>
      <point x="410" y="-91"/>
      <point x="420" y="-89"/>
      <point x="429" y="-86" type="curve"/>
      <point x="416" y="-168" type="line"/>
      <point x="399" y="-175"/>
      <point x="375" y="-182"/>
      <point x="338" y="-182" type="curve" smooth="yes"/>
      <point x="281" y="-182"/>
      <point x="225" y="-163"/>
      <point x="226" y="-106" type="curve" smooth="yes"/>
      <point x="226" y="-56"/>
      <point x="270" y="-29"/>
      <point x="309" y="-12" type="curve"/>
    </contour>
    <contour>
      <point x="321" y="419" type="curve" smooth="yes"/>
      <point x="275" y="419"/>
      <point x="232" y="392"/>
      <point x="211" y="321" type="curve"/>
      <point x="399" y="321" type="line"/>
      <point x="404" y="380"/>
      <point x="384" y="419"/>
    </contour>
  </outline>
</glyph>
<glyph name="Gdotaccent" format="2">
  <advance width="788"/>
  <unicode hex="0120"/>
  <outline>
    <contour>
      <point x="451" y="757" type="curve" smooth="yes"/>
      <point x="397" y="757"/>
      <point x="356" y="795"/>
      <point x="356" y="846" type="curve" smooth="yes"/>
      <point x="356" y="897"/>
      <point x="398" y="935"/>
      <point x="452" y="935" type="curve" smooth="yes"/>
      <point x="505" y="935"/>
      <point x="547" y="897"/>
      <point x="547" y="846" type="curve" smooth="yes"/>
      <point x="547" y="795"/>
      <point x="505" y="757"/>
    </contour>
    <contour>
      <point x="401" y="-12" type="curve" smooth="yes"/>
      <point x="183" y="-12"/>
      <point x="45" y="101"/>
      <point x="45" y="307" type="curve" smooth="yes"/>
      <point x="45" y="547"/>
      <point x="213" y="726"/>
      <point x="450" y="725" type="curve" smooth="yes"/>
      <point x="618" y="725"/>
      <point x="760" y="650"/>
      <point x="769" y="463" type="curve"/>
      <point x="565" y="463" type="line"/>
      <point x="559" y="529"/>
      <point x="520" y="564"/>
      <point x="442" y="564" type="curve" smooth="yes"/>
      <point x="322" y="564"/>
      <point x="257" y="444"/>
      <point x="257" y="309" type="curve" smooth="yes"/>
      <point x="257" y="207"/>
      <point x="305" y="144"/>
      <point x="405" y="144" type="curve" smooth="yes"/>
      <point x="496" y="144"/>
      <point x="539" y="190"/>
      <point x="552" y="252" type="curve"/>
      <point x="420" y="252" type="line"/>
      <point x="443" y="395" type="line"/>
      <point x="778" y="395" type="line"/>
      <point x="763" y="123"/>
      <point x="641" y="-12"/>
    </contour>
  </outline>
</glyph>
<glyph name="gdotaccent" format="2">
  <advance width="640"/>
  <unicode hex="0121"/>
  <outline>
    <contour>
      <point x="294" y="156" type="curve" smooth="yes"/>
      <point x="369" y="156"/>
      <point x="416" y="221"/>
      <point x="416" y="309" type="curve" smooth="yes"/>
      <point x="416" y="366"/>
      <point x="382" y="405"/>
      <point x="327" y="405" type="curve" smooth="yes"/>
      <point x="250" y="405"/>
      <point x="211" y="332"/>
      <point x="211" y="258" type="curve" smooth="yes"/>
      <point x="211" y="198"/>
      <point x="238" y="156"/>
    </contour>
    <contour>
      <point x="628" y="523" type="line"/>
      <point x="550" y="30" type="line" smooth="yes"/>
      <point x="526" y="-121"/>
      <point x="447" y="-194"/>
      <point x="264" y="-194" type="curve" smooth="yes"/>
      <point x="71" y="-194"/>
      <point x="-5" y="-104"/>
      <point x="-11" y="0" type="curve"/>
      <point x="167" y="0" type="line"/>
      <point x="172" y="-33"/>
      <point x="196" y="-68"/>
      <point x="259" y="-68" type="curve" smooth="yes"/>
      <point x="336" y="-68"/>
      <point x="362" y="-26"/>
      <point x="371" y="31" type="curve" smooth="yes"/>
      <point x="383" y="106" type="line"/>
      <point x="349" y="53"/>
      <point x="298" y="26"/>
      <point x="226" y="26" type="curve" smooth="yes"/>
      <point x="110" y="26"/>
      <point x="26" y="102"/>
      <point x="26" y="246" type="curve" smooth="yes"/>
      <point x="26" y="417"/>
      <point x="132" y="537"/>
      <point x="281" y="537" type="curve" smooth="yes"/>
      <point x="362" y="537"/>
      <point x="412" y="505"/>
      <point x="437" y="451" type="curve"/>
      <point x="449" y="523" type="line"/>
    </contour>
    <contour>
      <point x="357" y="579" type="curve" smooth="yes"/>
      <point x="303" y="579"/>
      <point x="262" y="616"/>
      <point x="262" y="667" type="curve" smooth="yes"/>
      <point x="262" y="718"/>
      <point x="304" y="757"/>
      <point x="358" y="757" type="curve" smooth="yes"/>
      <point x="411" y="757"/>
      <point x="453" y="719"/>
      <point x="453" y="668" type="curve" smooth="yes"/>
      <point x="453" y="616"/>
      <point x="411" y="579"/>
    </contour>
  </outline>
</glyph>
<glyph name="gcommaaccent" format="2">
  <advance width="640"/>
  <unicode hex="0123"/>
  <outline>
    <contour>
      <point x="374" y="770" type="line"/>
      <point x="473" y="743" type="line"/>
      <point x="422" y="566" type="line"/>
      <point x="265" y="585" type="line"/>
    </contour>
    <contour>
      <point x="294" y="156" type="curve" smooth="yes"/>
      <point x="369" y="156"/>
      <point x="416" y="221"/>
      <point x="416" y="309" type="curve" smooth="yes"/>
      <point x="416" y="366"/>
      <point x="382" y="405"/>
      <point x="327" y="405" type="curve" smooth="yes"/>
      <point x="250" y="405"/>
      <point x="211" y="332"/>
      <point x="211" y="258" type="curve" smooth="yes"/>
      <point x="211" y="198"/>
      <point x="238" y="156"/>
    </contour>
    <contour>
      <point x="628" y="523" type="line"/>
      <point x="550" y="30" type="line" smooth="yes"/>
      <point x="526" y="-121"/>
      <point x="447" y="-194"/>
      <point x="264" y="-194" type="curve" smooth="yes"/>
      <point x="71" y="-194"/>
      <point x="-5" y="-104"/>
      <point x="-11" y="0" type="curve"/>
      <point x="167" y="0" type="line"/>
      <point x="172" y="-33"/>
      <point x="196" y="-68"/>
      <point x="259" y="-68" type="curve" smooth="yes"/>
      <point x="336" y="-68"/>
      <point x="362" y="-26"/>
      <point x="371" y="31" type="curve" smooth="yes"/>
      <point x="383" y="106" type="line"/>
      <point x="349" y="53"/>
      <point x="298" y="26"/>
      <point x="226" y="26" type="curve" smooth="yes"/>
      <point x="110" y="26"/>
      <point x="26" y="102"/>
      <point x="26" y="246" type="curve" smooth="yes"/>
      <point x="26" y="417"/>
      <point x="132" y="537"/>
      <point x="281" y="537" type="curve" smooth="yes"/>
      <point x="362" y="537"/>
      <point x="412" y="505"/>
      <point x="437" y="451" type="curve"/>
      <point x="449" y="523" type="line"/>
    </contour>
  </outline>
</glyph>
<glyph name="Hcircumflex" format="2">
  <advance width="784"/>
  <unicode hex="0124"/>
  <outline>
    <contour>
      <point x="27" y="0" type="line"/>
      <point x="140" y="715" type="line"/>
      <point x="346" y="715" type="line"/>
      <point x="302" y="442" type="line"/>
      <point x="538" y="442" type="line"/>
      <point x="581" y="715" type="line"/>
      <point x="786" y="715" type="line"/>
      <point x="673" y="0" type="line"/>
      <point x="468" y="0" type="line"/>
      <point x="512" y="282" type="line"/>
      <point x="277" y="282" type="line"/>
      <point x="233" y="0" type="line"/>
    </contour>
    <contour>
      <point x="276" y="759" type="line"/>
      <point x="407" y="905" type="line"/>
      <point x="557" y="905" type="line"/>
      <point x="650" y="759" type="line"/>
      <point x="525" y="759" type="line"/>
      <point x="472" y="808" type="line"/>
      <point x="408" y="759" type="line"/>
    </contour>
  </outline>
</glyph>
<glyph name="hcircumflex" format="2">
  <advance width="622"/>
  <unicode hex="0125"/>
  <outline>
    <contour>
      <point x="11" y="0" type="line"/>
      <point x="130" y="753" type="line"/>
      <point x="309" y="753" type="line"/>
      <point x="260" y="440" type="line"/>
      <point x="296" y="496"/>
      <point x="348" y="537"/>
      <point x="433" y="537" type="curve" smooth="yes"/>
      <point x="532" y="537"/>
      <point x="606" y="473"/>
      <point x="581" y="315" type="curve" smooth="yes"/>
      <point x="531" y="0" type="line"/>
      <point x="352" y="0" type="line"/>
      <point x="399" y="302" type="line" smooth="yes"/>
      <point x="409" y="363"/>
      <point x="389" y="392"/>
      <point x="340" y="392" type="curve" smooth="yes"/>
      <point x="284" y="392"/>
      <point x="246" y="357"/>
      <point x="236" y="289" type="curve" smooth="yes"/>
      <point x="190" y="0" type="line"/>
    </contour>
    <contour>
      <point x="202" y="792" type="line"/>
      <point x="333" y="938" type="line"/>
      <point x="483" y="938" type="line"/>
      <point x="576" y="792" type="line"/>
      <point x="451" y="792" type="line"/>
      <point x="398" y="841" type="line"/>
      <point x="334" y="792" type="line"/>
    </contour>
  </outline>
</glyph>
<glyph name="Hbar" format="2">
  <advance width="784"/>
  <unicode hex="0126"/>
  <outline>
    <contour>
      <point x="49" y="521" type="line"/>
      <point x="64" y="617" type="line"/>
      <point x="124" y="617" type="line"/>
      <point x="140" y="715" type="line"/>
      <point x="346" y="715" type="line"/>
      <point x="330" y="617" type="line"/>
      <point x="565" y="617" type="line"/>
      <point x="581" y="715" type="line"/>
      <point x="786" y="715" type="line"/>
      <point x="770" y="617" type="line"/>
      <point x="831" y="617" type="line"/>
      <point x="815" y="521" type="line"/>
      <point x="755" y="521" type="line"/>
      <point x="673" y="0" type="line"/>
      <point x="468" y="0" type="line"/>
      <point x="512" y="282" type="line"/>
      <point x="277" y="282" type="line"/>
      <point x="233" y="0" type="line"/>
      <point x="27" y="0" type="line"/>
      <point x="109" y="521" type="line"/>
    </contour>
    <contour>
      <point x="302" y="442" type="line"/>
      <point x="538" y="442" type="line"/>
      <point x="550" y="521" type="line"/>
      <point x="314" y="521" type="line"/>
    </contour>
  </outline>
</glyph>
<glyph name="hbar" format="2">
  <advance width="622"/>
  <unicode hex="0127"/>
  <outline>
    <contour>
      <point x="47" y="587" type="line"/>
      <point x="62" y="683" type="line"/>
      <point x="119" y="683" type="line"/>
      <point x="130" y="753" type="line"/>
      <point x="309" y="753" type="line"/>
      <point x="298" y="683" type="line"/>
      <point x="453" y="683" type="line"/>
      <point x="438" y="587" type="line"/>
      <point x="283" y="587" type="line"/>
      <point x="260" y="440" type="line"/>
      <point x="296" y="496"/>
      <point x="348" y="537"/>
      <point x="433" y="537" type="curve" smooth="yes"/>
      <point x="532" y="537"/>
      <point x="606" y="473"/>
      <point x="581" y="315" type="curve" smooth="yes"/>
      <point x="531" y="0" type="line"/>
      <point x="352" y="0" type="line"/>
      <point x="399" y="302" type="line" smooth="yes"/>
      <point x="409" y="365"/>
      <point x="389" y="392"/>
      <point x="340" y="392" type="curve" smooth="yes"/>
      <point x="284" y="392"/>
      <point x="246" y="357"/>
      <point x="236" y="289" type="curve" smooth="yes"/>
      <point x="190" y="0" type="line"/>
      <point x="11" y="0" type="line"/>
      <point x="104" y="587" type="line"/>
    </contour>
  </outline>
</glyph>
<glyph name="Itilde" format="2">
  <advance width="353"/>
  <unicode hex="0128"/>
  <outline>
    <contour>
      <point x="31" y="0" type="line"/>
      <point x="144" y="715" type="line"/>
      <point x="351" y="715" type="line"/>
      <point x="238" y="0" type="line"/>
    </contour>
    <contour>
      <point x="327" y="758" type="curve" smooth="yes"/>
      <point x="269" y="758"/>
      <point x="238" y="792"/>
      <point x="208" y="792" type="curve" smooth="yes"/>
      <point x="191" y="792"/>
      <point x="177" y="779"/>
      <point x="172" y="759" type="curve"/>
      <point x="71" y="759" type="line"/>
      <point x="88" y="865"/>
      <point x="143" y="912"/>
      <point x="205" y="912" type="curve" smooth="yes"/>
      <point x="260" y="912"/>
      <point x="293" y="879"/>
      <point x="326" y="879" type="curve" smooth="yes"/>
      <point x="344" y="879"/>
      <point x="356" y="891"/>
      <point x="362" y="911" type="curve"/>
      <point x="463" y="911" type="line"/>
      <point x="445" y="806"/>
      <point x="387" y="758"/>
    </contour>
  </outline>
</glyph>
